<svg width="100" height="30" viewBox="0 0 100 30" fill="none" xmlns="http://www.w3.org/2000/svg">
<rect width="100" height="30" rx="5" fill="url(#paint0_linear_2_2)"/>
<path d="M8.40575 20V8.992H10.6778V20H8.40575ZM13.1204 20V11.84H15.1044L15.1684 12.864H15.2804C15.419 12.608 15.595 12.3947 15.8084 12.224C16.0324 12.0427 16.2937 11.9147 16.5924 11.84C16.9017 11.7547 17.2484 11.712 17.6324 11.712C18.283 11.712 18.7737 11.808 19.1044 12C19.4457 12.1813 19.6857 12.4693 19.8244 12.864H19.9524C20.091 12.608 20.2724 12.3947 20.4964 12.224C20.731 12.0427 21.003 11.9147 21.3124 11.84C21.6217 11.7547 21.9737 11.712 22.3684 11.712C23.0617 11.712 23.579 11.8347 23.9204 12.08C24.2617 12.3147 24.491 12.672 24.6084 13.152C24.7257 13.6213 24.7844 14.2027 24.7844 14.896V20H22.6724V15.68C22.6724 15.1893 22.6564 14.8 22.6244 14.512C22.5924 14.224 22.5337 14.0107 22.4484 13.872C22.3737 13.7333 22.251 13.648 22.0804 13.616C21.9097 13.5733 21.6804 13.552 21.3924 13.552C21.083 13.552 20.8324 13.5947 20.6404 13.68C20.459 13.7547 20.3204 13.8773 20.2244 14.048C20.139 14.2187 20.0804 14.448 20.0484 14.736C20.027 15.0133 20.0164 15.36 20.0164 15.776V20H17.8884V15.68C17.8884 15.1893 17.8724 14.8 17.8404 14.512C17.819 14.224 17.7657 14.0107 17.6804 13.872C17.595 13.7333 17.467 13.648 17.2964 13.616C17.1257 13.5733 16.9017 13.552 16.6244 13.552C16.315 13.552 16.0644 13.5947 15.8724 13.68C15.691 13.7547 15.5524 13.8773 15.4564 14.048C15.371 14.2187 15.3124 14.448 15.2804 14.736C15.2484 15.024 15.2324 15.3707 15.2324 15.776V20H13.1204ZM27.0735 23.184V11.84H29.0575L29.1215 12.864H29.2335C29.4042 12.544 29.6175 12.304 29.8735 12.144C30.1295 11.9733 30.4122 11.8613 30.7215 11.808C31.0308 11.744 31.3402 11.712 31.6495 11.712C32.1508 11.712 32.5775 11.7813 32.9295 11.92C33.2922 12.048 33.5855 12.272 33.8095 12.592C34.0335 12.9013 34.1935 13.328 34.2895 13.872C34.3962 14.416 34.4495 15.0933 34.4495 15.904C34.4495 16.7147 34.3962 17.392 34.2895 17.936C34.1935 18.48 34.0388 18.912 33.8255 19.232C33.6122 19.552 33.3295 19.7813 32.9775 19.92C32.6362 20.0587 32.2148 20.128 31.7135 20.128C31.3615 20.128 31.0308 20.096 30.7215 20.032C30.4228 19.9787 30.1562 19.8827 29.9215 19.744C29.6868 19.5947 29.4842 19.3813 29.3135 19.104H29.1855V23.184H27.0735ZM30.7535 18.288C31.1055 18.288 31.3882 18.2667 31.6015 18.224C31.8148 18.1707 31.9695 18.0693 32.0655 17.92C32.1722 17.76 32.2415 17.5253 32.2735 17.216C32.3055 16.896 32.3215 16.464 32.3215 15.92C32.3215 15.376 32.3055 14.944 32.2735 14.624C32.2415 14.304 32.1722 14.0693 32.0655 13.92C31.9695 13.76 31.8148 13.6587 31.6015 13.616C31.3882 13.5627 31.1055 13.536 30.7535 13.536C30.3695 13.536 30.0762 13.5893 29.8735 13.696C29.6708 13.792 29.5162 13.9467 29.4095 14.16C29.3135 14.352 29.2495 14.5973 29.2175 14.896C29.1962 15.184 29.1855 15.5253 29.1855 15.92C29.1855 16.3253 29.1962 16.672 29.2175 16.96C29.2495 17.2373 29.3082 17.472 29.3935 17.664C29.5002 17.888 29.6602 18.048 29.8735 18.144C30.0868 18.24 30.3802 18.288 30.7535 18.288ZM36.4329 20V8.112H38.5609V20H36.4329ZM42.8391 20.128C42.3165 20.128 41.8738 20.0533 41.5111 19.904C41.1485 19.744 40.8711 19.488 40.6791 19.136C40.4978 18.7733 40.4071 18.2987 40.4071 17.712C40.4071 17.0827 40.4818 16.5867 40.6311 16.224C40.7805 15.8507 41.0418 15.584 41.4151 15.424C41.7885 15.2533 42.3058 15.168 42.9671 15.168C43.0738 15.168 43.2231 15.1733 43.4151 15.184C43.6071 15.184 43.8258 15.1893 44.0711 15.2C44.3165 15.2 44.5618 15.2053 44.8071 15.216C45.0525 15.216 45.2765 15.2213 45.4791 15.232V14.912C45.4791 14.56 45.4525 14.2827 45.3991 14.08C45.3458 13.8773 45.2445 13.728 45.0951 13.632C44.9458 13.536 44.7271 13.4773 44.4391 13.456C44.1511 13.4347 43.7778 13.424 43.3191 13.424C43.0845 13.424 42.8125 13.4293 42.5031 13.44C42.1938 13.4507 41.8951 13.4667 41.6071 13.488C41.3191 13.5093 41.0898 13.5307 40.9191 13.552V11.952C41.3778 11.8773 41.8738 11.8187 42.4071 11.776C42.9405 11.7333 43.4791 11.712 44.0231 11.712C44.6631 11.712 45.1965 11.7547 45.6231 11.84C46.0605 11.9147 46.4071 12.0373 46.6631 12.208C46.9298 12.3787 47.1271 12.5973 47.2551 12.864C47.3938 13.12 47.4845 13.4293 47.5271 13.792C47.5698 14.144 47.5911 14.5493 47.5911 15.008V20H45.6231L45.5591 19.008H45.4311C45.2498 19.3387 45.0098 19.584 44.7111 19.744C44.4231 19.904 44.1138 20.0053 43.7831 20.048C43.4631 20.1013 43.1485 20.128 42.8391 20.128ZM43.8471 18.496C44.0818 18.496 44.2845 18.48 44.4551 18.448C44.6365 18.416 44.7911 18.3627 44.9191 18.288C45.0578 18.2027 45.1645 18.096 45.2391 17.968C45.3138 17.8293 45.3725 17.6587 45.4151 17.456C45.4578 17.2533 45.4791 17.008 45.4791 16.72V16.48H43.5431C43.2445 16.48 43.0151 16.5013 42.8551 16.544C42.6951 16.5867 42.5885 16.6827 42.5351 16.832C42.4818 16.9813 42.4551 17.2053 42.4551 17.504C42.4551 17.7813 42.4871 17.9947 42.5511 18.144C42.6151 18.2827 42.7485 18.3787 42.9511 18.432C43.1538 18.4747 43.4525 18.496 43.8471 18.496ZM49.886 20V11.84H51.87L51.934 12.864H52.062C52.2113 12.5973 52.3927 12.3787 52.606 12.208C52.83 12.0373 53.102 11.9147 53.422 11.84C53.7527 11.7547 54.126 11.712 54.542 11.712C55.0967 11.712 55.5393 11.7813 55.87 11.92C56.2113 12.0587 56.4727 12.2613 56.654 12.528C56.8353 12.7947 56.9527 13.1253 57.006 13.52C57.07 13.9147 57.102 14.3733 57.102 14.896V20H54.99V15.68C54.99 15.1893 54.974 14.8 54.942 14.512C54.91 14.224 54.846 14.0107 54.75 13.872C54.654 13.7333 54.51 13.648 54.318 13.616C54.126 13.5733 53.87 13.552 53.55 13.552C53.2087 13.552 52.9313 13.5947 52.718 13.68C52.5153 13.7547 52.3607 13.8827 52.254 14.064C52.158 14.2347 52.0887 14.464 52.046 14.752C52.014 15.0293 51.998 15.3707 51.998 15.776V20H49.886ZM60.1384 20V13.552H58.5704V11.84H60.1384V9.472H62.2664V11.84H64.1224V13.552H62.2664V20H60.1384ZM67.4485 20.128C66.9258 20.128 66.4832 20.0533 66.1205 19.904C65.7578 19.744 65.4805 19.488 65.2885 19.136C65.1072 18.7733 65.0165 18.2987 65.0165 17.712C65.0165 17.0827 65.0912 16.5867 65.2405 16.224C65.3898 15.8507 65.6512 15.584 66.0245 15.424C66.3978 15.2533 66.9152 15.168 67.5765 15.168C67.6832 15.168 67.8325 15.1733 68.0245 15.184C68.2165 15.184 68.4352 15.1893 68.6805 15.2C68.9258 15.2 69.1712 15.2053 69.4165 15.216C69.6618 15.216 69.8858 15.2213 70.0885 15.232V14.912C70.0885 14.56 70.0618 14.2827 70.0085 14.08C69.9552 13.8773 69.8538 13.728 69.7045 13.632C69.5552 13.536 69.3365 13.4773 69.0485 13.456C68.7605 13.4347 68.3872 13.424 67.9285 13.424C67.6938 13.424 67.4218 13.4293 67.1125 13.44C66.8032 13.4507 66.5045 13.4667 66.2165 13.488C65.9285 13.5093 65.6992 13.5307 65.5285 13.552V11.952C65.9872 11.8773 66.4832 11.8187 67.0165 11.776C67.5498 11.7333 68.0885 11.712 68.6325 11.712C69.2725 11.712 69.8058 11.7547 70.2325 11.84C70.6698 11.9147 71.0165 12.0373 71.2725 12.208C71.5392 12.3787 71.7365 12.5973 71.8645 12.864C72.0032 13.12 72.0938 13.4293 72.1365 13.792C72.1792 14.144 72.2005 14.5493 72.2005 15.008V20H70.2325L70.1685 19.008H70.0405C69.8592 19.3387 69.6192 19.584 69.3205 19.744C69.0325 19.904 68.7232 20.0053 68.3925 20.048C68.0725 20.1013 67.7578 20.128 67.4485 20.128ZM68.4565 18.496C68.6912 18.496 68.8938 18.48 69.0645 18.448C69.2458 18.416 69.4005 18.3627 69.5285 18.288C69.6672 18.2027 69.7738 18.096 69.8485 17.968C69.9232 17.8293 69.9818 17.6587 70.0245 17.456C70.0672 17.2533 70.0885 17.008 70.0885 16.72V16.48H68.1525C67.8538 16.48 67.6245 16.5013 67.4645 16.544C67.3045 16.5867 67.1978 16.6827 67.1445 16.832C67.0912 16.9813 67.0645 17.2053 67.0645 17.504C67.0645 17.7813 67.0965 17.9947 67.1605 18.144C67.2245 18.2827 67.3578 18.3787 67.5605 18.432C67.7632 18.4747 68.0618 18.496 68.4565 18.496ZM76.9914 20.128C76.49 20.128 76.0634 20.064 75.7114 19.936C75.3594 19.7973 75.0714 19.5733 74.8474 19.264C74.6234 18.944 74.458 18.512 74.3514 17.968C74.2554 17.424 74.2074 16.7467 74.2074 15.936C74.2074 15.1253 74.2554 14.448 74.3514 13.904C74.4474 13.36 74.602 12.928 74.8154 12.608C75.0394 12.288 75.322 12.0587 75.6634 11.92C76.0154 11.7813 76.442 11.712 76.9434 11.712C77.2954 11.712 77.6207 11.744 77.9194 11.808C78.2287 11.8613 78.5007 11.9627 78.7354 12.112C78.9807 12.2507 79.1834 12.4587 79.3434 12.736H79.4714V8.112H81.5834V20H79.5994L79.5354 18.992H79.4234C79.2634 19.312 79.05 19.552 78.7834 19.712C78.5274 19.872 78.2447 19.9787 77.9354 20.032C77.626 20.096 77.3114 20.128 76.9914 20.128ZM77.9034 18.304C78.298 18.304 78.5967 18.256 78.7994 18.16C79.0127 18.0533 79.1674 17.888 79.2634 17.664C79.3487 17.4507 79.402 17.2 79.4234 16.912C79.4554 16.624 79.4714 16.2933 79.4714 15.92C79.4714 15.536 79.4554 15.2053 79.4234 14.928C79.402 14.6507 79.3487 14.416 79.2634 14.224C79.1674 13.9787 79.0127 13.808 78.7994 13.712C78.5967 13.6053 78.298 13.552 77.9034 13.552C77.5514 13.552 77.2687 13.5787 77.0554 13.632C76.842 13.6747 76.682 13.776 76.5754 13.936C76.4794 14.0853 76.4154 14.32 76.3834 14.64C76.3514 14.9493 76.3354 15.376 76.3354 15.92C76.3354 16.464 76.3514 16.896 76.3834 17.216C76.4154 17.536 76.4794 17.776 76.5754 17.936C76.682 18.0853 76.842 18.1867 77.0554 18.24C77.2687 18.2827 77.5514 18.304 77.9034 18.304ZM87.3108 20.128C86.6068 20.128 86.0201 20.0853 85.5508 20C85.0814 19.9147 84.7134 19.776 84.4468 19.584C84.1801 19.392 83.9828 19.136 83.8548 18.816C83.7374 18.496 83.6574 18.096 83.6148 17.616C83.5828 17.136 83.5668 16.5653 83.5668 15.904C83.5668 15.2427 83.5828 14.6773 83.6148 14.208C83.6574 13.728 83.7374 13.328 83.8548 13.008C83.9828 12.688 84.1801 12.432 84.4468 12.24C84.7134 12.048 85.0814 11.9147 85.5508 11.84C86.0201 11.7547 86.6068 11.712 87.3108 11.712C88.0148 11.712 88.5961 11.7547 89.0548 11.84C89.5241 11.9147 89.8921 12.048 90.1588 12.24C90.4361 12.432 90.6334 12.688 90.7508 13.008C90.8788 13.328 90.9588 13.728 90.9908 14.208C91.0334 14.6773 91.0548 15.2427 91.0548 15.904C91.0548 16.5653 91.0334 17.136 90.9908 17.616C90.9588 18.096 90.8788 18.496 90.7508 18.816C90.6334 19.136 90.4361 19.392 90.1588 19.584C89.8921 19.776 89.5241 19.9147 89.0548 20C88.5961 20.0853 88.0148 20.128 87.3108 20.128ZM87.3108 18.416C87.7054 18.416 88.0148 18.3893 88.2388 18.336C88.4734 18.2827 88.6334 18.176 88.7188 18.016C88.8148 17.8453 88.8734 17.5893 88.8948 17.248C88.9161 16.9067 88.9268 16.4587 88.9268 15.904C88.9268 15.3493 88.9161 14.9067 88.8948 14.576C88.8734 14.2347 88.8148 13.984 88.7188 13.824C88.6334 13.6533 88.4734 13.5467 88.2388 13.504C88.0148 13.4507 87.7054 13.424 87.3108 13.424C86.9054 13.424 86.5908 13.4507 86.3668 13.504C86.1428 13.5467 85.9828 13.6533 85.8868 13.824C85.7908 13.984 85.7321 14.2347 85.7108 14.576C85.7001 14.9067 85.6948 15.3493 85.6948 15.904C85.6948 16.4587 85.7001 16.9067 85.7108 17.248C85.7321 17.5893 85.7908 17.8453 85.8868 18.016C85.9828 18.176 86.1428 18.2827 86.3668 18.336C86.5908 18.3893 86.9054 18.416 87.3108 18.416Z" fill="white"/>
<path d="M8.40575 20H8.20575V20.2H8.40575V20ZM8.40575 8.992V8.792H8.20575V8.992H8.40575ZM10.6778 8.992H10.8778V8.792H10.6778V8.992ZM10.6778 20V20.2H10.8778V20H10.6778ZM8.60575 20V8.992H8.20575V20H8.60575ZM8.40575 9.192H10.6778V8.792H8.40575V9.192ZM10.4778 8.992V20H10.8778V8.992H10.4778ZM10.6778 19.8H8.40575V20.2H10.6778V19.8ZM13.1204 20H12.9204V20.2H13.1204V20ZM13.1204 11.84V11.64H12.9204V11.84H13.1204ZM15.1044 11.84L15.304 11.8275L15.2923 11.64H15.1044V11.84ZM15.1684 12.864L14.9688 12.8765L14.9805 13.064H15.1684V12.864ZM15.2804 12.864V13.064H15.3995L15.4562 12.9593L15.2804 12.864ZM15.8084 12.224L15.9333 12.3802L15.9342 12.3794L15.8084 12.224ZM16.5924 11.84L16.6409 12.0341L16.6456 12.0328L16.5924 11.84ZM19.1044 12L19.0039 12.1731L19.0105 12.1766L19.1044 12ZM19.8244 12.864L19.6357 12.9303L19.6827 13.064H19.8244V12.864ZM19.9524 12.864V13.064H20.0715L20.1282 12.9593L19.9524 12.864ZM20.4964 12.224L20.6176 12.3831L20.6187 12.3823L20.4964 12.224ZM21.3124 11.84L21.3593 12.0345L21.3656 12.0328L21.3124 11.84ZM23.9204 12.08L23.8036 12.2424L23.8071 12.2448L23.9204 12.08ZM24.6084 13.152L24.4141 13.1995L24.4143 13.2005L24.6084 13.152ZM24.7844 20V20.2H24.9844V20H24.7844ZM22.6724 20H22.4724V20.2H22.6724V20ZM22.6244 14.512L22.4256 14.5341L22.4256 14.5341L22.6244 14.512ZM22.4484 13.872L22.272 13.967L22.278 13.9768L22.4484 13.872ZM22.0804 13.616L22.0318 13.8104L22.0435 13.8126L22.0804 13.616ZM20.6404 13.68L20.7166 13.865L20.7216 13.8628L20.6404 13.68ZM20.2244 14.048L20.0499 13.9498L20.0455 13.9586L20.2244 14.048ZM20.0484 14.736L19.8495 14.7139L19.849 14.7207L20.0484 14.736ZM20.0164 20V20.2H20.2164V20H20.0164ZM17.8884 20H17.6884V20.2H17.8884V20ZM17.8404 14.512L17.6408 14.5268L17.6416 14.5341L17.8404 14.512ZM17.6804 13.872L17.51 13.9768L17.51 13.9768L17.6804 13.872ZM17.2964 13.616L17.2478 13.8104L17.2595 13.8126L17.2964 13.616ZM15.8724 13.68L15.9486 13.865L15.9536 13.8628L15.8724 13.68ZM15.4564 14.048L15.2819 13.9498L15.2775 13.9586L15.4564 14.048ZM15.2804 14.736L15.4792 14.7581L15.4792 14.7581L15.2804 14.736ZM15.2324 20V20.2H15.4324V20H15.2324ZM13.3204 20V11.84H12.9204V20H13.3204ZM13.1204 12.04H15.1044V11.64H13.1204V12.04ZM14.9048 11.8525L14.9688 12.8765L15.368 12.8515L15.304 11.8275L14.9048 11.8525ZM15.1684 13.064H15.2804V12.664H15.1684V13.064ZM15.4562 12.9593C15.583 12.7252 15.7422 12.5331 15.9333 12.3802L15.6834 12.0678C15.4479 12.2563 15.2551 12.4908 15.1045 12.7687L15.4562 12.9593ZM15.9342 12.3794C16.134 12.2177 16.3685 12.1021 16.6409 12.034L16.5439 11.646C16.2189 11.7272 15.9307 11.8676 15.6825 12.0686L15.9342 12.3794ZM16.6456 12.0328C16.9346 11.9531 17.2629 11.912 17.6324 11.912V11.512C17.2338 11.512 16.8689 11.5563 16.5392 11.6472L16.6456 12.0328ZM17.6324 11.912C18.2695 11.912 18.7183 12.0071 19.0039 12.173L19.2048 11.827C18.8291 11.6089 18.2966 11.512 17.6324 11.512V11.912ZM19.0105 12.1766C19.3037 12.3324 19.5122 12.5788 19.6357 12.9303L20.0131 12.7977C19.8592 12.3599 19.5877 12.0303 19.1982 11.8234L19.0105 12.1766ZM19.8244 13.064H19.9524V12.664H19.8244V13.064ZM20.1282 12.9593C20.2539 12.7273 20.4169 12.536 20.6176 12.3831L20.3752 12.0649C20.1279 12.2533 19.9282 12.4887 19.7765 12.7687L20.1282 12.9593ZM20.6187 12.3823C20.8294 12.2194 21.0753 12.103 21.3593 12.0344L21.2654 11.6456C20.9308 11.7264 20.6326 11.8659 20.3741 12.0657L20.6187 12.3823ZM21.3656 12.0328C21.6541 11.9532 21.9877 11.912 22.3684 11.912V11.512C21.9597 11.512 21.5893 11.5561 21.2592 11.6472L21.3656 12.0328ZM22.3684 11.912C23.0446 11.912 23.512 12.0328 23.8036 12.2424L24.0371 11.9176C23.646 11.6365 23.0788 11.512 22.3684 11.512V11.912ZM23.8071 12.2448C24.1004 12.4465 24.3061 12.7575 24.4141 13.1995L24.8027 13.1045C24.676 12.5865 24.423 12.1829 24.0337 11.9152L23.8071 12.2448ZM24.4143 13.2005C24.5264 13.6488 24.5844 14.2126 24.5844 14.896H24.9844C24.9844 14.1927 24.925 13.5939 24.8024 13.1035L24.4143 13.2005ZM24.5844 14.896V20H24.9844V14.896H24.5844ZM24.7844 19.8H22.6724V20.2H24.7844V19.8ZM22.8724 20V15.68H22.4724V20H22.8724ZM22.8724 15.68C22.8724 15.1863 22.8563 14.7885 22.8232 14.4899L22.4256 14.5341C22.4564 14.8115 22.4724 15.1924 22.4724 15.68H22.8724ZM22.8232 14.4899C22.7901 14.192 22.7272 13.9435 22.6187 13.7672L22.278 13.9768C22.3402 14.0778 22.3947 14.256 22.4256 14.5341L22.8232 14.4899ZM22.6245 13.7772C22.518 13.5794 22.3404 13.4613 22.1172 13.4194L22.0435 13.8126C22.1617 13.8347 22.2295 13.8873 22.2723 13.9668L22.6245 13.7772ZM22.1289 13.422C21.9355 13.3736 21.6878 13.352 21.3924 13.352V13.752C21.673 13.752 21.8839 13.773 22.0319 13.81L22.1289 13.422ZM21.3924 13.352C21.0672 13.352 20.7858 13.3965 20.5591 13.4972L20.7216 13.8628C20.8789 13.7929 21.0989 13.752 21.3924 13.752V13.352ZM20.5642 13.4951C20.3414 13.5868 20.1681 13.7401 20.0501 13.9499L20.3987 14.1461C20.4726 14.0146 20.5767 13.9225 20.7165 13.8649L20.5642 13.4951ZM20.0455 13.9586C19.9456 14.1583 19.883 14.4134 19.8496 14.7139L20.2472 14.7581C20.2778 14.4826 20.3325 14.279 20.4033 14.1374L20.0455 13.9586ZM19.849 14.7207C19.8271 15.0049 19.8164 15.3571 19.8164 15.776H20.2164C20.2164 15.3629 20.227 15.0217 20.2478 14.7513L19.849 14.7207ZM19.8164 15.776V20H20.2164V15.776H19.8164ZM20.0164 19.8H17.8884V20.2H20.0164V19.8ZM18.0884 20V15.68H17.6884V20H18.0884ZM18.0884 15.68C18.0884 15.1863 18.0723 14.7885 18.0392 14.4899L17.6416 14.5341C17.6724 14.8115 17.6884 15.1924 17.6884 15.68H18.0884ZM18.0398 14.4972C18.0177 14.1984 17.9612 13.9467 17.8507 13.7672L17.51 13.9768C17.5702 14.0746 17.6204 14.2496 17.6409 14.5268L18.0398 14.4972ZM17.8507 13.7672C17.7337 13.577 17.5552 13.461 17.3332 13.4194L17.2595 13.8126C17.3789 13.835 17.4564 13.8897 17.51 13.9768L17.8507 13.7672ZM17.3449 13.422C17.152 13.3737 16.9098 13.352 16.6244 13.352V13.752C16.8936 13.752 17.0994 13.7729 17.2479 13.81L17.3449 13.422ZM16.6244 13.352C16.2992 13.352 16.0178 13.3965 15.7911 13.4972L15.9536 13.8628C16.1109 13.7929 16.3309 13.752 16.6244 13.752V13.352ZM15.7962 13.4951C15.5734 13.5868 15.4001 13.7401 15.2821 13.9499L15.6307 14.1461C15.7046 14.0146 15.8087 13.9225 15.9485 13.8649L15.7962 13.4951ZM15.2775 13.9586C15.1776 14.1583 15.115 14.4134 15.0816 14.7139L15.4792 14.7581C15.5098 14.4826 15.5645 14.279 15.6353 14.1374L15.2775 13.9586ZM15.0816 14.7139C15.0485 15.0115 15.0324 15.366 15.0324 15.776H15.4324C15.4324 15.3754 15.4482 15.0365 15.4792 14.7581L15.0816 14.7139ZM15.0324 15.776V20H15.4324V15.776H15.0324ZM15.2324 19.8H13.1204V20.2H15.2324V19.8ZM27.0735 23.184H26.8735V23.384H27.0735V23.184ZM27.0735 11.84V11.64H26.8735V11.84H27.0735ZM29.0575 11.84L29.2571 11.8275L29.2454 11.64H29.0575V11.84ZM29.1215 12.864L28.9219 12.8765L28.9336 13.064H29.1215V12.864ZM29.2335 12.864V13.064H29.3535L29.41 12.9581L29.2335 12.864ZM29.8735 12.144L29.9795 12.3137L29.9844 12.3104L29.8735 12.144ZM30.7215 11.808L30.7555 12.0052L30.762 12.0039L30.7215 11.808ZM32.9295 11.92L32.8561 12.1062L32.8629 12.1086L32.9295 11.92ZM33.8095 12.592L33.6456 12.7067L33.6475 12.7093L33.8095 12.592ZM34.2895 13.872L34.0925 13.9068L34.0932 13.9105L34.2895 13.872ZM34.2895 17.936L34.0932 17.8975L34.0925 17.9012L34.2895 17.936ZM33.8255 19.232L33.9919 19.3429L33.9919 19.3429L33.8255 19.232ZM32.9775 19.92L32.9042 19.7339L32.9022 19.7347L32.9775 19.92ZM30.7215 20.032L30.762 19.8361L30.7567 19.8351L30.7215 20.032ZM29.9215 19.744L29.8141 19.9128L29.8198 19.9162L29.9215 19.744ZM29.3135 19.104L29.4838 18.9992L29.4253 18.904H29.3135V19.104ZM29.1855 19.104V18.904H28.9855V19.104H29.1855ZM29.1855 23.184V23.384H29.3855V23.184H29.1855ZM31.6015 18.224L31.6408 18.4203L31.65 18.418L31.6015 18.224ZM32.0655 17.92L31.8991 17.809L31.8973 17.8118L32.0655 17.92ZM32.2735 17.216L32.4724 17.2366L32.4725 17.2359L32.2735 17.216ZM32.2735 14.624L32.4725 14.6041L32.4725 14.6041L32.2735 14.624ZM32.0655 13.92L31.894 14.0229L31.8981 14.0297L31.9028 14.0362L32.0655 13.92ZM31.6015 13.616L31.5529 13.8102L31.5623 13.8121L31.6015 13.616ZM29.8735 13.696L29.9592 13.8769L29.9666 13.873L29.8735 13.696ZM29.2175 14.896L29.0185 14.8747L29.018 14.8812L29.2175 14.896ZM29.2175 16.96L29.0179 16.9748L29.0188 16.9829L29.2175 16.96ZM29.3935 17.664L29.2107 17.7453L29.2129 17.75L29.3935 17.664ZM29.8735 18.144L29.7914 18.3264L29.8735 18.144ZM27.2735 23.184V11.84H26.8735V23.184H27.2735ZM27.0735 12.04H29.0575V11.64H27.0735V12.04ZM28.8579 11.8525L28.9219 12.8765L29.3211 12.8515L29.2571 11.8275L28.8579 11.8525ZM29.1215 13.064H29.2335V12.664H29.1215V13.064ZM29.41 12.9581C29.5675 12.6628 29.7587 12.4516 29.9795 12.3136L29.7675 11.9744C29.4764 12.1564 29.2409 12.4252 29.057 12.7699L29.41 12.9581ZM29.9844 12.3104C30.2167 12.1555 30.4731 12.0538 30.7555 12.0051L30.6875 11.6109C30.3512 11.6689 30.0423 11.7911 29.7626 11.9776L29.9844 12.3104ZM30.762 12.0039C31.0583 11.9426 31.3541 11.912 31.6495 11.912V11.512C31.3263 11.512 31.0034 11.5454 30.681 11.6121L30.762 12.0039ZM31.6495 11.912C32.1334 11.912 32.5338 11.9791 32.8562 12.1061L33.0028 11.7339C32.6212 11.5836 32.1682 11.512 31.6495 11.512V11.912ZM32.8629 12.1086C33.1856 12.2225 33.4452 12.4203 33.6457 12.7067L33.9733 12.4773C33.7258 12.1237 33.3987 11.8735 32.9961 11.7314L32.8629 12.1086ZM33.6475 12.7093C33.8476 12.9857 33.9996 13.3802 34.0925 13.9068L34.4865 13.8372C34.3874 13.2758 34.2194 12.817 33.9715 12.4747L33.6475 12.7093ZM34.0932 13.9105C34.1966 14.4375 34.2495 15.1009 34.2495 15.904H34.6495C34.6495 15.0858 34.5958 14.3945 34.4858 13.8335L34.0932 13.9105ZM34.2495 15.904C34.2495 16.7071 34.1966 17.3705 34.0932 17.8975L34.4858 17.9745C34.5958 17.4135 34.6495 16.7222 34.6495 15.904H34.2495ZM34.0925 17.9012C33.9994 18.429 33.8519 18.8318 33.6591 19.1211L33.9919 19.3429C34.2257 18.9922 34.3876 18.531 34.4865 17.9708L34.0925 17.9012ZM33.6591 19.1211C33.468 19.4077 33.2176 19.6105 32.9042 19.7339L33.0508 20.1061C33.4414 19.9522 33.7563 19.6963 33.9919 19.3429L33.6591 19.1211ZM32.9022 19.7347C32.5917 19.8608 32.1978 19.928 31.7135 19.928V20.328C32.2319 20.328 32.6806 20.2565 33.0528 20.1053L32.9022 19.7347ZM31.7135 19.928C31.3736 19.928 31.0566 19.8971 30.762 19.8361L30.681 20.2279C31.0051 20.2949 31.3494 20.328 31.7135 20.328V19.928ZM30.7567 19.8351C30.4788 19.7855 30.2352 19.697 30.0232 19.5718L29.8198 19.9162C30.0772 20.0683 30.3668 20.1718 30.6863 20.2289L30.7567 19.8351ZM30.0289 19.5753C29.8238 19.4448 29.6413 19.2551 29.4838 18.9992L29.1432 19.2088C29.327 19.5076 29.5499 19.7446 29.8141 19.9127L30.0289 19.5753ZM29.3135 18.904H29.1855V19.304H29.3135V18.904ZM28.9855 19.104V23.184H29.3855V19.104H28.9855ZM29.1855 22.984H27.0735V23.384H29.1855V22.984ZM30.7535 18.488C31.1117 18.488 31.4091 18.4664 31.6407 18.4201L31.5623 18.0279C31.3673 18.0669 31.0993 18.088 30.7535 18.088V18.488ZM31.65 18.418C31.9004 18.3554 32.104 18.2299 32.2337 18.0282L31.8973 17.8118C31.835 17.9087 31.7293 17.9859 31.553 18.03L31.65 18.418ZM32.2319 18.0309C32.3644 17.8322 32.4389 17.5604 32.4724 17.2366L32.0746 17.1954C32.0441 17.4902 31.9799 17.6878 31.8991 17.8091L32.2319 18.0309ZM32.4725 17.2359C32.5055 16.9063 32.5215 16.4668 32.5215 15.92H32.1215C32.1215 16.4612 32.1055 16.8857 32.0745 17.1961L32.4725 17.2359ZM32.5215 15.92C32.5215 15.3732 32.5055 14.9337 32.4725 14.6041L32.0745 14.6439C32.1055 14.9543 32.1215 15.3788 32.1215 15.92H32.5215ZM32.4725 14.6041C32.4393 14.272 32.3653 13.9956 32.2282 13.8038L31.9028 14.0362C31.9791 14.1431 32.0437 14.336 32.0745 14.6439L32.4725 14.6041ZM32.237 13.8171C32.1071 13.6006 31.8993 13.4716 31.6407 13.4199L31.5623 13.8121C31.7304 13.8457 31.8319 13.9194 31.894 14.0229L32.237 13.8171ZM31.65 13.422C31.4143 13.363 31.1133 13.336 30.7535 13.336V13.736C31.0977 13.736 31.3621 13.7623 31.553 13.81L31.65 13.422ZM30.7535 13.336C30.3563 13.336 30.025 13.3903 29.7804 13.519L29.9666 13.873C30.1274 13.7884 30.3827 13.736 30.7535 13.736V13.336ZM29.7879 13.5153C29.5421 13.6317 29.3559 13.8199 29.2306 14.0706L29.5884 14.2494C29.6764 14.0734 29.7995 13.9523 29.9591 13.8767L29.7879 13.5153ZM29.2306 14.0706C29.1206 14.2906 29.0522 14.5611 29.0186 14.8747L29.4164 14.9173C29.4468 14.6336 29.5064 14.4134 29.5884 14.2494L29.2306 14.0706ZM29.018 14.8812C28.9962 15.1755 28.9855 15.5221 28.9855 15.92H29.3855C29.3855 15.5286 29.3961 15.1925 29.417 14.9108L29.018 14.8812ZM28.9855 15.92C28.9855 16.3285 28.9962 16.6803 29.018 16.9748L29.417 16.9452C29.3961 16.6637 29.3855 16.3222 29.3855 15.92H28.9855ZM29.0188 16.9829C29.0524 17.2742 29.115 17.5298 29.2107 17.7452L29.5763 17.5828C29.5014 17.4142 29.4466 17.2005 29.4162 16.9371L29.0188 16.9829ZM29.2129 17.75C29.3386 18.014 29.5321 18.2097 29.7914 18.3264L29.9556 17.9616C29.7882 17.8863 29.6617 17.762 29.5741 17.578L29.2129 17.75ZM29.7914 18.3264C30.0414 18.4389 30.3668 18.488 30.7535 18.488V18.088C30.3935 18.088 30.1323 18.0411 29.9556 17.9616L29.7914 18.3264ZM36.4329 20H36.2329V20.2H36.4329V20ZM36.4329 8.112V7.912H36.2329V8.112H36.4329ZM38.5609 8.112H38.7609V7.912H38.5609V8.112ZM38.5609 20V20.2H38.7609V20H38.5609ZM36.6329 20V8.112H36.2329V20H36.6329ZM36.4329 8.312H38.5609V7.912H36.4329V8.312ZM38.3609 8.112V20H38.7609V8.112H38.3609ZM38.5609 19.8H36.4329V20.2H38.5609V19.8ZM41.5111 19.904L41.4304 20.087L41.435 20.0889L41.5111 19.904ZM40.6791 19.136L40.5001 19.2255L40.5035 19.2318L40.6791 19.136ZM40.6311 16.224L40.8161 16.3002L40.8168 16.2983L40.6311 16.224ZM41.4151 15.424L41.4939 15.6079L41.4983 15.6059L41.4151 15.424ZM43.4151 15.184L43.404 15.384H43.4151V15.184ZM44.0711 15.2L44.0624 15.4H44.0711V15.2ZM44.8071 15.216L44.7984 15.416H44.8071V15.216ZM45.4791 15.232L45.4686 15.4317L45.6791 15.4428V15.232H45.4791ZM45.3991 14.08L45.2057 14.1309L45.2057 14.1309L45.3991 14.08ZM45.0951 13.632L45.2033 13.4638L45.2033 13.4638L45.0951 13.632ZM44.4391 13.456L44.4244 13.6555L44.4244 13.6555L44.4391 13.456ZM42.5031 13.44L42.4962 13.2401L42.4962 13.2401L42.5031 13.44ZM41.6071 13.488L41.6219 13.6875L41.6219 13.6875L41.6071 13.488ZM40.9191 13.552H40.7191V13.7786L40.9439 13.7505L40.9191 13.552ZM40.9191 11.952L40.887 11.7546L40.7191 11.7819V11.952H40.9191ZM42.4071 11.776L42.4231 11.9754L42.4231 11.9754L42.4071 11.776ZM45.6231 11.84L45.5839 12.0362L45.5895 12.0371L45.6231 11.84ZM46.6631 12.208L46.5522 12.3744L46.5553 12.3765L46.6631 12.208ZM47.2551 12.864L47.0746 12.9506L47.0793 12.9593L47.2551 12.864ZM47.5271 13.792L47.3285 13.8154L47.3286 13.8161L47.5271 13.792ZM47.5911 20V20.2H47.7911V20H47.5911ZM45.6231 20L45.4235 20.0129L45.4356 20.2H45.6231V20ZM45.5591 19.008L45.7587 18.9951L45.7466 18.808H45.5591V19.008ZM45.4311 19.008V18.808H45.3127L45.2558 18.9118L45.4311 19.008ZM44.7111 19.744L44.6167 19.5677L44.614 19.5692L44.7111 19.744ZM43.7831 20.048L43.7575 19.8495L43.7502 19.8507L43.7831 20.048ZM44.4551 18.448L44.4204 18.251L44.4183 18.2514L44.4551 18.448ZM44.9191 18.288L45.0199 18.4608L45.0239 18.4583L44.9191 18.288ZM45.2391 17.968L45.412 18.0688L45.4152 18.0628L45.2391 17.968ZM45.4151 17.456L45.2194 17.4148L45.2194 17.4148L45.4151 17.456ZM45.4791 16.48H45.6791V16.28H45.4791V16.48ZM42.8551 16.544L42.9067 16.7372L42.9067 16.7372L42.8551 16.544ZM42.5351 16.832L42.3468 16.7647L42.3468 16.7647L42.5351 16.832ZM42.5511 18.144L42.3672 18.2228L42.3695 18.2278L42.5511 18.144ZM42.9511 18.432L42.9002 18.6257L42.9099 18.6277L42.9511 18.432ZM42.8391 19.928C42.3344 19.928 41.9192 19.8557 41.5873 19.7191L41.435 20.0889C41.8284 20.2509 42.2985 20.328 42.8391 20.328V19.928ZM41.5919 19.721C41.2701 19.579 41.0258 19.354 40.8547 19.0402L40.5035 19.2318C40.7164 19.622 41.0269 19.909 41.4304 20.087L41.5919 19.721ZM40.858 19.0466C40.6954 18.7213 40.6071 18.2805 40.6071 17.712H40.2071C40.2071 18.3168 40.3002 18.8254 40.5002 19.2254L40.858 19.0466ZM40.6071 17.712C40.6071 17.0949 40.6809 16.6285 40.8161 16.3001L40.4462 16.1478C40.2827 16.5449 40.2071 17.0705 40.2071 17.712H40.6071ZM40.8168 16.2983C40.9462 15.9748 41.1688 15.7472 41.4939 15.6078L41.3363 15.2402C40.9148 15.4208 40.6147 15.7266 40.4454 16.1497L40.8168 16.2983ZM41.4983 15.6059C41.8344 15.4523 42.319 15.368 42.9671 15.368V14.968C42.2926 14.968 41.7426 15.0544 41.332 15.2421L41.4983 15.6059ZM42.9671 15.368C43.0683 15.368 43.2133 15.3731 43.404 15.3837L43.4262 14.9843C43.2329 14.9736 43.0793 14.968 42.9671 14.968V15.368ZM43.4151 15.384C43.6036 15.384 43.8192 15.3892 44.0624 15.3998L44.0798 15.0002C43.8323 14.9894 43.6107 14.984 43.4151 14.984V15.384ZM44.0711 15.4C44.3136 15.4 44.556 15.4053 44.7984 15.4158L44.8158 15.0162C44.5676 15.0054 44.3194 15 44.0711 15V15.4ZM44.8071 15.416C45.0496 15.416 45.2701 15.4213 45.4686 15.4317L45.4896 15.0323C45.2828 15.0214 45.0553 15.016 44.8071 15.016V15.416ZM45.6791 15.232V14.912H45.2791V15.232H45.6791ZM45.6791 14.912C45.6791 14.5528 45.6522 14.2558 45.5925 14.0291L45.2057 14.1309C45.2527 14.3095 45.2791 14.5672 45.2791 14.912H45.6791ZM45.5925 14.0291C45.5289 13.7873 45.4021 13.5916 45.2033 13.4638L44.987 13.8002C45.0868 13.8644 45.1627 13.9674 45.2057 14.1309L45.5925 14.0291ZM45.2033 13.4638C45.0136 13.3418 44.7566 13.279 44.4539 13.2565L44.4244 13.6555C44.6977 13.6757 44.878 13.7302 44.987 13.8002L45.2033 13.4638ZM44.4539 13.2565C44.159 13.2347 43.7802 13.224 43.3191 13.224V13.624C43.7754 13.624 44.1433 13.6346 44.4244 13.6555L44.4539 13.2565ZM43.3191 13.224C43.0816 13.224 42.8072 13.2294 42.4962 13.2401L42.51 13.6399C42.8177 13.6293 43.0873 13.624 43.3191 13.624V13.224ZM42.4962 13.2401C42.1845 13.2509 41.8832 13.267 41.5924 13.2885L41.6219 13.6875C41.9071 13.6663 42.2031 13.6505 42.51 13.6399L42.4962 13.2401ZM41.5924 13.2885C41.3029 13.31 41.0698 13.3316 40.8943 13.3535L40.9439 13.7505C41.1098 13.7297 41.3353 13.7087 41.6219 13.6875L41.5924 13.2885ZM41.1191 13.552V11.952H40.7191V13.552H41.1191ZM40.9513 12.1494C41.4038 12.0757 41.8944 12.0177 42.4231 11.9754L42.3912 11.5766C41.8532 11.6197 41.3518 11.6789 40.887 11.7546L40.9513 12.1494ZM42.4231 11.9754C42.951 11.9331 43.4844 11.912 44.0231 11.912V11.512C43.4739 11.512 42.9299 11.5335 42.3912 11.5766L42.4231 11.9754ZM44.0231 11.912C44.6555 11.912 45.1746 11.9543 45.5839 12.0361L45.6623 11.6439C45.2183 11.5551 44.6708 11.512 44.0231 11.512V11.912ZM45.5895 12.0371C46.0104 12.109 46.3274 12.2246 46.5522 12.3744L46.7741 12.0416C46.4868 11.8501 46.1105 11.7203 45.6568 11.6429L45.5895 12.0371ZM46.5553 12.3765C46.793 12.5286 46.964 12.7198 47.0748 12.9505L47.4354 12.7775C47.2902 12.4749 47.0666 12.2288 46.7709 12.0395L46.5553 12.3765ZM47.0793 12.9593C47.2032 13.1881 47.2881 13.4717 47.3285 13.8154L47.7258 13.7686C47.6809 13.3869 47.5844 13.0519 47.431 12.7687L47.0793 12.9593ZM47.3286 13.8161C47.37 14.1582 47.3911 14.5552 47.3911 15.008H47.7911C47.7911 14.5435 47.7695 14.1298 47.7257 13.7679L47.3286 13.8161ZM47.3911 15.008V20H47.7911V15.008H47.3911ZM47.5911 19.8H45.6231V20.2H47.5911V19.8ZM45.8227 19.9871L45.7587 18.9951L45.3595 19.0209L45.4235 20.0129L45.8227 19.9871ZM45.5591 18.808H45.4311V19.208H45.5591V18.808ZM45.2558 18.9118C45.0909 19.2125 44.8774 19.428 44.6167 19.5677L44.8056 19.9203C45.1422 19.74 45.4087 19.4648 45.6065 19.1042L45.2558 18.9118ZM44.614 19.5692C44.3484 19.7167 44.0634 19.8102 43.7575 19.8496L43.8087 20.2464C44.1642 20.2005 44.4978 20.0913 44.8083 19.9188L44.614 19.5692ZM43.7502 19.8507C43.4406 19.9023 43.1369 19.928 42.8391 19.928V20.328C43.16 20.328 43.4857 20.3003 43.816 20.2453L43.7502 19.8507ZM43.8471 18.696C44.0902 18.696 44.3058 18.6795 44.492 18.6446L44.4183 18.2514C44.2631 18.2805 44.0734 18.296 43.8471 18.296V18.696ZM44.4899 18.645C44.689 18.6098 44.8672 18.5498 45.0199 18.4608L44.8184 18.1152C44.715 18.1755 44.5839 18.2222 44.4204 18.251L44.4899 18.645ZM45.0239 18.4583C45.1878 18.3575 45.319 18.2279 45.4119 18.0688L45.0664 17.8672C45.0099 17.9641 44.9278 18.0478 44.8143 18.1177L45.0239 18.4583ZM45.4152 18.0628C45.5013 17.903 45.5654 17.7131 45.6108 17.4972L45.2194 17.4148C45.1795 17.6043 45.1263 17.7557 45.063 17.8732L45.4152 18.0628ZM45.6108 17.4972C45.6572 17.2769 45.6791 17.0169 45.6791 16.72H45.2791C45.2791 16.9991 45.2584 17.2298 45.2194 17.4148L45.6108 17.4972ZM45.6791 16.72V16.48H45.2791V16.72H45.6791ZM45.4791 16.28H43.5431V16.68H45.4791V16.28ZM43.5431 16.28C43.2386 16.28 42.9888 16.3014 42.8036 16.3508L42.9067 16.7372C43.0415 16.7013 43.2503 16.68 43.5431 16.68V16.28ZM42.8036 16.3508C42.5834 16.4095 42.4234 16.5503 42.3468 16.7647L42.7235 16.8993C42.7535 16.8151 42.8069 16.7639 42.9067 16.7372L42.8036 16.3508ZM42.3468 16.7647C42.2816 16.9471 42.2551 17.1989 42.2551 17.504H42.6551C42.6551 17.2117 42.6819 17.0156 42.7235 16.8993L42.3468 16.7647ZM42.2551 17.504C42.2551 17.7919 42.2876 18.0369 42.3673 18.2228L42.735 18.0652C42.6866 17.9524 42.6551 17.7707 42.6551 17.504H42.2551ZM42.3695 18.2278C42.467 18.4389 42.6625 18.5629 42.9002 18.6254L43.002 18.2386C42.8344 18.1945 42.7633 18.1264 42.7327 18.0602L42.3695 18.2278ZM42.9099 18.6277C43.1333 18.6747 43.4487 18.696 43.8471 18.696V18.296C43.4563 18.296 43.1743 18.2746 42.9923 18.2363L42.9099 18.6277ZM49.886 20H49.686V20.2H49.886V20ZM49.886 11.84V11.64H49.686V11.84H49.886ZM51.87 11.84L52.0696 11.8275L52.0579 11.64H51.87V11.84ZM51.934 12.864L51.7344 12.8765L51.7461 13.064H51.934V12.864ZM52.062 12.864V13.064H52.1792L52.2365 12.9617L52.062 12.864ZM52.606 12.208L52.4848 12.0489L52.4811 12.0518L52.606 12.208ZM53.422 11.84L53.4675 12.0348L53.472 12.0337L53.422 11.84ZM55.87 11.92L55.7927 12.1045L55.7947 12.1053L55.87 11.92ZM56.654 12.528L56.4886 12.6405L56.4886 12.6405L56.654 12.528ZM57.006 13.52L56.8077 13.5468L56.8086 13.552L57.006 13.52ZM57.102 20V20.2H57.302V20H57.102ZM54.99 20H54.79V20.2H54.99V20ZM54.942 14.512L55.1408 14.4899L55.1408 14.4899L54.942 14.512ZM54.75 13.872L54.9144 13.7582L54.9144 13.7582L54.75 13.872ZM54.318 13.616L54.2746 13.8115L54.2851 13.8133L54.318 13.616ZM52.718 13.68L52.7872 13.8677L52.7923 13.8657L52.718 13.68ZM52.254 14.064L52.0816 13.9626L52.0797 13.9659L52.254 14.064ZM52.046 14.752L51.8481 14.7227L51.8473 14.7291L52.046 14.752ZM51.998 20V20.2H52.198V20H51.998ZM50.086 20V11.84H49.686V20H50.086ZM49.886 12.04H51.87V11.64H49.886V12.04ZM51.6704 11.8525L51.7344 12.8765L52.1336 12.8515L52.0696 11.8275L51.6704 11.8525ZM51.934 13.064H52.062V12.664H51.934V13.064ZM52.2365 12.9617C52.3747 12.7149 52.54 12.5169 52.7309 12.3642L52.4811 12.0518C52.2453 12.2404 52.0479 12.4798 51.8875 12.7663L52.2365 12.9617ZM52.7272 12.3671C52.9253 12.2161 53.1704 12.1041 53.4674 12.0348L53.3766 11.6452C53.0336 11.7253 52.7347 11.8585 52.4848 12.0489L52.7272 12.3671ZM53.472 12.0337C53.7832 11.9533 54.1393 11.912 54.542 11.912V11.512C54.1127 11.512 53.7221 11.556 53.372 11.6463L53.472 12.0337ZM54.542 11.912C55.0831 11.912 55.4961 11.9801 55.7927 12.1044L55.9473 11.7356C55.5825 11.5826 55.1102 11.512 54.542 11.512V11.912ZM55.7947 12.1053C56.1049 12.2313 56.3325 12.4109 56.4886 12.6405L56.8194 12.4155C56.6128 12.1118 56.3178 11.886 55.9453 11.7347L55.7947 12.1053ZM56.4886 12.6405C56.6489 12.8762 56.7577 13.1758 56.8078 13.5468L57.2042 13.4932C57.1477 13.0749 57.0218 12.7132 56.8194 12.4155L56.4886 12.6405ZM56.8086 13.552C56.8704 13.9335 56.902 14.381 56.902 14.896H57.302C57.302 14.3657 57.2696 13.8959 57.2034 13.488L56.8086 13.552ZM56.902 14.896V20H57.302V14.896H56.902ZM57.102 19.8H54.99V20.2H57.102V19.8ZM55.19 20V15.68H54.79V20H55.19ZM55.19 15.68C55.19 15.1863 55.174 14.7885 55.1408 14.4899L54.7432 14.5341C54.774 14.8115 54.79 15.1924 54.79 15.68H55.19ZM55.1408 14.4899C55.1074 14.1896 55.0384 13.9372 54.9144 13.7582L54.5856 13.9858C54.6536 14.0842 54.7126 14.2584 54.7432 14.5341L55.1408 14.4899ZM54.9144 13.7582C54.7829 13.5681 54.5873 13.4581 54.3509 13.4187L54.2851 13.8133C54.4327 13.8379 54.5251 13.8986 54.5856 13.9858L54.9144 13.7582ZM54.3614 13.4208C54.1491 13.3736 53.8767 13.352 53.55 13.352V13.752C53.8633 13.752 54.1029 13.7731 54.2746 13.8112L54.3614 13.4208ZM53.55 13.352C53.1944 13.352 52.8892 13.3961 52.6437 13.4943L52.7923 13.8657C52.9734 13.7932 53.2229 13.752 53.55 13.752V13.352ZM52.6489 13.4923C52.4041 13.5825 52.2124 13.7403 52.0816 13.9626L52.4264 14.1654C52.509 14.025 52.6266 13.9268 52.7871 13.8677L52.6489 13.4923ZM52.0797 13.9659C51.9674 14.1656 51.8928 14.4212 51.8482 14.7227L52.2438 14.7813C52.2845 14.5068 52.3486 14.3037 52.4283 14.1621L52.0797 13.9659ZM51.8473 14.7291C51.8141 15.0166 51.798 15.3661 51.798 15.776H52.198C52.198 15.3752 52.2139 15.0421 52.2447 14.7749L51.8473 14.7291ZM51.798 15.776V20H52.198V15.776H51.798ZM51.998 19.8H49.886V20.2H51.998V19.8ZM60.1384 20H59.9384V20.2H60.1384V20ZM60.1384 13.552H60.3384V13.352H60.1384V13.552ZM58.5704 13.552H58.3704V13.752H58.5704V13.552ZM58.5704 11.84V11.64H58.3704V11.84H58.5704ZM60.1384 11.84V12.04H60.3384V11.84H60.1384ZM60.1384 9.472V9.272H59.9384V9.472H60.1384ZM62.2664 9.472H62.4664V9.272H62.2664V9.472ZM62.2664 11.84H62.0664V12.04H62.2664V11.84ZM64.1224 11.84H64.3224V11.64H64.1224V11.84ZM64.1224 13.552V13.752H64.3224V13.552H64.1224ZM62.2664 13.552V13.352H62.0664V13.552H62.2664ZM62.2664 20V20.2H62.4664V20H62.2664ZM60.3384 20V13.552H59.9384V20H60.3384ZM60.1384 13.352H58.5704V13.752H60.1384V13.352ZM58.7704 13.552V11.84H58.3704V13.552H58.7704ZM58.5704 12.04H60.1384V11.64H58.5704V12.04ZM60.3384 11.84V9.472H59.9384V11.84H60.3384ZM60.1384 9.672H62.2664V9.272H60.1384V9.672ZM62.0664 9.472V11.84H62.4664V9.472H62.0664ZM62.2664 12.04H64.1224V11.64H62.2664V12.04ZM63.9224 11.84V13.552H64.3224V11.84H63.9224ZM64.1224 13.352H62.2664V13.752H64.1224V13.352ZM62.0664 13.552V20H62.4664V13.552H62.0664ZM62.2664 19.8H60.1384V20.2H62.2664V19.8ZM66.1205 19.904L66.0397 20.087L66.0444 20.0889L66.1205 19.904ZM65.2885 19.136L65.1095 19.2255L65.1129 19.2318L65.2885 19.136ZM65.2405 16.224L65.4254 16.3002L65.4262 16.2983L65.2405 16.224ZM66.0245 15.424L66.1033 15.6079L66.1077 15.6059L66.0245 15.424ZM68.0245 15.184L68.0134 15.384H68.0245V15.184ZM68.6805 15.2L68.6718 15.4H68.6805V15.2ZM69.4165 15.216L69.4078 15.416H69.4165V15.216ZM70.0885 15.232L70.078 15.4317L70.2885 15.4428V15.232H70.0885ZM70.0085 14.08L69.8151 14.1309L69.8151 14.1309L70.0085 14.08ZM69.7045 13.632L69.8127 13.4638L69.8127 13.4638L69.7045 13.632ZM69.0485 13.456L69.0337 13.6555L69.0337 13.6555L69.0485 13.456ZM67.1125 13.44L67.1056 13.2401L67.1056 13.2401L67.1125 13.44ZM66.2165 13.488L66.2313 13.6875L66.2313 13.6875L66.2165 13.488ZM65.5285 13.552H65.3285V13.7786L65.5533 13.7505L65.5285 13.552ZM65.5285 11.952L65.4964 11.7546L65.3285 11.7819V11.952H65.5285ZM67.0165 11.776L67.0324 11.9754L67.0324 11.9754L67.0165 11.776ZM70.2325 11.84L70.1933 12.0362L70.1988 12.0371L70.2325 11.84ZM71.2725 12.208L71.1615 12.3744L71.1647 12.3765L71.2725 12.208ZM71.8645 12.864L71.684 12.9506L71.6886 12.9593L71.8645 12.864ZM72.1365 13.792L71.9379 13.8154L71.938 13.8161L72.1365 13.792ZM72.2005 20V20.2H72.4005V20H72.2005ZM70.2325 20L70.0329 20.0129L70.045 20.2H70.2325V20ZM70.1685 19.008L70.3681 18.9951L70.356 18.808H70.1685V19.008ZM70.0405 19.008V18.808H69.9221L69.8651 18.9118L70.0405 19.008ZM69.3205 19.744L69.226 19.5677L69.2234 19.5692L69.3205 19.744ZM68.3925 20.048L68.3669 19.8495L68.3596 19.8507L68.3925 20.048ZM69.0645 18.448L69.0297 18.251L69.0276 18.2514L69.0645 18.448ZM69.5285 18.288L69.6293 18.4608L69.6333 18.4583L69.5285 18.288ZM69.8485 17.968L70.0214 18.0688L70.0246 18.0628L69.8485 17.968ZM70.0245 17.456L69.8288 17.4148L69.8288 17.4148L70.0245 17.456ZM70.0885 16.48H70.2885V16.28H70.0885V16.48ZM67.4645 16.544L67.516 16.7372L67.516 16.7372L67.4645 16.544ZM67.1445 16.832L66.9562 16.7647L66.9562 16.7647L67.1445 16.832ZM67.1605 18.144L66.9766 18.2228L66.9789 18.2278L67.1605 18.144ZM67.5605 18.432L67.5095 18.6257L67.5193 18.6277L67.5605 18.432ZM67.4485 19.928C66.9437 19.928 66.5286 19.8557 66.1967 19.7191L66.0444 20.0889C66.4378 20.2509 66.9079 20.328 67.4485 20.328V19.928ZM66.2012 19.721C65.8794 19.579 65.6352 19.354 65.4641 19.0402L65.1129 19.2318C65.3258 19.622 65.6362 19.909 66.0398 20.087L66.2012 19.721ZM65.4674 19.0466C65.3047 18.7213 65.2165 18.2805 65.2165 17.712H64.8165C64.8165 18.3168 64.9096 18.8254 65.1096 19.2254L65.4674 19.0466ZM65.2165 17.712C65.2165 17.0949 65.2902 16.6285 65.4254 16.3001L65.0556 16.1478C64.8921 16.5449 64.8165 17.0705 64.8165 17.712H65.2165ZM65.4262 16.2983C65.5556 15.9748 65.7781 15.7472 66.1033 15.6078L65.9457 15.2402C65.5242 15.4208 65.2241 15.7266 65.0548 16.1497L65.4262 16.2983ZM66.1077 15.6059C66.4437 15.4523 66.9283 15.368 67.5765 15.368V14.968C66.902 14.968 66.3519 15.0544 65.9413 15.2421L66.1077 15.6059ZM67.5765 15.368C67.6776 15.368 67.8227 15.3731 68.0134 15.3837L68.0356 14.9843C67.8423 14.9736 67.6887 14.968 67.5765 14.968V15.368ZM68.0245 15.384C68.2129 15.384 68.4286 15.3892 68.6718 15.3998L68.6892 15.0002C68.4417 14.9894 68.2201 14.984 68.0245 14.984V15.384ZM68.6805 15.4C68.9229 15.4 69.1654 15.4053 69.4078 15.4158L69.4252 15.0162C69.177 15.0054 68.9287 15 68.6805 15V15.4ZM69.4165 15.416C69.659 15.416 69.8795 15.4213 70.078 15.4317L70.099 15.0323C69.8922 15.0214 69.6646 15.016 69.4165 15.016V15.416ZM70.2885 15.232V14.912H69.8885V15.232H70.2885ZM70.2885 14.912C70.2885 14.5528 70.2616 14.2558 70.2019 14.0291L69.8151 14.1309C69.8621 14.3095 69.8885 14.5672 69.8885 14.912H70.2885ZM70.2019 14.0291C70.1383 13.7873 70.0115 13.5916 69.8127 13.4638L69.5963 13.8002C69.6962 13.8644 69.772 13.9674 69.8151 14.1309L70.2019 14.0291ZM69.8127 13.4638C69.623 13.3418 69.3659 13.279 69.0633 13.2565L69.0337 13.6555C69.3071 13.6757 69.4874 13.7302 69.5963 13.8002L69.8127 13.4638ZM69.0633 13.2565C68.7684 13.2347 68.3896 13.224 67.9285 13.224V13.624C68.3847 13.624 68.7526 13.6346 69.0337 13.6555L69.0633 13.2565ZM67.9285 13.224C67.6909 13.224 67.4166 13.2294 67.1056 13.2401L67.1194 13.6399C67.4271 13.6293 67.6967 13.624 67.9285 13.624V13.224ZM67.1056 13.2401C66.7938 13.2509 66.4925 13.267 66.2017 13.2885L66.2313 13.6875C66.5165 13.6663 66.8125 13.6505 67.1194 13.6399L67.1056 13.2401ZM66.2017 13.2885C65.9123 13.31 65.6792 13.3316 65.5037 13.3535L65.5533 13.7505C65.7192 13.7297 65.9447 13.7087 66.2313 13.6875L66.2017 13.2885ZM65.7285 13.552V11.952H65.3285V13.552H65.7285ZM65.5606 12.1494C66.0132 12.0757 66.5037 12.0177 67.0324 11.9754L67.0006 11.5766C66.4626 11.6197 65.9611 11.6789 65.4964 11.7546L65.5606 12.1494ZM67.0324 11.9754C67.5604 11.9331 68.0937 11.912 68.6325 11.912V11.512C68.0833 11.512 67.5393 11.5335 67.0006 11.5766L67.0324 11.9754ZM68.6325 11.912C69.2649 11.912 69.784 11.9543 70.1933 12.0361L70.2717 11.6439C69.8277 11.5551 69.2801 11.512 68.6325 11.512V11.912ZM70.1988 12.0371C70.6198 12.109 70.9368 12.2246 71.1616 12.3744L71.3834 12.0416C71.0962 11.8501 70.7199 11.7203 70.2662 11.6429L70.1988 12.0371ZM71.1647 12.3765C71.4023 12.5286 71.5734 12.7198 71.6842 12.9505L72.0448 12.7775C71.8996 12.4749 71.676 12.2288 71.3803 12.0395L71.1647 12.3765ZM71.6886 12.9593C71.8126 13.1881 71.8974 13.4717 71.9379 13.8154L72.3351 13.7686C72.2902 13.3869 72.1937 13.0519 72.0404 12.7687L71.6886 12.9593ZM71.938 13.8161C71.9794 14.1582 72.0005 14.5552 72.0005 15.008H72.4005C72.4005 14.5435 72.3789 14.1298 72.335 13.7679L71.938 13.8161ZM72.0005 15.008V20H72.4005V15.008H72.0005ZM72.2005 19.8H70.2325V20.2H72.2005V19.8ZM70.4321 19.9871L70.3681 18.9951L69.9689 19.0209L70.0329 20.0129L70.4321 19.9871ZM70.1685 18.808H70.0405V19.208H70.1685V18.808ZM69.8651 18.9118C69.7003 19.2125 69.4868 19.428 69.2261 19.5677L69.4149 19.9203C69.7516 19.74 70.0181 19.4648 70.2159 19.1042L69.8651 18.9118ZM69.2234 19.5692C68.9578 19.7167 68.6728 19.8102 68.3669 19.8496L68.4181 20.2464C68.7736 20.2005 69.1072 20.0913 69.4176 19.9188L69.2234 19.5692ZM68.3596 19.8507C68.05 19.9023 67.7463 19.928 67.4485 19.928V20.328C67.7694 20.328 68.095 20.3003 68.4254 20.2453L68.3596 19.8507ZM68.4565 18.696C68.6995 18.696 68.9152 18.6795 69.1014 18.6446L69.0276 18.2514C68.8725 18.2805 68.6828 18.296 68.4565 18.296V18.696ZM69.0993 18.645C69.2984 18.6098 69.4766 18.5498 69.6293 18.4608L69.4277 18.1152C69.3244 18.1755 69.1932 18.2222 69.0297 18.251L69.0993 18.645ZM69.6333 18.4583C69.7972 18.3575 69.9284 18.2279 70.0213 18.0688L69.6757 17.8672C69.6193 17.9641 69.5372 18.0478 69.4237 18.1177L69.6333 18.4583ZM70.0246 18.0628C70.1107 17.903 70.1748 17.7131 70.2202 17.4972L69.8288 17.4148C69.7889 17.6043 69.7357 17.7557 69.6724 17.8732L70.0246 18.0628ZM70.2202 17.4972C70.2666 17.2769 70.2885 17.0169 70.2885 16.72H69.8885C69.8885 16.9991 69.8677 17.2298 69.8288 17.4148L70.2202 17.4972ZM70.2885 16.72V16.48H69.8885V16.72H70.2885ZM70.0885 16.28H68.1525V16.68H70.0885V16.28ZM68.1525 16.28C67.848 16.28 67.5981 16.3014 67.413 16.3508L67.516 16.7372C67.6509 16.7013 67.8597 16.68 68.1525 16.68V16.28ZM67.413 16.3508C67.1928 16.4095 67.0327 16.5503 66.9562 16.7647L67.3328 16.8993C67.3629 16.8151 67.4162 16.7639 67.516 16.7372L67.413 16.3508ZM66.9562 16.7647C66.891 16.9471 66.8645 17.1989 66.8645 17.504H67.2645C67.2645 17.2117 67.2913 17.0156 67.3328 16.8993L66.9562 16.7647ZM66.8645 17.504C66.8645 17.7919 66.897 18.0369 66.9767 18.2228L67.3443 18.0652C67.296 17.9524 67.2645 17.7707 67.2645 17.504H66.8645ZM66.9789 18.2278C67.0763 18.4389 67.2719 18.5629 67.5096 18.6254L67.6114 18.2386C67.4438 18.1945 67.3727 18.1264 67.3421 18.0602L66.9789 18.2278ZM67.5193 18.6277C67.7427 18.6747 68.058 18.696 68.4565 18.696V18.296C68.0656 18.296 67.7836 18.2746 67.6017 18.2363L67.5193 18.6277ZM75.7114 19.936L75.638 20.1221L75.643 20.124L75.7114 19.936ZM74.8474 19.264L74.6835 19.3787L74.6854 19.3813L74.8474 19.264ZM74.3514 17.968L74.1544 18.0028L74.1551 18.0065L74.3514 17.968ZM74.3514 13.904L74.1544 13.8692L74.3514 13.904ZM74.8154 12.608L74.6515 12.4933L74.649 12.4971L74.8154 12.608ZM75.6634 11.92L75.5901 11.7339L75.5881 11.7347L75.6634 11.92ZM77.9194 11.808L77.8774 12.0037L77.8854 12.0051L77.9194 11.808ZM78.7354 12.112L78.6279 12.281L78.637 12.2861L78.7354 12.112ZM79.3434 12.736L79.1701 12.8359L79.2279 12.936H79.3434V12.736ZM79.4714 12.736V12.936H79.6714V12.736H79.4714ZM79.4714 8.112V7.912H79.2714V8.112H79.4714ZM81.5834 8.112H81.7834V7.912H81.5834V8.112ZM81.5834 20V20.2H81.7834V20H81.5834ZM79.5994 20L79.3998 20.0127L79.4117 20.2H79.5994V20ZM79.5354 18.992L79.735 18.9793L79.7231 18.792H79.5354V18.992ZM79.4234 18.992V18.792H79.2998L79.2445 18.9026L79.4234 18.992ZM78.7834 19.712L78.6805 19.5405L78.6774 19.5424L78.7834 19.712ZM77.9354 20.032L77.9014 19.8348L77.8949 19.8361L77.9354 20.032ZM78.7994 18.16L78.885 18.3408L78.8888 18.3389L78.7994 18.16ZM79.2634 17.664L79.4473 17.7428L79.4491 17.7383L79.2634 17.664ZM79.4234 16.912L79.2245 16.8899L79.2239 16.8972L79.4234 16.912ZM79.4234 14.928L79.2238 14.9434L79.2247 14.9509L79.4234 14.928ZM79.2634 14.224L79.0769 14.297L79.0806 14.3052L79.2634 14.224ZM78.7994 13.712L78.706 13.8893L78.7173 13.8944L78.7994 13.712ZM77.0554 13.632L77.0946 13.8283L77.1039 13.826L77.0554 13.632ZM76.5754 13.936L76.4089 13.825L76.4071 13.8278L76.5754 13.936ZM76.3834 14.64L76.5823 14.6606L76.5824 14.6599L76.3834 14.64ZM76.3834 17.216L76.5824 17.1961L76.5824 17.1961L76.3834 17.216ZM76.5754 17.936L76.4039 18.0389L76.408 18.0457L76.4126 18.0522L76.5754 17.936ZM77.0554 18.24L77.0068 18.4342L77.0162 18.4361L77.0554 18.24ZM76.9914 19.928C76.506 19.928 76.1038 19.8659 75.7797 19.748L75.643 20.124C76.023 20.2621 76.4741 20.328 76.9914 20.328V19.928ZM75.7847 19.7499C75.4686 19.6254 75.2112 19.4254 75.0094 19.1467L74.6854 19.3813C74.9316 19.7212 75.2502 19.9693 75.6381 20.1221L75.7847 19.7499ZM75.0112 19.1493C74.8085 18.8596 74.651 18.4568 74.5476 17.9295L74.1551 18.0065C74.2651 18.5672 74.4383 19.0284 74.6835 19.3787L75.0112 19.1493ZM74.5483 17.9332C74.4551 17.4047 74.4074 16.7399 74.4074 15.936H74.0074C74.0074 16.7535 74.0557 17.4433 74.1544 18.0028L74.5483 17.9332ZM74.4074 15.936C74.4074 15.1321 74.4551 14.4673 74.5483 13.9388L74.1544 13.8692C74.0557 14.4287 74.0074 15.1185 74.0074 15.936H74.4074ZM74.5483 13.9388C74.6415 13.411 74.789 13.0082 74.9818 12.7189L74.649 12.4971C74.4151 12.8478 74.2533 13.309 74.1544 13.8692L74.5483 13.9388ZM74.9792 12.7227C75.1825 12.4323 75.4352 12.2286 75.7387 12.1053L75.5881 11.7347C75.2089 11.8888 74.8962 12.1437 74.6515 12.4933L74.9792 12.7227ZM75.7367 12.1061C76.0591 11.9791 76.4594 11.912 76.9434 11.912V11.512C76.4247 11.512 75.9716 11.5836 75.5901 11.7339L75.7367 12.1061ZM76.9434 11.912C77.2834 11.912 77.5945 11.9429 77.8775 12.0036L77.9613 11.6124C77.6469 11.5451 77.3074 11.512 76.9434 11.512V11.912ZM77.8854 12.0051C78.172 12.0545 78.4184 12.1473 78.628 12.2807L78.8428 11.9433C78.583 11.778 78.2854 11.6682 77.9534 11.6109L77.8854 12.0051ZM78.637 12.2861C78.8471 12.4049 79.0255 12.5853 79.1701 12.8359L79.5166 12.6361C79.3412 12.3321 79.1143 12.0964 78.8338 11.9379L78.637 12.2861ZM79.3434 12.936H79.4714V12.536H79.3434V12.936ZM79.6714 12.736V8.112H79.2714V12.736H79.6714ZM79.4714 8.312H81.5834V7.912H79.4714V8.312ZM81.3834 8.112V20H81.7834V8.112H81.3834ZM81.5834 19.8H79.5994V20.2H81.5834V19.8ZM79.799 19.9873L79.735 18.9793L79.3358 19.0047L79.3998 20.0127L79.799 19.9873ZM79.5354 18.792H79.4234V19.192H79.5354V18.792ZM79.2445 18.9026C79.0989 19.1938 78.9098 19.4029 78.6805 19.5405L78.8863 19.8835C79.1902 19.7011 79.4279 19.4302 79.6023 19.0814L79.2445 18.9026ZM78.6774 19.5424C78.4442 19.6881 78.1862 19.7858 77.9014 19.8349L77.9694 20.2291C78.3032 20.1715 78.6105 20.0559 78.8894 19.8816L78.6774 19.5424ZM77.8949 19.8361C77.599 19.8974 77.2979 19.928 76.9914 19.928V20.328C77.3248 20.328 77.6531 20.2946 77.9759 20.2279L77.8949 19.8361ZM77.9034 18.504C78.3084 18.504 78.6424 18.4557 78.885 18.3407L78.7138 17.9793C78.551 18.0563 78.2876 18.104 77.9034 18.104V18.504ZM78.8888 18.3389C79.1455 18.2106 79.333 18.0092 79.4472 17.7428L79.0795 17.5852C79.0017 17.7668 78.88 17.8961 78.7099 17.9811L78.8888 18.3389ZM79.4491 17.7383C79.5437 17.5018 79.6004 17.2302 79.6228 16.9268L79.2239 16.8972C79.2037 17.1698 79.1537 17.3996 79.0777 17.5897L79.4491 17.7383ZM79.6222 16.9341C79.6552 16.637 79.6714 16.2987 79.6714 15.92H79.2714C79.2714 16.2879 79.2556 16.611 79.2246 16.8899L79.6222 16.9341ZM79.6714 15.92C79.6714 15.531 79.6552 15.1922 79.6221 14.9051L79.2247 14.9509C79.2556 15.2184 79.2714 15.541 79.2714 15.92H79.6714ZM79.6228 14.9127C79.6002 14.6195 79.5432 14.3611 79.4461 14.1428L79.0806 14.3052C79.1542 14.4708 79.2038 14.6818 79.224 14.9433L79.6228 14.9127ZM79.4496 14.1511C79.3372 13.8637 79.1487 13.6499 78.8814 13.5296L78.7173 13.8944C78.8768 13.9661 78.9976 14.0936 79.0771 14.2969L79.4496 14.1511ZM78.8925 13.535C78.6473 13.406 78.3101 13.352 77.9034 13.352V13.752C78.286 13.752 78.5461 13.8047 78.7062 13.889L78.8925 13.535ZM77.9034 13.352C77.5435 13.352 77.2426 13.379 77.0069 13.438L77.1039 13.826C77.2948 13.7783 77.5592 13.752 77.9034 13.752V13.352ZM77.0162 13.4359C76.7583 13.4875 76.549 13.615 76.409 13.8251L76.7418 14.0469C76.8151 13.937 76.9258 13.8619 77.0946 13.8281L77.0162 13.4359ZM76.4071 13.8278C76.2853 14.0174 76.2174 14.2903 76.1844 14.6201L76.5824 14.6599C76.6134 14.3497 76.6735 14.1532 76.7436 14.0442L76.4071 13.8278ZM76.1844 14.6194C76.1514 14.9388 76.1354 15.3734 76.1354 15.92H76.5354C76.5354 15.3786 76.5514 14.9599 76.5823 14.6606L76.1844 14.6194ZM76.1354 15.92C76.1354 16.4668 76.1514 16.9063 76.1844 17.2359L76.5824 17.1961C76.5513 16.8857 76.5354 16.4612 76.5354 15.92H76.1354ZM76.1844 17.2359C76.2175 17.567 76.2855 17.8415 76.4039 18.0389L76.7469 17.8331C76.6733 17.7105 76.6133 17.505 76.5824 17.1961L76.1844 17.2359ZM76.4126 18.0522C76.5522 18.2476 76.757 18.3716 77.0069 18.434L77.1039 18.046C76.9271 18.0018 76.8119 17.9231 76.7381 17.8198L76.4126 18.0522ZM77.0162 18.4361C77.2478 18.4824 77.5452 18.504 77.9034 18.504V18.104C77.5575 18.104 77.2896 18.0829 77.0946 18.0439L77.0162 18.4361ZM85.5508 20L85.515 20.1968L85.515 20.1968L85.5508 20ZM84.4468 19.584L84.3299 19.7463L84.3299 19.7463L84.4468 19.584ZM83.8548 18.816L83.6669 18.8849L83.6691 18.8903L83.8548 18.816ZM83.6148 17.616L83.4151 17.6293L83.4155 17.6337L83.6148 17.616ZM83.6148 14.208L83.4155 14.1903L83.4152 14.1944L83.6148 14.208ZM83.8548 13.008L83.669 12.9337L83.667 12.9391L83.8548 13.008ZM85.5508 11.84L85.5822 12.0376L85.5865 12.0368L85.5508 11.84ZM89.0548 11.84L89.0182 12.0367L89.0233 12.0375L89.0548 11.84ZM90.1588 12.24L90.0419 12.4023L90.0449 12.4044L90.1588 12.24ZM90.7508 13.008L90.5629 13.0769L90.5651 13.0823L90.7508 13.008ZM90.9908 14.208L90.7911 14.2213L90.7916 14.2261L90.9908 14.208ZM90.9908 17.616L90.7915 17.5983L90.7912 17.6027L90.9908 17.616ZM90.7508 18.816L90.565 18.7417L90.563 18.7471L90.7508 18.816ZM90.1588 19.584L90.0449 19.4195L90.0419 19.4217L90.1588 19.584ZM89.0548 20L89.019 19.8032L89.0182 19.8034L89.0548 20ZM88.2388 18.336L88.1944 18.141L88.1924 18.1414L88.2388 18.336ZM88.7188 18.016L88.5444 17.9179L88.5423 17.9219L88.7188 18.016ZM88.8948 14.576L88.6951 14.5885L88.6952 14.5889L88.8948 14.576ZM88.7188 13.824L88.5399 13.9134L88.5433 13.9203L88.5473 13.9269L88.7188 13.824ZM88.2388 13.504L88.1924 13.6988L88.203 13.7008L88.2388 13.504ZM86.3668 13.504L86.4042 13.7007L86.4131 13.6986L86.3668 13.504ZM85.8868 13.824L86.0583 13.9269L86.0611 13.9221L85.8868 13.824ZM85.7108 14.576L85.511 14.5635L85.5109 14.5696L85.7108 14.576ZM85.7108 17.248L85.5108 17.2542L85.5111 17.2605L85.7108 17.248ZM85.8868 18.016L85.7124 18.1141L85.7153 18.1189L85.8868 18.016ZM86.3668 18.336L86.3204 18.5306L86.3204 18.5306L86.3668 18.336ZM87.3108 19.928C86.6137 19.928 86.0399 19.8857 85.5865 19.8032L85.515 20.1968C86.0002 20.285 86.5998 20.328 87.3108 20.328V19.928ZM85.5865 19.8032C85.1342 19.721 84.7978 19.5903 84.5636 19.4217L84.3299 19.7463C84.6291 19.9617 85.0286 20.1083 85.515 20.1968L85.5865 19.8032ZM84.5636 19.4217C84.3293 19.253 84.1551 19.0282 84.0404 18.7417L83.6691 18.8903C83.8104 19.2438 84.0308 19.531 84.3299 19.7463L84.5636 19.4217ZM84.0425 18.7471C83.9331 18.4489 83.8557 18.0674 83.814 17.5983L83.4155 17.6337C83.4592 18.1246 83.5417 18.5431 83.667 18.8849L84.0425 18.7471ZM83.8143 17.6027C83.7827 17.1284 83.7668 16.5624 83.7668 15.904H83.3668C83.3668 16.5683 83.3828 17.1436 83.4152 17.6293L83.8143 17.6027ZM83.7668 15.904C83.7668 15.2455 83.7827 14.685 83.8143 14.2216L83.4152 14.1944C83.3828 14.6697 83.3668 15.2398 83.3668 15.904H83.7668ZM83.814 14.2257C83.8557 13.7566 83.9331 13.3751 84.0425 13.0769L83.667 12.9391C83.5417 13.2809 83.4592 13.6994 83.4155 14.1903L83.814 14.2257ZM84.0404 13.0823C84.1551 12.7958 84.3293 12.571 84.5636 12.4023L84.3299 12.0777C84.0308 12.293 83.8104 12.5802 83.6691 12.9337L84.0404 13.0823ZM84.5636 12.4023C84.7962 12.2349 85.1309 12.1093 85.5822 12.0375L85.5193 11.6425C85.0319 11.72 84.6306 11.8611 84.3299 12.0777L84.5636 12.4023ZM85.5865 12.0368C86.0399 11.9543 86.6137 11.912 87.3108 11.912V11.512C86.5998 11.512 86.0002 11.555 85.515 11.6432L85.5865 12.0368ZM87.3108 11.912C88.008 11.912 88.576 11.9544 89.0182 12.0366L89.0913 11.6434C88.6162 11.555 88.0215 11.512 87.3108 11.512V11.912ZM89.0233 12.0375C89.4746 12.1093 89.8093 12.2349 90.0419 12.4023L90.2756 12.0777C89.9749 11.8611 89.5736 11.72 89.0862 11.6425L89.0233 12.0375ZM90.0449 12.4044C90.288 12.5727 90.4597 12.7951 90.563 13.0769L90.9385 12.9391C90.8072 12.5809 90.5842 12.2913 90.2726 12.0756L90.0449 12.4044ZM90.5651 13.0823C90.6829 13.3768 90.7601 13.7546 90.7912 14.2213L91.1903 14.1947C91.1574 13.7014 91.0746 13.2792 90.9364 12.9337L90.5651 13.0823ZM90.7916 14.2261C90.8335 14.6876 90.8548 15.2465 90.8548 15.904H91.2548C91.2548 15.2388 91.2333 14.6671 91.1899 14.1899L90.7916 14.2261ZM90.8548 15.904C90.8548 16.5614 90.8335 17.1259 90.7915 17.5983L91.19 17.6337C91.2333 17.1461 91.2548 16.5692 91.2548 15.904H90.8548ZM90.7912 17.6027C90.7601 18.0694 90.6829 18.4472 90.5651 18.7417L90.9364 18.8903C91.0746 18.5448 91.1574 18.1226 91.1903 17.6293L90.7912 17.6027ZM90.563 18.7471C90.4597 19.0289 90.288 19.2513 90.0449 19.4196L90.2726 19.7484C90.5842 19.5327 90.8072 19.2431 90.9385 18.8849L90.563 18.7471ZM90.0419 19.4217C89.8077 19.5903 89.4713 19.721 89.019 19.8032L89.0905 20.1968C89.5769 20.1083 89.9764 19.9617 90.2756 19.7463L90.0419 19.4217ZM89.0182 19.8034C88.576 19.8856 88.008 19.928 87.3108 19.928V20.328C88.0215 20.328 88.6162 20.285 89.0913 20.1966L89.0182 19.8034ZM87.3108 18.616C87.7116 18.616 88.0389 18.5892 88.2851 18.5306L88.1924 18.1414C87.9906 18.1895 87.6992 18.216 87.3108 18.216V18.616ZM88.2831 18.531C88.5547 18.4693 88.7743 18.3368 88.8952 18.1101L88.5423 17.9219C88.4925 18.0152 88.3921 18.096 88.1944 18.141L88.2831 18.531ZM88.8931 18.1141C89.011 17.9043 89.0724 17.6126 89.0944 17.2605L88.6951 17.2355C88.6745 17.566 88.6185 17.7863 88.5444 17.9179L88.8931 18.1141ZM89.0944 17.2605C89.1161 16.9133 89.1268 16.4606 89.1268 15.904H88.7268C88.7268 16.4567 88.7161 16.9001 88.6951 17.2355L89.0944 17.2605ZM89.1268 15.904C89.1268 15.3475 89.1161 14.9 89.0943 14.5631L88.6952 14.5889C88.7161 14.9134 88.7268 15.3512 88.7268 15.904H89.1268ZM89.0944 14.5635C89.0724 14.2127 89.0113 13.9229 88.8902 13.7211L88.5473 13.9269C88.6182 14.0451 88.6744 14.2567 88.6951 14.5885L89.0944 14.5635ZM88.8976 13.7346C88.7772 13.4936 88.554 13.358 88.2745 13.3072L88.203 13.7008C88.3929 13.7353 88.4897 13.8131 88.5399 13.9134L88.8976 13.7346ZM88.2851 13.3094C88.0389 13.2508 87.7116 13.224 87.3108 13.224V13.624C87.6992 13.624 87.9906 13.6505 88.1924 13.6986L88.2851 13.3094ZM87.3108 13.224C86.8997 13.224 86.5669 13.2508 86.3204 13.3094L86.4131 13.6986C86.6146 13.6506 86.9111 13.624 87.3108 13.624V13.224ZM86.3293 13.3075C86.058 13.3592 85.8422 13.4952 85.7124 13.7259L86.0611 13.9221C86.1233 13.8115 86.2275 13.7341 86.4042 13.7005L86.3293 13.3075ZM85.7153 13.7211C85.5942 13.9229 85.5331 14.2127 85.5111 14.5635L85.9104 14.5885C85.9311 14.2567 85.9873 14.0451 86.0582 13.9269L85.7153 13.7211ZM85.5109 14.5696C85.5001 14.9033 85.4948 15.3484 85.4948 15.904H85.8948C85.8948 15.3503 85.9001 14.91 85.9106 14.5824L85.5109 14.5696ZM85.4948 15.904C85.4948 16.4596 85.5001 16.91 85.5108 17.2542L85.9107 17.2418C85.9001 16.9034 85.8948 16.4577 85.8948 15.904H85.4948ZM85.5111 17.2605C85.5331 17.6126 85.5945 17.9043 85.7124 18.1141L86.0611 17.9179C85.987 17.7863 85.931 17.566 85.9104 17.2355L85.5111 17.2605ZM85.7153 18.1189C85.8452 18.3354 86.0571 18.4679 86.3204 18.5306L86.4131 18.1414C86.2284 18.0975 86.1203 18.0166 86.0582 17.9131L85.7153 18.1189ZM86.3204 18.5306C86.5669 18.5892 86.8997 18.616 87.3108 18.616V18.216C86.9111 18.216 86.6146 18.1894 86.4131 18.1414L86.3204 18.5306Z" fill="black"/>
<defs>
<linearGradient id="paint0_linear_2_2" x1="0" y1="0" x2="16.5138" y2="55.0459" gradientUnits="userSpaceOnUse">
<stop stop-color="#80FF80"/>
<stop offset="1" stop-color="#66CC66"/>
</linearGradient>
</defs>
</svg>
