<svg width="100" height="30" viewBox="0 0 100 30" fill="none" xmlns="http://www.w3.org/2000/svg">
<rect width="100" height="30" rx="5" fill="url(#paint0_linear_2_3)"/>
<path d="M22.4058 20V8.992H27.5098C28.1924 8.992 28.7471 9.07733 29.1737 9.248C29.6111 9.41867 29.9471 9.664 30.1818 9.984C30.4164 10.2933 30.5764 10.672 30.6618 11.12C30.7578 11.568 30.8058 12.0747 30.8058 12.64C30.8058 13.1627 30.7631 13.648 30.6778 14.096C30.6031 14.5333 30.4484 14.9173 30.2138 15.248C29.9791 15.5787 29.6378 15.8347 29.1898 16.016C28.7524 16.1973 28.1711 16.288 27.4458 16.288H24.6778V20H22.4058ZM24.6778 14.432H26.5498C27.0084 14.432 27.3711 14.4107 27.6378 14.368C27.9044 14.3147 28.1018 14.224 28.2298 14.096C28.3578 13.968 28.4378 13.7867 28.4698 13.552C28.5124 13.3173 28.5338 13.0133 28.5338 12.64C28.5338 12.2667 28.5124 11.9627 28.4698 11.728C28.4378 11.4933 28.3578 11.312 28.2298 11.184C28.1124 11.0453 27.9258 10.9547 27.6698 10.912C27.4138 10.8587 27.0618 10.832 26.6138 10.832H24.6778V14.432ZM36.2211 20.128C35.4958 20.128 34.8931 20.08 34.4131 19.984C33.9331 19.888 33.5491 19.7387 33.2611 19.536C32.9838 19.3227 32.7705 19.056 32.6211 18.736C32.4825 18.4053 32.3918 18.0107 32.3491 17.552C32.3171 17.0827 32.3011 16.544 32.3011 15.936C32.3011 15.2107 32.3385 14.5813 32.4131 14.048C32.4878 13.5147 32.6425 13.0773 32.8771 12.736C33.1225 12.384 33.4958 12.128 33.9971 11.968C34.5091 11.7973 35.1865 11.712 36.0291 11.712C36.7118 11.712 37.2665 11.7653 37.6931 11.872C38.1198 11.9787 38.4558 12.1387 38.7011 12.352C38.9571 12.5653 39.1385 12.8427 39.2451 13.184C39.3625 13.5147 39.4371 13.9093 39.4691 14.368C39.5011 14.8267 39.5171 15.3493 39.5171 15.936V16.56H34.4131C34.4131 16.9653 34.4291 17.296 34.4611 17.552C34.5038 17.7973 34.5945 17.984 34.7331 18.112C34.8825 18.24 35.1118 18.3253 35.4211 18.368C35.7411 18.4107 36.1731 18.432 36.7171 18.432C36.9411 18.432 37.1918 18.4267 37.4691 18.416C37.7571 18.4053 38.0505 18.3893 38.3491 18.368C38.6585 18.3467 38.9411 18.3253 39.1971 18.304V19.872C38.9625 19.9253 38.6745 19.968 38.3331 20C38.0025 20.0427 37.6505 20.0747 37.2771 20.096C36.9145 20.1173 36.5625 20.128 36.2211 20.128ZM37.5011 15.504V15.248C37.5011 14.832 37.4745 14.5013 37.4211 14.256C37.3785 14 37.2985 13.808 37.1811 13.68C37.0745 13.552 36.9251 13.472 36.7331 13.44C36.5411 13.3973 36.2958 13.376 35.9971 13.376C35.6451 13.376 35.3678 13.4027 35.1651 13.456C34.9625 13.4987 34.8078 13.5893 34.7011 13.728C34.5945 13.856 34.5198 14.048 34.4771 14.304C34.4345 14.5493 34.4131 14.864 34.4131 15.248H37.7891L37.5011 15.504ZM41.4954 20V11.84H43.4794L43.5434 13.248H43.6714C43.81 12.8427 43.9967 12.528 44.2314 12.304C44.4767 12.08 44.77 11.9253 45.1114 11.84C45.4527 11.7547 45.842 11.712 46.2794 11.712V13.728C45.586 13.728 45.042 13.824 44.6474 14.016C44.2634 14.208 43.9914 14.5227 43.8314 14.96C43.682 15.3973 43.6074 15.9893 43.6074 16.736V20H41.4954ZM50.2258 20.128C49.7244 20.128 49.2978 20.064 48.9457 19.936C48.5938 19.7973 48.3058 19.5733 48.0818 19.264C47.8578 18.944 47.6924 18.512 47.5858 17.968C47.4898 17.424 47.4418 16.7467 47.4418 15.936C47.4418 15.1253 47.4898 14.448 47.5858 13.904C47.6818 13.36 47.8364 12.928 48.0498 12.608C48.2738 12.288 48.5564 12.0587 48.8978 11.92C49.2498 11.7813 49.6764 11.712 50.1778 11.712C50.5298 11.712 50.8551 11.744 51.1538 11.808C51.4631 11.8613 51.7351 11.9627 51.9698 12.112C52.2151 12.2507 52.4178 12.4587 52.5778 12.736H52.7058V8.112H54.8177V20H52.8338L52.7698 18.992H52.6578C52.4978 19.312 52.2844 19.552 52.0178 19.712C51.7618 19.872 51.4791 19.9787 51.1698 20.032C50.8604 20.096 50.5458 20.128 50.2258 20.128ZM51.1378 18.304C51.5324 18.304 51.8311 18.256 52.0338 18.16C52.2471 18.0533 52.4018 17.888 52.4978 17.664C52.5831 17.4507 52.6364 17.2 52.6578 16.912C52.6898 16.624 52.7058 16.2933 52.7058 15.92C52.7058 15.536 52.6898 15.2053 52.6578 14.928C52.6364 14.6507 52.5831 14.416 52.4978 14.224C52.4018 13.9787 52.2471 13.808 52.0338 13.712C51.8311 13.6053 51.5324 13.552 51.1378 13.552C50.7858 13.552 50.5031 13.5787 50.2898 13.632C50.0764 13.6747 49.9164 13.776 49.8098 13.936C49.7138 14.0853 49.6498 14.32 49.6178 14.64C49.5858 14.9493 49.5698 15.376 49.5698 15.92C49.5698 16.464 49.5858 16.896 49.6178 17.216C49.6498 17.536 49.7138 17.776 49.8098 17.936C49.9164 18.0853 50.0764 18.1867 50.2898 18.24C50.5031 18.2827 50.7858 18.304 51.1378 18.304ZM57.0571 10V8.112H59.2491V10H57.0571ZM57.0891 20V11.84H59.2171V20H57.0891ZM63.9914 20.128C63.49 20.128 63.0634 20.064 62.7114 19.936C62.3594 19.7973 62.0714 19.5733 61.8474 19.264C61.6234 18.944 61.458 18.512 61.3514 17.968C61.2554 17.424 61.2074 16.7467 61.2074 15.936C61.2074 15.1253 61.2554 14.448 61.3514 13.904C61.4474 13.36 61.602 12.928 61.8154 12.608C62.0394 12.288 62.322 12.0587 62.6634 11.92C63.0154 11.7813 63.442 11.712 63.9434 11.712C64.2954 11.712 64.6207 11.744 64.9194 11.808C65.2287 11.8613 65.5007 11.9627 65.7354 12.112C65.9807 12.2507 66.1834 12.4587 66.3434 12.736H66.4714V8.112H68.5834V20H66.5994L66.5354 18.992H66.4234C66.2634 19.312 66.05 19.552 65.7834 19.712C65.5274 19.872 65.2447 19.9787 64.9354 20.032C64.626 20.096 64.3114 20.128 63.9914 20.128ZM64.9034 18.304C65.298 18.304 65.5967 18.256 65.7994 18.16C66.0127 18.0533 66.1674 17.888 66.2634 17.664C66.3487 17.4507 66.402 17.2 66.4234 16.912C66.4554 16.624 66.4714 16.2933 66.4714 15.92C66.4714 15.536 66.4554 15.2053 66.4234 14.928C66.402 14.6507 66.3487 14.416 66.2634 14.224C66.1674 13.9787 66.0127 13.808 65.7994 13.712C65.5967 13.6053 65.298 13.552 64.9034 13.552C64.5514 13.552 64.2687 13.5787 64.0554 13.632C63.842 13.6747 63.682 13.776 63.5754 13.936C63.4794 14.0853 63.4154 14.32 63.3834 14.64C63.3514 14.9493 63.3354 15.376 63.3354 15.92C63.3354 16.464 63.3514 16.896 63.3834 17.216C63.4154 17.536 63.4794 17.776 63.5754 17.936C63.682 18.0853 63.842 18.1867 64.0554 18.24C64.2687 18.2827 64.5514 18.304 64.9034 18.304ZM74.3108 20.128C73.6068 20.128 73.0201 20.0853 72.5508 20C72.0814 19.9147 71.7134 19.776 71.4468 19.584C71.1801 19.392 70.9828 19.136 70.8548 18.816C70.7374 18.496 70.6574 18.096 70.6148 17.616C70.5828 17.136 70.5668 16.5653 70.5668 15.904C70.5668 15.2427 70.5828 14.6773 70.6148 14.208C70.6574 13.728 70.7374 13.328 70.8548 13.008C70.9828 12.688 71.1801 12.432 71.4468 12.24C71.7134 12.048 72.0814 11.9147 72.5508 11.84C73.0201 11.7547 73.6068 11.712 74.3108 11.712C75.0148 11.712 75.5961 11.7547 76.0548 11.84C76.5241 11.9147 76.8921 12.048 77.1588 12.24C77.4361 12.432 77.6334 12.688 77.7508 13.008C77.8788 13.328 77.9588 13.728 77.9908 14.208C78.0334 14.6773 78.0548 15.2427 78.0548 15.904C78.0548 16.5653 78.0334 17.136 77.9908 17.616C77.9588 18.096 77.8788 18.496 77.7508 18.816C77.6334 19.136 77.4361 19.392 77.1588 19.584C76.8921 19.776 76.5241 19.9147 76.0548 20C75.5961 20.0853 75.0148 20.128 74.3108 20.128ZM74.3108 18.416C74.7054 18.416 75.0148 18.3893 75.2388 18.336C75.4734 18.2827 75.6334 18.176 75.7188 18.016C75.8148 17.8453 75.8734 17.5893 75.8948 17.248C75.9161 16.9067 75.9268 16.4587 75.9268 15.904C75.9268 15.3493 75.9161 14.9067 75.8948 14.576C75.8734 14.2347 75.8148 13.984 75.7188 13.824C75.6334 13.6533 75.4734 13.5467 75.2388 13.504C75.0148 13.4507 74.7054 13.424 74.3108 13.424C73.9054 13.424 73.5908 13.4507 73.3668 13.504C73.1428 13.5467 72.9828 13.6533 72.8868 13.824C72.7908 13.984 72.7321 14.2347 72.7108 14.576C72.7001 14.9067 72.6948 15.3493 72.6948 15.904C72.6948 16.4587 72.7001 16.9067 72.7108 17.248C72.7321 17.5893 72.7908 17.8453 72.8868 18.016C72.9828 18.176 73.1428 18.2827 73.3668 18.336C73.5908 18.3893 73.9054 18.416 74.3108 18.416Z" fill="white"/>
<path d="M22.4058 20H22.2058V20.2H22.4058V20ZM22.4058 8.992V8.792H22.2058V8.992H22.4058ZM29.1737 9.248L29.0995 9.4337L29.101 9.43431L29.1737 9.248ZM30.1818 9.984L30.0204 10.1023L30.0224 10.1049L30.1818 9.984ZM30.6618 11.12L30.4652 11.1574L30.4662 11.1619L30.6618 11.12ZM30.6778 14.096L30.4812 14.0586L30.4806 14.0623L30.6778 14.096ZM30.2138 15.248L30.3769 15.3637L30.3769 15.3637L30.2138 15.248ZM29.1898 16.016L29.1147 15.8306L29.1131 15.8313L29.1898 16.016ZM24.6778 16.288V16.088H24.4778V16.288H24.6778ZM24.6778 20V20.2H24.8778V20H24.6778ZM24.6778 14.432H24.4778V14.632H24.6778V14.432ZM27.6378 14.368L27.6694 14.5656L27.677 14.5641L27.6378 14.368ZM28.2298 14.096L28.0883 13.9546L28.0883 13.9546L28.2298 14.096ZM28.4698 13.552L28.2728 13.5162L28.2716 13.525L28.4698 13.552ZM28.4698 11.728L28.2714 11.755L28.273 11.7638L28.4698 11.728ZM28.2298 11.184L28.0771 11.3132L28.0824 11.3195L28.0883 11.3254L28.2298 11.184ZM27.6698 10.912L27.6289 11.108L27.6369 11.1093L27.6698 10.912ZM24.6778 10.832V10.632H24.4778V10.832H24.6778ZM22.6058 20V8.992H22.2058V20H22.6058ZM22.4058 9.192H27.5098V8.792H22.4058V9.192ZM27.5098 9.192C28.1782 9.192 28.705 9.2759 29.0995 9.43369L29.248 9.0623C28.7892 8.87877 28.2067 8.792 27.5098 8.792V9.192ZM29.101 9.43431C29.5096 9.59374 29.8121 9.81813 30.0205 10.1023L30.343 9.86573C30.0821 9.50987 29.7126 9.2436 29.2465 9.06168L29.101 9.43431ZM30.0224 10.1049C30.2354 10.3857 30.3847 10.7345 30.4653 11.1574L30.8582 11.0826C30.7681 10.6095 30.5974 10.201 30.3411 9.86312L30.0224 10.1049ZM30.4662 11.1619C30.5586 11.5934 30.6058 12.0856 30.6058 12.64H31.0058C31.0058 12.0637 30.9569 11.5426 30.8573 11.0781L30.4662 11.1619ZM30.6058 12.64C30.6058 13.1519 30.564 13.6245 30.4813 14.0586L30.8742 14.1334C30.9622 13.6715 31.0058 13.1734 31.0058 12.64H30.6058ZM30.4806 14.0623C30.4105 14.4729 30.2664 14.8283 30.0506 15.1323L30.3769 15.3637C30.6305 15.0064 30.7957 14.5937 30.8749 14.1297L30.4806 14.0623ZM30.0506 15.1323C29.842 15.4262 29.5342 15.6608 29.1147 15.8306L29.2648 16.2014C29.7413 16.0085 30.1161 15.7311 30.3769 15.3637L30.0506 15.1323ZM29.1131 15.8313C28.7095 15.9986 28.1574 16.088 27.4458 16.088V16.488C28.1848 16.488 28.7953 16.396 29.2664 16.2007L29.1131 15.8313ZM27.4458 16.088H24.6778V16.488H27.4458V16.088ZM24.4778 16.288V20H24.8778V16.288H24.4778ZM24.6778 19.8H22.4058V20.2H24.6778V19.8ZM24.6778 14.632H26.5498V14.232H24.6778V14.632ZM26.5498 14.632C27.0128 14.632 27.3875 14.6106 27.6693 14.5655L27.6062 14.1705C27.3547 14.2107 27.004 14.232 26.5498 14.232V14.632ZM27.677 14.5641C27.9641 14.5067 28.2045 14.4041 28.3712 14.2374L28.0883 13.9546C27.999 14.0439 27.8447 14.1226 27.5985 14.1719L27.677 14.5641ZM28.3712 14.2374C28.5384 14.0702 28.6318 13.8436 28.6679 13.579L28.2716 13.525C28.2437 13.7297 28.1771 13.8658 28.0883 13.9546L28.3712 14.2374ZM28.6665 13.5878C28.7122 13.3366 28.7338 13.0194 28.7338 12.64H28.3338C28.3338 13.0072 28.3127 13.298 28.273 13.5162L28.6665 13.5878ZM28.7338 12.64C28.7338 12.2606 28.7122 11.9434 28.6665 11.6922L28.273 11.7638C28.3127 11.982 28.3338 12.2728 28.3338 12.64H28.7338ZM28.6679 11.701C28.6318 11.4364 28.5384 11.2098 28.3712 11.0426L28.0883 11.3254C28.1771 11.4142 28.2437 11.5503 28.2716 11.755L28.6679 11.701ZM28.3824 11.0548C28.2237 10.8672 27.9857 10.7619 27.7026 10.7147L27.6369 11.1093C27.8658 11.1474 28.0012 11.2235 28.0771 11.3132L28.3824 11.0548ZM27.7105 10.7162C27.435 10.6588 27.0672 10.632 26.6138 10.632V11.032C27.0563 11.032 27.3925 11.0585 27.629 11.1078L27.7105 10.7162ZM26.6138 10.632H24.6778V11.032H26.6138V10.632ZM24.4778 10.832V14.432H24.8778V10.832H24.4778ZM34.4131 19.984L34.3739 20.1801L34.4131 19.984ZM33.2611 19.536L33.1391 19.6947L33.146 19.6996L33.2611 19.536ZM32.6211 18.736L32.4365 18.8134L32.4399 18.8206L32.6211 18.736ZM32.3491 17.552L32.1495 17.5656L32.15 17.5705L32.3491 17.552ZM32.4131 14.048L32.6112 14.0757L32.6112 14.0757L32.4131 14.048ZM32.8771 12.736L32.713 12.6216L32.7123 12.6227L32.8771 12.736ZM33.9971 11.968L34.0579 12.1585L34.0604 12.1577L33.9971 11.968ZM38.7011 12.352L38.5699 12.503L38.5731 12.5056L38.7011 12.352ZM39.2451 13.184L39.0541 13.2437L39.0566 13.2509L39.2451 13.184ZM39.4691 14.368L39.6686 14.3541L39.6686 14.3541L39.4691 14.368ZM39.5171 16.56V16.76H39.7171V16.56H39.5171ZM34.4131 16.56V16.36H34.2131V16.56H34.4131ZM34.4611 17.552L34.2624 17.5768L34.2641 17.5863L34.4611 17.552ZM34.7331 18.112L34.5974 18.2591L34.603 18.2639L34.7331 18.112ZM35.4211 18.368L35.3938 18.5661L35.3947 18.5662L35.4211 18.368ZM37.4691 18.416L37.4617 18.2161L37.4614 18.2161L37.4691 18.416ZM38.3491 18.368L38.3354 18.1685L38.3349 18.1685L38.3491 18.368ZM39.1971 18.304H39.3971V18.0866L39.1805 18.1047L39.1971 18.304ZM39.1971 19.872L39.2414 20.067L39.3971 20.0316V19.872H39.1971ZM38.3331 20L38.3144 19.8008L38.3075 19.8016L38.3331 20ZM37.2771 20.096L37.2657 19.8963L37.2654 19.8963L37.2771 20.096ZM37.5011 15.504H37.3011V15.9494L37.634 15.6535L37.5011 15.504ZM37.4211 14.256L37.2236 14.2889L37.2257 14.2985L37.4211 14.256ZM37.1811 13.68L37.0273 13.8082L37.0337 13.8151L37.1811 13.68ZM36.7331 13.44L36.6897 13.6355L36.7002 13.6373L36.7331 13.44ZM35.1651 13.456L35.2064 13.652L35.216 13.6494L35.1651 13.456ZM34.7011 13.728L34.8549 13.8561L34.8596 13.8499L34.7011 13.728ZM34.4771 14.304L34.6742 14.3383L34.6744 14.3369L34.4771 14.304ZM34.4131 15.248H34.2131V15.448H34.4131V15.248ZM37.7891 15.248L37.922 15.3975L38.3152 15.048H37.7891V15.248ZM36.2211 19.928C35.5033 19.928 34.9149 19.8804 34.4523 19.7879L34.3739 20.1801C34.8714 20.2796 35.4883 20.328 36.2211 20.328V19.928ZM34.4523 19.7879C33.9897 19.6954 33.6344 19.5541 33.3762 19.3724L33.146 19.6996C33.4638 19.9232 33.8766 20.0806 34.3739 20.1801L34.4523 19.7879ZM33.3831 19.3775C33.1314 19.1839 32.9383 18.9427 32.8024 18.6514L32.4399 18.8206C32.6026 19.1693 32.8362 19.4615 33.1392 19.6945L33.3831 19.3775ZM32.8056 18.6587C32.6766 18.3512 32.5896 17.9774 32.5483 17.5335L32.15 17.5705C32.194 18.044 32.2883 18.4595 32.4367 18.8133L32.8056 18.6587ZM32.5487 17.5384C32.517 17.0747 32.5011 16.5407 32.5011 15.936H32.1011C32.1011 16.5473 32.1172 17.0907 32.1496 17.5656L32.5487 17.5384ZM32.5011 15.936C32.5011 15.217 32.5382 14.5974 32.6112 14.0757L32.2151 14.0203C32.1388 14.5653 32.1011 15.2043 32.1011 15.936H32.5011ZM32.6112 14.0757C32.6828 13.5642 32.8293 13.1586 33.0419 12.8493L32.7123 12.6227C32.4556 12.9961 32.2928 13.4651 32.2151 14.0203L32.6112 14.0757ZM33.0412 12.8504C33.2562 12.542 33.5887 12.3083 34.0579 12.1585L33.9363 11.7775C33.4028 11.9477 32.9888 12.226 32.713 12.6216L33.0412 12.8504ZM34.0604 12.1577C34.5439 11.9966 35.1973 11.912 36.0291 11.912V11.512C35.1756 11.512 34.4744 11.5981 33.9339 11.7783L34.0604 12.1577ZM36.0291 11.912C36.7034 11.912 37.24 11.9649 37.6446 12.066L37.7416 11.678C37.2929 11.5658 36.7202 11.512 36.0291 11.512V11.912ZM37.6446 12.066C38.051 12.1676 38.3552 12.3163 38.5699 12.5029L38.8324 12.2011C38.5564 11.9611 38.1886 11.7897 37.7416 11.678L37.6446 12.066ZM38.5731 12.5056C38.7973 12.6925 38.9582 12.9362 39.0542 13.2437L39.436 13.1243C39.3188 12.7491 39.1169 12.4381 38.8292 12.1984L38.5731 12.5056ZM39.0566 13.2509C39.1664 13.5601 39.2385 13.9361 39.2696 14.3819L39.6686 14.3541C39.6357 13.8826 39.5585 13.4692 39.4336 13.1171L39.0566 13.2509ZM39.2696 14.3819C39.3012 14.8349 39.3171 15.3528 39.3171 15.936H39.7171C39.7171 15.3459 39.701 14.8184 39.6686 14.3541L39.2696 14.3819ZM39.3171 15.936V16.56H39.7171V15.936H39.3171ZM39.5171 16.36H34.4131V16.76H39.5171V16.36ZM34.2131 16.56C34.2131 16.9695 34.2292 17.3093 34.2627 17.5768L34.6596 17.5272C34.629 17.2827 34.6131 16.9611 34.6131 16.56H34.2131ZM34.2641 17.5863C34.3119 17.8611 34.4175 18.0929 34.5975 18.259L34.8688 17.965C34.7714 17.8751 34.6957 17.7336 34.6582 17.5177L34.2641 17.5863ZM34.603 18.2639C34.7939 18.4275 35.0669 18.521 35.3938 18.5661L35.4485 18.1699C35.1567 18.1296 34.971 18.0525 34.8633 17.9601L34.603 18.2639ZM35.3947 18.5662C35.7274 18.6106 36.1694 18.632 36.7171 18.632V18.232C36.1769 18.232 35.7549 18.2107 35.4476 18.1698L35.3947 18.5662ZM36.7171 18.632C36.9442 18.632 37.1975 18.6266 37.4768 18.6159L37.4614 18.2161C37.1861 18.2267 36.938 18.232 36.7171 18.232V18.632ZM37.4765 18.6159C37.7669 18.6051 38.0625 18.589 38.3634 18.5675L38.3349 18.1685C38.0384 18.1897 37.7474 18.2056 37.4617 18.2161L37.4765 18.6159ZM38.3629 18.5675C38.673 18.5461 38.9566 18.5247 39.2137 18.5033L39.1805 18.1047C38.9256 18.1259 38.6439 18.1472 38.3354 18.1685L38.3629 18.5675ZM38.9971 18.304V19.872H39.3971V18.304H38.9971ZM39.1528 19.677C38.9293 19.7278 38.6505 19.7694 38.3145 19.8009L38.3518 20.1991C38.6985 20.1666 38.9956 20.1229 39.2414 20.067L39.1528 19.677ZM38.3075 19.8016C37.9821 19.8436 37.6349 19.8752 37.2657 19.8963L37.2885 20.2957C37.6661 20.2741 38.0228 20.2417 38.3587 20.1984L38.3075 19.8016ZM37.2654 19.8963C36.9064 19.9175 36.5583 19.928 36.2211 19.928V20.328C36.5666 20.328 36.9225 20.3172 37.2889 20.2957L37.2654 19.8963ZM37.7011 15.504V15.248H37.3011V15.504H37.7011ZM37.7011 15.248C37.7011 14.8257 37.6743 14.4789 37.6166 14.2135L37.2257 14.2985C37.2747 14.5238 37.3011 14.8383 37.3011 15.248H37.7011ZM37.6184 14.2231C37.5723 13.9466 37.482 13.7122 37.3286 13.5449L37.0337 13.8151C37.1149 13.9038 37.1846 14.0534 37.2238 14.2889L37.6184 14.2231ZM37.3348 13.552C37.1924 13.3811 36.9969 13.2812 36.766 13.2427L36.7002 13.6373C36.8534 13.6628 36.9565 13.7229 37.0275 13.808L37.3348 13.552ZM36.7765 13.2448C36.565 13.1978 36.3037 13.176 35.9971 13.176V13.576C36.2879 13.576 36.5173 13.5969 36.6897 13.6352L36.7765 13.2448ZM35.9971 13.176C35.6379 13.176 35.341 13.2029 35.1142 13.2626L35.216 13.6494C35.3946 13.6024 35.6524 13.576 35.9971 13.576V13.176ZM35.1239 13.2603C34.8836 13.3109 34.6835 13.4229 34.5426 13.6061L34.8596 13.8499C34.9321 13.7558 35.0413 13.6865 35.2063 13.6517L35.1239 13.2603ZM34.5475 13.6C34.4088 13.7664 34.3254 13.9979 34.2798 14.2711L34.6744 14.3369C34.7142 14.0981 34.7801 13.9456 34.8548 13.856L34.5475 13.6ZM34.2801 14.2697C34.2347 14.5307 34.2131 14.858 34.2131 15.248H34.6131C34.6131 14.87 34.6342 14.5679 34.6742 14.3383L34.2801 14.2697ZM34.4131 15.448H37.7891V15.048H34.4131V15.448ZM37.6563 15.0985L37.3683 15.3545L37.634 15.6535L37.922 15.3975L37.6563 15.0985ZM41.4954 20H41.2954V20.2H41.4954V20ZM41.4954 11.84V11.64H41.2954V11.84H41.4954ZM43.4794 11.84L43.6792 11.8309L43.6705 11.64H43.4794V11.84ZM43.5434 13.248L43.3436 13.2571L43.3523 13.448H43.5434V13.248ZM43.6714 13.248V13.448H43.8143L43.8606 13.3127L43.6714 13.248ZM44.2314 12.304L44.0965 12.1563L44.0933 12.1593L44.2314 12.304ZM45.1114 11.84L45.0629 11.646L45.0629 11.646L45.1114 11.84ZM46.2794 11.712H46.4794V11.512H46.2794V11.712ZM46.2794 13.728V13.928H46.4794V13.728H46.2794ZM44.6474 14.016L44.5599 13.8361L44.5579 13.8371L44.6474 14.016ZM43.8314 14.96L43.6435 14.8913L43.6421 14.8954L43.8314 14.96ZM43.6074 20V20.2H43.8074V20H43.6074ZM41.6954 20V11.84H41.2954V20H41.6954ZM41.4954 12.04H43.4794V11.64H41.4954V12.04ZM43.2796 11.8491L43.3436 13.2571L43.7432 13.2389L43.6792 11.8309L43.2796 11.8491ZM43.5434 13.448H43.6714V13.048H43.5434V13.448ZM43.8606 13.3127C43.9921 12.9284 44.1642 12.6446 44.3695 12.4487L44.0933 12.1593C43.8292 12.4114 43.628 12.7569 43.4821 13.1833L43.8606 13.3127ZM44.3662 12.4517C44.5856 12.2514 44.8488 12.1118 45.1599 12.034L45.0629 11.646C44.6913 11.7389 44.3678 11.9086 44.0965 12.1563L44.3662 12.4517ZM45.1599 12.034C45.4821 11.9535 45.8546 11.912 46.2794 11.912V11.512C45.8295 11.512 45.4234 11.5558 45.0629 11.646L45.1599 12.034ZM46.0794 11.712V13.728H46.4794V11.712H46.0794ZM46.2794 13.528C45.5715 13.528 44.9931 13.6254 44.5599 13.8362L44.7349 14.1958C45.091 14.0226 45.6006 13.928 46.2794 13.928V13.528ZM44.5579 13.8371C44.1242 14.054 43.8195 14.4105 43.6436 14.8913L44.0192 15.0287C44.1633 14.6349 44.4025 14.362 44.7368 14.1949L44.5579 13.8371ZM43.6421 14.8954C43.4827 15.3623 43.4074 15.9791 43.4074 16.736H43.8074C43.8074 15.9995 43.8814 15.4323 44.0206 15.0246L43.6421 14.8954ZM43.4074 16.736V20H43.8074V16.736H43.4074ZM43.6074 19.8H41.4954V20.2H43.6074V19.8ZM48.9457 19.936L48.8724 20.1221L48.8774 20.124L48.9457 19.936ZM48.0818 19.264L47.9179 19.3787L47.9198 19.3813L48.0818 19.264ZM47.5858 17.968L47.3888 18.0028L47.3895 18.0065L47.5858 17.968ZM47.5858 13.904L47.3888 13.8692L47.5858 13.904ZM48.0498 12.608L47.8859 12.4933L47.8833 12.4971L48.0498 12.608ZM48.8978 11.92L48.8244 11.7339L48.8225 11.7347L48.8978 11.92ZM51.1538 11.808L51.1118 12.0037L51.1198 12.0051L51.1538 11.808ZM51.9698 12.112L51.8622 12.281L51.8713 12.2861L51.9698 12.112ZM52.5778 12.736L52.4045 12.8359L52.4622 12.936H52.5778V12.736ZM52.7058 12.736V12.936H52.9058V12.736H52.7058ZM52.7058 8.112V7.912H52.5058V8.112H52.7058ZM54.8177 8.112H55.0177V7.912H54.8177V8.112ZM54.8177 20V20.2H55.0177V20H54.8177ZM52.8338 20L52.6342 20.0127L52.646 20.2H52.8338V20ZM52.7698 18.992L52.9693 18.9793L52.9575 18.792H52.7698V18.992ZM52.6578 18.992V18.792H52.5341L52.4789 18.9026L52.6578 18.992ZM52.0178 19.712L51.9148 19.5405L51.9118 19.5424L52.0178 19.712ZM51.1698 20.032L51.1358 19.8348L51.1292 19.8361L51.1698 20.032ZM52.0338 18.16L52.1194 18.3408L52.1232 18.3389L52.0338 18.16ZM52.4978 17.664L52.6816 17.7428L52.6834 17.7383L52.4978 17.664ZM52.6578 16.912L52.4588 16.8899L52.4583 16.8972L52.6578 16.912ZM52.6578 14.928L52.4582 14.9434L52.4591 14.9509L52.6578 14.928ZM52.4978 14.224L52.3113 14.297L52.315 14.3052L52.4978 14.224ZM52.0338 13.712L51.9404 13.8893L51.9517 13.8944L52.0338 13.712ZM50.2898 13.632L50.329 13.8283L50.3383 13.826L50.2898 13.632ZM49.8098 13.936L49.6433 13.825L49.6415 13.8278L49.8098 13.936ZM49.6178 14.64L49.8167 14.6606L49.8168 14.6599L49.6178 14.64ZM49.6178 17.216L49.8168 17.1961L49.8168 17.1961L49.6178 17.216ZM49.8098 17.936L49.6383 18.0389L49.6424 18.0457L49.647 18.0522L49.8098 17.936ZM50.2898 18.24L50.2412 18.4342L50.2505 18.4361L50.2898 18.24ZM50.2258 19.928C49.7403 19.928 49.3382 19.8659 49.0141 19.748L48.8774 20.124C49.2573 20.2621 49.7085 20.328 50.2258 20.328V19.928ZM49.0191 19.7499C48.7029 19.6254 48.4456 19.4254 48.2437 19.1467L47.9198 19.3813C48.1659 19.7212 48.4846 19.9693 48.8724 20.1221L49.0191 19.7499ZM48.2456 19.1493C48.0428 18.8596 47.8854 18.4568 47.782 17.9295L47.3895 18.0065C47.4994 18.5672 47.6727 19.0284 47.9179 19.3787L48.2456 19.1493ZM47.7827 17.9332C47.6894 17.4047 47.6418 16.7399 47.6418 15.936H47.2418C47.2418 16.7535 47.2901 17.4433 47.3888 18.0028L47.7827 17.9332ZM47.6418 15.936C47.6418 15.1321 47.6894 14.4673 47.7827 13.9388L47.3888 13.8692C47.2901 14.4287 47.2418 15.1185 47.2418 15.936H47.6418ZM47.7827 13.9388C47.8758 13.411 48.0233 13.0082 48.2162 12.7189L47.8833 12.4971C47.6495 12.8478 47.4877 13.309 47.3888 13.8692L47.7827 13.9388ZM48.2136 12.7227C48.4169 12.4323 48.6696 12.2286 48.973 12.1053L48.8225 11.7347C48.4432 11.8888 48.1306 12.1437 47.8859 12.4933L48.2136 12.7227ZM48.9711 12.1061C49.2935 11.9791 49.6938 11.912 50.1778 11.912V11.512C49.659 11.512 49.206 11.5836 48.8244 11.7339L48.9711 12.1061ZM50.1778 11.912C50.5177 11.912 50.8288 11.9429 51.1118 12.0036L51.1957 11.6124C50.8813 11.5451 50.5418 11.512 50.1778 11.512V11.912ZM51.1198 12.0051C51.4063 12.0545 51.6527 12.1473 51.8624 12.2807L52.0771 11.9433C51.8174 11.778 51.5198 11.6682 51.1877 11.6109L51.1198 12.0051ZM51.8713 12.2861C52.0815 12.4049 52.2599 12.5853 52.4045 12.8359L52.751 12.6361C52.5756 12.3321 52.3487 12.0964 52.0682 11.9379L51.8713 12.2861ZM52.5778 12.936H52.7058V12.536H52.5778V12.936ZM52.9058 12.736V8.112H52.5058V12.736H52.9058ZM52.7058 8.312H54.8177V7.912H52.7058V8.312ZM54.6177 8.112V20H55.0177V8.112H54.6177ZM54.8177 19.8H52.8338V20.2H54.8177V19.8ZM53.0333 19.9873L52.9693 18.9793L52.5702 19.0047L52.6342 20.0127L53.0333 19.9873ZM52.7698 18.792H52.6578V19.192H52.7698V18.792ZM52.4789 18.9026C52.3333 19.1938 52.1442 19.4029 51.9149 19.5405L52.1206 19.8835C52.4246 19.7011 52.6622 19.4302 52.8366 19.0814L52.4789 18.9026ZM51.9118 19.5424C51.6786 19.6881 51.4206 19.7858 51.1358 19.8349L51.2037 20.2291C51.5376 20.1715 51.8449 20.0559 52.1238 19.8816L51.9118 19.5424ZM51.1292 19.8361C50.8334 19.8974 50.5323 19.928 50.2258 19.928V20.328C50.5592 20.328 50.8874 20.2946 51.2103 20.2279L51.1292 19.8361ZM51.1378 18.504C51.5428 18.504 51.8768 18.4557 52.1194 18.3407L51.9481 17.9793C51.7854 18.0563 51.522 18.104 51.1378 18.104V18.504ZM52.1232 18.3389C52.3798 18.2106 52.5674 18.0092 52.6816 17.7428L52.3139 17.5852C52.2361 17.7668 52.1143 17.8961 51.9443 17.9811L52.1232 18.3389ZM52.6834 17.7383C52.778 17.5018 52.8347 17.2302 52.8572 16.9268L52.4583 16.8972C52.4381 17.1698 52.3881 17.3996 52.3121 17.5897L52.6834 17.7383ZM52.8565 16.9341C52.8895 16.637 52.9058 16.2987 52.9058 15.92H52.5058C52.5058 16.2879 52.49 16.611 52.459 16.8899L52.8565 16.9341ZM52.9058 15.92C52.9058 15.531 52.8896 15.1922 52.8564 14.9051L52.4591 14.9509C52.4899 15.2184 52.5058 15.541 52.5058 15.92H52.9058ZM52.8572 14.9127C52.8346 14.6195 52.7776 14.3611 52.6805 14.1428L52.315 14.3052C52.3886 14.4708 52.4382 14.6818 52.4583 14.9433L52.8572 14.9127ZM52.684 14.1511C52.5715 13.8637 52.383 13.6499 52.1158 13.5296L51.9517 13.8944C52.1111 13.9661 52.232 14.0936 52.3115 14.2969L52.684 14.1511ZM52.1269 13.535C51.8817 13.406 51.5445 13.352 51.1378 13.352V13.752C51.5203 13.752 51.7805 13.8047 51.9406 13.889L52.1269 13.535ZM51.1378 13.352C50.7779 13.352 50.477 13.379 50.2412 13.438L50.3383 13.826C50.5292 13.7783 50.7936 13.752 51.1378 13.752V13.352ZM50.2505 13.4359C49.9926 13.4875 49.7834 13.615 49.6433 13.8251L49.9762 14.0469C50.0494 13.937 50.1602 13.8619 50.329 13.8281L50.2505 13.4359ZM49.6415 13.8278C49.5196 14.0174 49.4517 14.2903 49.4187 14.6201L49.8168 14.6599C49.8478 14.3497 49.9079 14.1532 49.978 14.0442L49.6415 13.8278ZM49.4188 14.6194C49.3858 14.9388 49.3698 15.3734 49.3698 15.92H49.7698C49.7698 15.3786 49.7857 14.9599 49.8167 14.6606L49.4188 14.6194ZM49.3698 15.92C49.3698 16.4668 49.3858 16.9063 49.4187 17.2359L49.8168 17.1961C49.7857 16.8857 49.7698 16.4612 49.7698 15.92H49.3698ZM49.4187 17.2359C49.4518 17.567 49.5198 17.8415 49.6383 18.0389L49.9812 17.8331C49.9077 17.7105 49.8477 17.505 49.8168 17.1961L49.4187 17.2359ZM49.647 18.0522C49.7865 18.2476 49.9914 18.3716 50.2412 18.434L50.3383 18.046C50.1615 18.0018 50.0463 17.9231 49.9725 17.8198L49.647 18.0522ZM50.2505 18.4361C50.4822 18.4824 50.7796 18.504 51.1378 18.504V18.104C50.7919 18.104 50.524 18.0829 50.329 18.0439L50.2505 18.4361ZM57.0571 10H56.8571V10.2H57.0571V10ZM57.0571 8.112V7.912H56.8571V8.112H57.0571ZM59.2491 8.112H59.4491V7.912H59.2491V8.112ZM59.2491 10V10.2H59.4491V10H59.2491ZM57.0891 20H56.8891V20.2H57.0891V20ZM57.0891 11.84V11.64H56.8891V11.84H57.0891ZM59.2171 11.84H59.4171V11.64H59.2171V11.84ZM59.2171 20V20.2H59.4171V20H59.2171ZM57.2571 10V8.112H56.8571V10H57.2571ZM57.0571 8.312H59.2491V7.912H57.0571V8.312ZM59.0491 8.112V10H59.4491V8.112H59.0491ZM59.2491 9.8H57.0571V10.2H59.2491V9.8ZM57.2891 20V11.84H56.8891V20H57.2891ZM57.0891 12.04H59.2171V11.64H57.0891V12.04ZM59.0171 11.84V20H59.4171V11.84H59.0171ZM59.2171 19.8H57.0891V20.2H59.2171V19.8ZM62.7114 19.936L62.638 20.1221L62.643 20.124L62.7114 19.936ZM61.8474 19.264L61.6835 19.3787L61.6854 19.3813L61.8474 19.264ZM61.3514 17.968L61.1544 18.0028L61.1551 18.0065L61.3514 17.968ZM61.3514 13.904L61.1544 13.8692L61.3514 13.904ZM61.8154 12.608L61.6515 12.4933L61.649 12.4971L61.8154 12.608ZM62.6634 11.92L62.5901 11.7339L62.5881 11.7347L62.6634 11.92ZM64.9194 11.808L64.8774 12.0037L64.8854 12.0051L64.9194 11.808ZM65.7354 12.112L65.6279 12.281L65.637 12.2861L65.7354 12.112ZM66.3434 12.736L66.1701 12.8359L66.2279 12.936H66.3434V12.736ZM66.4714 12.736V12.936H66.6714V12.736H66.4714ZM66.4714 8.112V7.912H66.2714V8.112H66.4714ZM68.5834 8.112H68.7834V7.912H68.5834V8.112ZM68.5834 20V20.2H68.7834V20H68.5834ZM66.5994 20L66.3998 20.0127L66.4117 20.2H66.5994V20ZM66.5354 18.992L66.735 18.9793L66.7231 18.792H66.5354V18.992ZM66.4234 18.992V18.792H66.2998L66.2445 18.9026L66.4234 18.992ZM65.7834 19.712L65.6805 19.5405L65.6774 19.5424L65.7834 19.712ZM64.9354 20.032L64.9014 19.8348L64.8949 19.8361L64.9354 20.032ZM65.7994 18.16L65.885 18.3408L65.8888 18.3389L65.7994 18.16ZM66.2634 17.664L66.4473 17.7428L66.4491 17.7383L66.2634 17.664ZM66.4234 16.912L66.2245 16.8899L66.2239 16.8972L66.4234 16.912ZM66.4234 14.928L66.2238 14.9434L66.2247 14.9509L66.4234 14.928ZM66.2634 14.224L66.0769 14.297L66.0806 14.3052L66.2634 14.224ZM65.7994 13.712L65.706 13.8893L65.7173 13.8944L65.7994 13.712ZM64.0554 13.632L64.0946 13.8283L64.1039 13.826L64.0554 13.632ZM63.5754 13.936L63.4089 13.825L63.4071 13.8278L63.5754 13.936ZM63.3834 14.64L63.5823 14.6606L63.5824 14.6599L63.3834 14.64ZM63.3834 17.216L63.5824 17.1961L63.5824 17.1961L63.3834 17.216ZM63.5754 17.936L63.4039 18.0389L63.408 18.0457L63.4126 18.0522L63.5754 17.936ZM64.0554 18.24L64.0068 18.4342L64.0162 18.4361L64.0554 18.24ZM63.9914 19.928C63.506 19.928 63.1038 19.8659 62.7797 19.748L62.643 20.124C63.023 20.2621 63.4741 20.328 63.9914 20.328V19.928ZM62.7847 19.7499C62.4686 19.6254 62.2112 19.4254 62.0094 19.1467L61.6854 19.3813C61.9316 19.7212 62.2502 19.9693 62.6381 20.1221L62.7847 19.7499ZM62.0112 19.1493C61.8085 18.8596 61.651 18.4568 61.5476 17.9295L61.1551 18.0065C61.2651 18.5672 61.4383 19.0284 61.6835 19.3787L62.0112 19.1493ZM61.5483 17.9332C61.4551 17.4047 61.4074 16.7399 61.4074 15.936H61.0074C61.0074 16.7535 61.0557 17.4433 61.1544 18.0028L61.5483 17.9332ZM61.4074 15.936C61.4074 15.1321 61.4551 14.4673 61.5483 13.9388L61.1544 13.8692C61.0557 14.4287 61.0074 15.1185 61.0074 15.936H61.4074ZM61.5483 13.9388C61.6415 13.411 61.789 13.0082 61.9818 12.7189L61.649 12.4971C61.4151 12.8478 61.2533 13.309 61.1544 13.8692L61.5483 13.9388ZM61.9792 12.7227C62.1825 12.4323 62.4352 12.2286 62.7387 12.1053L62.5881 11.7347C62.2089 11.8888 61.8962 12.1437 61.6515 12.4933L61.9792 12.7227ZM62.7367 12.1061C63.0591 11.9791 63.4594 11.912 63.9434 11.912V11.512C63.4247 11.512 62.9716 11.5836 62.5901 11.7339L62.7367 12.1061ZM63.9434 11.912C64.2834 11.912 64.5945 11.9429 64.8775 12.0036L64.9613 11.6124C64.6469 11.5451 64.3074 11.512 63.9434 11.512V11.912ZM64.8854 12.0051C65.172 12.0545 65.4184 12.1473 65.628 12.2807L65.8428 11.9433C65.583 11.778 65.2854 11.6682 64.9534 11.6109L64.8854 12.0051ZM65.637 12.2861C65.8471 12.4049 66.0255 12.5853 66.1701 12.8359L66.5166 12.6361C66.3412 12.3321 66.1143 12.0964 65.8338 11.9379L65.637 12.2861ZM66.3434 12.936H66.4714V12.536H66.3434V12.936ZM66.6714 12.736V8.112H66.2714V12.736H66.6714ZM66.4714 8.312H68.5834V7.912H66.4714V8.312ZM68.3834 8.112V20H68.7834V8.112H68.3834ZM68.5834 19.8H66.5994V20.2H68.5834V19.8ZM66.799 19.9873L66.735 18.9793L66.3358 19.0047L66.3998 20.0127L66.799 19.9873ZM66.5354 18.792H66.4234V19.192H66.5354V18.792ZM66.2445 18.9026C66.0989 19.1938 65.9098 19.4029 65.6805 19.5405L65.8863 19.8835C66.1902 19.7011 66.4279 19.4302 66.6023 19.0814L66.2445 18.9026ZM65.6774 19.5424C65.4442 19.6881 65.1862 19.7858 64.9014 19.8349L64.9694 20.2291C65.3032 20.1715 65.6105 20.0559 65.8894 19.8816L65.6774 19.5424ZM64.8949 19.8361C64.599 19.8974 64.2979 19.928 63.9914 19.928V20.328C64.3248 20.328 64.6531 20.2946 64.9759 20.2279L64.8949 19.8361ZM64.9034 18.504C65.3084 18.504 65.6424 18.4557 65.885 18.3407L65.7138 17.9793C65.551 18.0563 65.2876 18.104 64.9034 18.104V18.504ZM65.8888 18.3389C66.1455 18.2106 66.333 18.0092 66.4472 17.7428L66.0795 17.5852C66.0017 17.7668 65.88 17.8961 65.7099 17.9811L65.8888 18.3389ZM66.4491 17.7383C66.5437 17.5018 66.6004 17.2302 66.6228 16.9268L66.2239 16.8972C66.2037 17.1698 66.1537 17.3996 66.0777 17.5897L66.4491 17.7383ZM66.6222 16.9341C66.6552 16.637 66.6714 16.2987 66.6714 15.92H66.2714C66.2714 16.2879 66.2556 16.611 66.2246 16.8899L66.6222 16.9341ZM66.6714 15.92C66.6714 15.531 66.6552 15.1922 66.6221 14.9051L66.2247 14.9509C66.2556 15.2184 66.2714 15.541 66.2714 15.92H66.6714ZM66.6228 14.9127C66.6002 14.6195 66.5432 14.3611 66.4461 14.1428L66.0806 14.3052C66.1542 14.4708 66.2038 14.6818 66.224 14.9433L66.6228 14.9127ZM66.4496 14.1511C66.3372 13.8637 66.1487 13.6499 65.8814 13.5296L65.7173 13.8944C65.8768 13.9661 65.9976 14.0936 66.0771 14.2969L66.4496 14.1511ZM65.8925 13.535C65.6473 13.406 65.3101 13.352 64.9034 13.352V13.752C65.286 13.752 65.5461 13.8047 65.7062 13.889L65.8925 13.535ZM64.9034 13.352C64.5435 13.352 64.2426 13.379 64.0069 13.438L64.1039 13.826C64.2948 13.7783 64.5592 13.752 64.9034 13.752V13.352ZM64.0162 13.4359C63.7583 13.4875 63.549 13.615 63.409 13.8251L63.7418 14.0469C63.8151 13.937 63.9258 13.8619 64.0946 13.8281L64.0162 13.4359ZM63.4071 13.8278C63.2853 14.0174 63.2174 14.2903 63.1844 14.6201L63.5824 14.6599C63.6134 14.3497 63.6735 14.1532 63.7436 14.0442L63.4071 13.8278ZM63.1844 14.6194C63.1514 14.9388 63.1354 15.3734 63.1354 15.92H63.5354C63.5354 15.3786 63.5514 14.9599 63.5823 14.6606L63.1844 14.6194ZM63.1354 15.92C63.1354 16.4668 63.1514 16.9063 63.1844 17.2359L63.5824 17.1961C63.5513 16.8857 63.5354 16.4612 63.5354 15.92H63.1354ZM63.1844 17.2359C63.2175 17.567 63.2855 17.8415 63.4039 18.0389L63.7469 17.8331C63.6733 17.7105 63.6133 17.505 63.5824 17.1961L63.1844 17.2359ZM63.4126 18.0522C63.5522 18.2476 63.757 18.3716 64.0069 18.434L64.1039 18.046C63.9271 18.0018 63.8119 17.9231 63.7381 17.8198L63.4126 18.0522ZM64.0162 18.4361C64.2478 18.4824 64.5452 18.504 64.9034 18.504V18.104C64.5575 18.104 64.2896 18.0829 64.0946 18.0439L64.0162 18.4361ZM72.5508 20L72.515 20.1968L72.515 20.1968L72.5508 20ZM71.4468 19.584L71.3299 19.7463L71.3299 19.7463L71.4468 19.584ZM70.8548 18.816L70.6669 18.8849L70.6691 18.8903L70.8548 18.816ZM70.6148 17.616L70.4151 17.6293L70.4155 17.6337L70.6148 17.616ZM70.6148 14.208L70.4155 14.1903L70.4152 14.1944L70.6148 14.208ZM70.8548 13.008L70.669 12.9337L70.667 12.9391L70.8548 13.008ZM72.5508 11.84L72.5822 12.0376L72.5865 12.0368L72.5508 11.84ZM76.0548 11.84L76.0182 12.0367L76.0233 12.0375L76.0548 11.84ZM77.1588 12.24L77.0419 12.4023L77.0449 12.4044L77.1588 12.24ZM77.7508 13.008L77.5629 13.0769L77.5651 13.0823L77.7508 13.008ZM77.9908 14.208L77.7911 14.2213L77.7916 14.2261L77.9908 14.208ZM77.9908 17.616L77.7915 17.5983L77.7912 17.6027L77.9908 17.616ZM77.7508 18.816L77.565 18.7417L77.563 18.7471L77.7508 18.816ZM77.1588 19.584L77.0449 19.4195L77.0419 19.4217L77.1588 19.584ZM76.0548 20L76.019 19.8032L76.0182 19.8034L76.0548 20ZM75.2388 18.336L75.1944 18.141L75.1924 18.1414L75.2388 18.336ZM75.7188 18.016L75.5444 17.9179L75.5423 17.9219L75.7188 18.016ZM75.8948 14.576L75.6951 14.5885L75.6952 14.5889L75.8948 14.576ZM75.7188 13.824L75.5399 13.9134L75.5433 13.9203L75.5473 13.9269L75.7188 13.824ZM75.2388 13.504L75.1924 13.6988L75.203 13.7008L75.2388 13.504ZM73.3668 13.504L73.4042 13.7007L73.4131 13.6986L73.3668 13.504ZM72.8868 13.824L73.0583 13.9269L73.0611 13.9221L72.8868 13.824ZM72.7108 14.576L72.511 14.5635L72.5109 14.5696L72.7108 14.576ZM72.7108 17.248L72.5108 17.2542L72.5111 17.2605L72.7108 17.248ZM72.8868 18.016L72.7124 18.1141L72.7153 18.1189L72.8868 18.016ZM73.3668 18.336L73.3204 18.5306L73.3204 18.5306L73.3668 18.336ZM74.3108 19.928C73.6137 19.928 73.0399 19.8857 72.5865 19.8032L72.515 20.1968C73.0002 20.285 73.5998 20.328 74.3108 20.328V19.928ZM72.5865 19.8032C72.1342 19.721 71.7978 19.5903 71.5636 19.4217L71.3299 19.7463C71.6291 19.9617 72.0286 20.1083 72.515 20.1968L72.5865 19.8032ZM71.5636 19.4217C71.3293 19.253 71.1551 19.0282 71.0404 18.7417L70.6691 18.8903C70.8104 19.2438 71.0308 19.531 71.3299 19.7463L71.5636 19.4217ZM71.0425 18.7471C70.9331 18.4489 70.8557 18.0674 70.814 17.5983L70.4155 17.6337C70.4592 18.1246 70.5417 18.5431 70.667 18.8849L71.0425 18.7471ZM70.8143 17.6027C70.7827 17.1284 70.7668 16.5624 70.7668 15.904H70.3668C70.3668 16.5683 70.3828 17.1436 70.4152 17.6293L70.8143 17.6027ZM70.7668 15.904C70.7668 15.2455 70.7827 14.685 70.8143 14.2216L70.4152 14.1944C70.3828 14.6697 70.3668 15.2398 70.3668 15.904H70.7668ZM70.814 14.2257C70.8557 13.7566 70.9331 13.3751 71.0425 13.0769L70.667 12.9391C70.5417 13.2809 70.4592 13.6994 70.4155 14.1903L70.814 14.2257ZM71.0404 13.0823C71.1551 12.7958 71.3293 12.571 71.5636 12.4023L71.3299 12.0777C71.0308 12.293 70.8104 12.5802 70.6691 12.9337L71.0404 13.0823ZM71.5636 12.4023C71.7962 12.2349 72.1309 12.1093 72.5822 12.0375L72.5193 11.6425C72.0319 11.72 71.6306 11.8611 71.3299 12.0777L71.5636 12.4023ZM72.5865 12.0368C73.0399 11.9543 73.6137 11.912 74.3108 11.912V11.512C73.5998 11.512 73.0002 11.555 72.515 11.6432L72.5865 12.0368ZM74.3108 11.912C75.008 11.912 75.576 11.9544 76.0182 12.0366L76.0913 11.6434C75.6162 11.555 75.0215 11.512 74.3108 11.512V11.912ZM76.0233 12.0375C76.4746 12.1093 76.8093 12.2349 77.0419 12.4023L77.2756 12.0777C76.9749 11.8611 76.5736 11.72 76.0862 11.6425L76.0233 12.0375ZM77.0449 12.4044C77.288 12.5727 77.4597 12.7951 77.563 13.0769L77.9385 12.9391C77.8072 12.5809 77.5842 12.2913 77.2726 12.0756L77.0449 12.4044ZM77.5651 13.0823C77.6829 13.3768 77.7601 13.7546 77.7912 14.2213L78.1903 14.1947C78.1574 13.7014 78.0746 13.2792 77.9364 12.9337L77.5651 13.0823ZM77.7916 14.2261C77.8335 14.6876 77.8548 15.2465 77.8548 15.904H78.2548C78.2548 15.2388 78.2333 14.6671 78.1899 14.1899L77.7916 14.2261ZM77.8548 15.904C77.8548 16.5614 77.8335 17.1259 77.7915 17.5983L78.19 17.6337C78.2333 17.1461 78.2548 16.5692 78.2548 15.904H77.8548ZM77.7912 17.6027C77.7601 18.0694 77.6829 18.4472 77.5651 18.7417L77.9364 18.8903C78.0746 18.5448 78.1574 18.1226 78.1903 17.6293L77.7912 17.6027ZM77.563 18.7471C77.4597 19.0289 77.288 19.2513 77.0449 19.4196L77.2726 19.7484C77.5842 19.5327 77.8072 19.2431 77.9385 18.8849L77.563 18.7471ZM77.0419 19.4217C76.8077 19.5903 76.4713 19.721 76.019 19.8032L76.0905 20.1968C76.5769 20.1083 76.9764 19.9617 77.2756 19.7463L77.0419 19.4217ZM76.0182 19.8034C75.576 19.8856 75.008 19.928 74.3108 19.928V20.328C75.0215 20.328 75.6162 20.285 76.0913 20.1966L76.0182 19.8034ZM74.3108 18.616C74.7116 18.616 75.0389 18.5892 75.2851 18.5306L75.1924 18.1414C74.9906 18.1895 74.6992 18.216 74.3108 18.216V18.616ZM75.2831 18.531C75.5547 18.4693 75.7743 18.3368 75.8952 18.1101L75.5423 17.9219C75.4925 18.0152 75.3921 18.096 75.1944 18.141L75.2831 18.531ZM75.8931 18.1141C76.011 17.9043 76.0724 17.6126 76.0944 17.2605L75.6951 17.2355C75.6745 17.566 75.6185 17.7863 75.5444 17.9179L75.8931 18.1141ZM76.0944 17.2605C76.1161 16.9133 76.1268 16.4606 76.1268 15.904H75.7268C75.7268 16.4567 75.7161 16.9001 75.6951 17.2355L76.0944 17.2605ZM76.1268 15.904C76.1268 15.3475 76.1161 14.9 76.0943 14.5631L75.6952 14.5889C75.7161 14.9134 75.7268 15.3512 75.7268 15.904H76.1268ZM76.0944 14.5635C76.0724 14.2127 76.0113 13.9229 75.8902 13.7211L75.5473 13.9269C75.6182 14.0451 75.6744 14.2567 75.6951 14.5885L76.0944 14.5635ZM75.8976 13.7346C75.7772 13.4936 75.554 13.358 75.2745 13.3072L75.203 13.7008C75.3929 13.7353 75.4897 13.8131 75.5399 13.9134L75.8976 13.7346ZM75.2851 13.3094C75.0389 13.2508 74.7116 13.224 74.3108 13.224V13.624C74.6992 13.624 74.9906 13.6505 75.1924 13.6986L75.2851 13.3094ZM74.3108 13.224C73.8997 13.224 73.5669 13.2508 73.3204 13.3094L73.4131 13.6986C73.6146 13.6506 73.9111 13.624 74.3108 13.624V13.224ZM73.3293 13.3075C73.058 13.3592 72.8422 13.4952 72.7124 13.7259L73.0611 13.9221C73.1233 13.8115 73.2275 13.7341 73.4042 13.7005L73.3293 13.3075ZM72.7153 13.7211C72.5942 13.9229 72.5331 14.2127 72.5111 14.5635L72.9104 14.5885C72.9311 14.2567 72.9873 14.0451 73.0582 13.9269L72.7153 13.7211ZM72.5109 14.5696C72.5001 14.9033 72.4948 15.3484 72.4948 15.904H72.8948C72.8948 15.3503 72.9001 14.91 72.9106 14.5824L72.5109 14.5696ZM72.4948 15.904C72.4948 16.4596 72.5001 16.91 72.5108 17.2542L72.9107 17.2418C72.9001 16.9034 72.8948 16.4577 72.8948 15.904H72.4948ZM72.5111 17.2605C72.5331 17.6126 72.5945 17.9043 72.7124 18.1141L73.0611 17.9179C72.987 17.7863 72.931 17.566 72.9104 17.2355L72.5111 17.2605ZM72.7153 18.1189C72.8452 18.3354 73.0571 18.4679 73.3204 18.5306L73.4131 18.1414C73.2284 18.0975 73.1203 18.0166 73.0582 17.9131L72.7153 18.1189ZM73.3204 18.5306C73.5669 18.5892 73.8997 18.616 74.3108 18.616V18.216C73.9111 18.216 73.6146 18.1894 73.4131 18.1414L73.3204 18.5306Z" fill="black"/>
<defs>
<linearGradient id="paint0_linear_2_3" x1="0" y1="0" x2="16.5138" y2="55.0459" gradientUnits="userSpaceOnUse">
<stop stop-color="#FF8080"/>
<stop offset="1" stop-color="#CC6767"/>
</linearGradient>
</defs>
</svg>
