<svg width="100" height="30" viewBox="0 0 100 30" fill="none" xmlns="http://www.w3.org/2000/svg">
<rect width="100" height="30" rx="5" fill="url(#paint0_linear_2_4)"/>
<path d="M5.49 20L9.218 8.992H12.258L15.986 20H13.666L12.85 17.568H8.546L7.762 20H5.49ZM9.122 15.728H12.258L10.738 11.056H10.642L9.122 15.728ZM21.4839 20V8.992H23.7559V20H21.4839ZM26.1985 20V11.84H28.1825L28.2465 12.864H28.3585C28.4972 12.608 28.6732 12.3947 28.8865 12.224C29.1105 12.0427 29.3718 11.9147 29.6705 11.84C29.9798 11.7547 30.3265 11.712 30.7105 11.712C31.3612 11.712 31.8518 11.808 32.1825 12C32.5238 12.1813 32.7638 12.4693 32.9025 12.864H33.0305C33.1692 12.608 33.3505 12.3947 33.5745 12.224C33.8092 12.0427 34.0812 11.9147 34.3905 11.84C34.6998 11.7547 35.0518 11.712 35.4465 11.712C36.1398 11.712 36.6572 11.8347 36.9985 12.08C37.3398 12.3147 37.5692 12.672 37.6865 13.152C37.8038 13.6213 37.8625 14.2027 37.8625 14.896V20H35.7505V15.68C35.7505 15.1893 35.7345 14.8 35.7025 14.512C35.6705 14.224 35.6118 14.0107 35.5265 13.872C35.4518 13.7333 35.3292 13.648 35.1585 13.616C34.9878 13.5733 34.7585 13.552 34.4705 13.552C34.1612 13.552 33.9105 13.5947 33.7185 13.68C33.5372 13.7547 33.3985 13.8773 33.3025 14.048C33.2172 14.2187 33.1585 14.448 33.1265 14.736C33.1052 15.0133 33.0945 15.36 33.0945 15.776V20H30.9665V15.68C30.9665 15.1893 30.9505 14.8 30.9185 14.512C30.8972 14.224 30.8438 14.0107 30.7585 13.872C30.6732 13.7333 30.5452 13.648 30.3745 13.616C30.2038 13.5733 29.9798 13.552 29.7025 13.552C29.3932 13.552 29.1425 13.5947 28.9505 13.68C28.7692 13.7547 28.6305 13.8773 28.5345 14.048C28.4492 14.2187 28.3905 14.448 28.3585 14.736C28.3265 15.024 28.3105 15.3707 28.3105 15.776V20H26.1985ZM40.1516 23.184V11.84H42.1356L42.1996 12.864H42.3116C42.4823 12.544 42.6956 12.304 42.9516 12.144C43.2076 11.9733 43.4903 11.8613 43.7996 11.808C44.109 11.744 44.4183 11.712 44.7276 11.712C45.229 11.712 45.6556 11.7813 46.0076 11.92C46.3703 12.048 46.6636 12.272 46.8876 12.592C47.1116 12.9013 47.2716 13.328 47.3676 13.872C47.4743 14.416 47.5276 15.0933 47.5276 15.904C47.5276 16.7147 47.4743 17.392 47.3676 17.936C47.2716 18.48 47.117 18.912 46.9036 19.232C46.6903 19.552 46.4076 19.7813 46.0556 19.92C45.7143 20.0587 45.293 20.128 44.7916 20.128C44.4396 20.128 44.109 20.096 43.7996 20.032C43.501 19.9787 43.2343 19.8827 42.9996 19.744C42.765 19.5947 42.5623 19.3813 42.3916 19.104H42.2636V23.184H40.1516ZM43.8316 18.288C44.1836 18.288 44.4663 18.2667 44.6796 18.224C44.893 18.1707 45.0476 18.0693 45.1436 17.92C45.2503 17.76 45.3196 17.5253 45.3516 17.216C45.3836 16.896 45.3996 16.464 45.3996 15.92C45.3996 15.376 45.3836 14.944 45.3516 14.624C45.3196 14.304 45.2503 14.0693 45.1436 13.92C45.0476 13.76 44.893 13.6587 44.6796 13.616C44.4663 13.5627 44.1836 13.536 43.8316 13.536C43.4476 13.536 43.1543 13.5893 42.9516 13.696C42.749 13.792 42.5943 13.9467 42.4876 14.16C42.3916 14.352 42.3276 14.5973 42.2956 14.896C42.2743 15.184 42.2636 15.5253 42.2636 15.92C42.2636 16.3253 42.2743 16.672 42.2956 16.96C42.3276 17.2373 42.3863 17.472 42.4716 17.664C42.5783 17.888 42.7383 18.048 42.9516 18.144C43.165 18.24 43.4583 18.288 43.8316 18.288ZM49.511 20V8.112H51.639V20H49.511ZM55.9173 20.128C55.3946 20.128 54.9519 20.0533 54.5893 19.904C54.2266 19.744 53.9493 19.488 53.7573 19.136C53.5759 18.7733 53.4853 18.2987 53.4853 17.712C53.4853 17.0827 53.5599 16.5867 53.7093 16.224C53.8586 15.8507 54.1199 15.584 54.4933 15.424C54.8666 15.2533 55.3839 15.168 56.0453 15.168C56.1519 15.168 56.3013 15.1733 56.4933 15.184C56.6853 15.184 56.9039 15.1893 57.1493 15.2C57.3946 15.2 57.6399 15.2053 57.8853 15.216C58.1306 15.216 58.3546 15.2213 58.5573 15.232V14.912C58.5573 14.56 58.5306 14.2827 58.4773 14.08C58.4239 13.8773 58.3226 13.728 58.1733 13.632C58.0239 13.536 57.8053 13.4773 57.5173 13.456C57.2293 13.4347 56.8559 13.424 56.3973 13.424C56.1626 13.424 55.8906 13.4293 55.5813 13.44C55.2719 13.4507 54.9733 13.4667 54.6853 13.488C54.3973 13.5093 54.1679 13.5307 53.9973 13.552V11.952C54.4559 11.8773 54.9519 11.8187 55.4853 11.776C56.0186 11.7333 56.5573 11.712 57.1013 11.712C57.7413 11.712 58.2746 11.7547 58.7013 11.84C59.1386 11.9147 59.4853 12.0373 59.7413 12.208C60.0079 12.3787 60.2053 12.5973 60.3333 12.864C60.4719 13.12 60.5626 13.4293 60.6053 13.792C60.6479 14.144 60.6693 14.5493 60.6693 15.008V20H58.7013L58.6373 19.008H58.5093C58.3279 19.3387 58.0879 19.584 57.7893 19.744C57.5013 19.904 57.1919 20.0053 56.8613 20.048C56.5413 20.1013 56.2266 20.128 55.9173 20.128ZM56.9253 18.496C57.1599 18.496 57.3626 18.48 57.5333 18.448C57.7146 18.416 57.8693 18.3627 57.9973 18.288C58.1359 18.2027 58.2426 18.096 58.3173 17.968C58.3919 17.8293 58.4506 17.6587 58.4933 17.456C58.5359 17.2533 58.5573 17.008 58.5573 16.72V16.48H56.6213C56.3226 16.48 56.0933 16.5013 55.9333 16.544C55.7733 16.5867 55.6666 16.6827 55.6133 16.832C55.5599 16.9813 55.5333 17.2053 55.5333 17.504C55.5333 17.7813 55.5653 17.9947 55.6293 18.144C55.6933 18.2827 55.8266 18.3787 56.0293 18.432C56.2319 18.4747 56.5306 18.496 56.9253 18.496ZM62.9641 20V11.84H64.9481L65.0121 12.864H65.1401C65.2895 12.5973 65.4708 12.3787 65.6841 12.208C65.9081 12.0373 66.1801 11.9147 66.5001 11.84C66.8308 11.7547 67.2041 11.712 67.6201 11.712C68.1748 11.712 68.6175 11.7813 68.9481 11.92C69.2895 12.0587 69.5508 12.2613 69.7321 12.528C69.9135 12.7947 70.0308 13.1253 70.0841 13.52C70.1481 13.9147 70.1801 14.3733 70.1801 14.896V20H68.0681V15.68C68.0681 15.1893 68.0521 14.8 68.0201 14.512C67.9881 14.224 67.9241 14.0107 67.8281 13.872C67.7321 13.7333 67.5881 13.648 67.3961 13.616C67.2041 13.5733 66.9481 13.552 66.6281 13.552C66.2868 13.552 66.0095 13.5947 65.7961 13.68C65.5935 13.7547 65.4388 13.8827 65.3321 14.064C65.2361 14.2347 65.1668 14.464 65.1241 14.752C65.0921 15.0293 65.0761 15.3707 65.0761 15.776V20H62.9641ZM73.2165 20V13.552H71.6485V11.84H73.2165V9.472H75.3445V11.84H77.2005V13.552H75.3445V20H73.2165ZM80.5266 20.128C80.004 20.128 79.5613 20.0533 79.1986 19.904C78.836 19.744 78.5586 19.488 78.3666 19.136C78.1853 18.7733 78.0946 18.2987 78.0946 17.712C78.0946 17.0827 78.1693 16.5867 78.3186 16.224C78.468 15.8507 78.7293 15.584 79.1026 15.424C79.476 15.2533 79.9933 15.168 80.6546 15.168C80.7613 15.168 80.9106 15.1733 81.1026 15.184C81.2946 15.184 81.5133 15.1893 81.7586 15.2C82.004 15.2 82.2493 15.2053 82.4946 15.216C82.74 15.216 82.964 15.2213 83.1666 15.232V14.912C83.1666 14.56 83.14 14.2827 83.0866 14.08C83.0333 13.8773 82.932 13.728 82.7826 13.632C82.6333 13.536 82.4146 13.4773 82.1266 13.456C81.8386 13.4347 81.4653 13.424 81.0066 13.424C80.772 13.424 80.5 13.4293 80.1906 13.44C79.8813 13.4507 79.5826 13.4667 79.2946 13.488C79.0066 13.5093 78.7773 13.5307 78.6066 13.552V11.952C79.0653 11.8773 79.5613 11.8187 80.0946 11.776C80.628 11.7333 81.1666 11.712 81.7106 11.712C82.3506 11.712 82.884 11.7547 83.3106 11.84C83.748 11.9147 84.0946 12.0373 84.3506 12.208C84.6173 12.3787 84.8146 12.5973 84.9426 12.864C85.0813 13.12 85.172 13.4293 85.2146 13.792C85.2573 14.144 85.2786 14.5493 85.2786 15.008V20H83.3106L83.2466 19.008H83.1186C82.9373 19.3387 82.6973 19.584 82.3986 19.744C82.1106 19.904 81.8013 20.0053 81.4706 20.048C81.1506 20.1013 80.836 20.128 80.5266 20.128ZM81.5346 18.496C81.7693 18.496 81.972 18.48 82.1426 18.448C82.324 18.416 82.4786 18.3627 82.6066 18.288C82.7453 18.2027 82.852 18.096 82.9266 17.968C83.0013 17.8293 83.06 17.6587 83.1026 17.456C83.1453 17.2533 83.1666 17.008 83.1666 16.72V16.48H81.2306C80.932 16.48 80.7026 16.5013 80.5426 16.544C80.3826 16.5867 80.276 16.6827 80.2226 16.832C80.1693 16.9813 80.1426 17.2053 80.1426 17.504C80.1426 17.7813 80.1746 17.9947 80.2386 18.144C80.3026 18.2827 80.436 18.3787 80.6386 18.432C80.8413 18.4747 81.14 18.496 81.5346 18.496ZM87.5735 20V11.84H89.5575L89.6215 13.248H89.7495C89.8882 12.8427 90.0748 12.528 90.3095 12.304C90.5548 12.08 90.8482 11.9253 91.1895 11.84C91.5308 11.7547 91.9202 11.712 92.3575 11.712V13.728C91.6642 13.728 91.1202 13.824 90.7255 14.016C90.3415 14.208 90.0695 14.5227 89.9095 14.96C89.7602 15.3973 89.6855 15.9893 89.6855 16.736V20H87.5735Z" fill="white"/>
<path d="M5.49 20L5.30057 19.9358L5.21111 20.2H5.49V20ZM9.218 8.992V8.792H9.07457L9.02857 8.92785L9.218 8.992ZM12.258 8.992L12.4474 8.92785L12.4014 8.792H12.258V8.992ZM15.986 20V20.2H16.2649L16.1754 19.9358L15.986 20ZM13.666 20L13.4764 20.0636L13.5221 20.2H13.666V20ZM12.85 17.568L13.0396 17.5044L12.9939 17.368H12.85V17.568ZM8.546 17.568V17.368H8.40034L8.35565 17.5066L8.546 17.568ZM7.762 20V20.2H7.90766L7.95235 20.0614L7.762 20ZM9.122 15.728L8.93181 15.6661L8.84661 15.928H9.122V15.728ZM12.258 15.728V15.928H12.5334L12.4482 15.6661L12.258 15.728ZM10.738 11.056L10.9282 10.9941L10.8833 10.856H10.738V11.056ZM10.642 11.056V10.856H10.4968L10.4518 10.9941L10.642 11.056ZM5.67943 20.0642L9.40743 9.05615L9.02857 8.92785L5.30057 19.9358L5.67943 20.0642ZM9.218 9.192H12.258V8.792H9.218V9.192ZM12.0686 9.05615L15.7966 20.0642L16.1754 19.9358L12.4474 8.92785L12.0686 9.05615ZM15.986 19.8H13.666V20.2H15.986V19.8ZM13.8556 19.9364L13.0396 17.5044L12.6604 17.6316L13.4764 20.0636L13.8556 19.9364ZM12.85 17.368H8.546V17.768H12.85V17.368ZM8.35565 17.5066L7.57165 19.9386L7.95235 20.0614L8.73635 17.6294L8.35565 17.5066ZM7.762 19.8H5.49V20.2H7.762V19.8ZM9.122 15.928H12.258V15.528H9.122V15.928ZM12.4482 15.6661L10.9282 10.9941L10.5478 11.1179L12.0678 15.7899L12.4482 15.6661ZM10.738 10.856H10.642V11.256H10.738V10.856ZM10.4518 10.9941L8.93181 15.6661L9.31219 15.7899L10.8322 11.1179L10.4518 10.9941ZM21.4839 20H21.2839V20.2H21.4839V20ZM21.4839 8.992V8.792H21.2839V8.992H21.4839ZM23.7559 8.992H23.9559V8.792H23.7559V8.992ZM23.7559 20V20.2H23.9559V20H23.7559ZM21.6839 20V8.992H21.2839V20H21.6839ZM21.4839 9.192H23.7559V8.792H21.4839V9.192ZM23.5559 8.992V20H23.9559V8.992H23.5559ZM23.7559 19.8H21.4839V20.2H23.7559V19.8ZM26.1985 20H25.9985V20.2H26.1985V20ZM26.1985 11.84V11.64H25.9985V11.84H26.1985ZM28.1825 11.84L28.3821 11.8275L28.3704 11.64H28.1825V11.84ZM28.2465 12.864L28.0469 12.8765L28.0586 13.064H28.2465V12.864ZM28.3585 12.864V13.064H28.4776L28.5344 12.9593L28.3585 12.864ZM28.8865 12.224L29.0114 12.3802L29.0123 12.3794L28.8865 12.224ZM29.6705 11.84L29.719 12.0341L29.7237 12.0328L29.6705 11.84ZM32.1825 12L32.082 12.1731L32.0887 12.1766L32.1825 12ZM32.9025 12.864L32.7138 12.9303L32.7608 13.064H32.9025V12.864ZM33.0305 12.864V13.064H33.1496L33.2064 12.9593L33.0305 12.864ZM33.5745 12.224L33.6957 12.3831L33.6968 12.3823L33.5745 12.224ZM34.3905 11.84L34.4375 12.0345L34.4437 12.0328L34.3905 11.84ZM36.9985 12.08L36.8817 12.2424L36.8852 12.2448L36.9985 12.08ZM37.6865 13.152L37.4922 13.1995L37.4925 13.2005L37.6865 13.152ZM37.8625 20V20.2H38.0625V20H37.8625ZM35.7505 20H35.5505V20.2H35.7505V20ZM35.7025 14.512L35.5037 14.5341L35.5037 14.5341L35.7025 14.512ZM35.5265 13.872L35.3501 13.967L35.3562 13.9768L35.5265 13.872ZM35.1585 13.616L35.1099 13.8104L35.1216 13.8126L35.1585 13.616ZM33.7185 13.68L33.7947 13.865L33.7997 13.8628L33.7185 13.68ZM33.3025 14.048L33.128 13.9498L33.1236 13.9586L33.3025 14.048ZM33.1265 14.736L32.9276 14.7139L32.9271 14.7207L33.1265 14.736ZM33.0945 20V20.2H33.2945V20H33.0945ZM30.9665 20H30.7665V20.2H30.9665V20ZM30.9185 14.512L30.7189 14.5268L30.7197 14.5341L30.9185 14.512ZM30.7585 13.872L30.5882 13.9768L30.5882 13.9768L30.7585 13.872ZM30.3745 13.616L30.3259 13.8104L30.3376 13.8126L30.3745 13.616ZM28.9505 13.68L29.0267 13.865L29.0317 13.8628L28.9505 13.68ZM28.5345 14.048L28.36 13.9498L28.3556 13.9586L28.5345 14.048ZM28.3585 14.736L28.5573 14.7581L28.5573 14.7581L28.3585 14.736ZM28.3105 20V20.2H28.5105V20H28.3105ZM26.3985 20V11.84H25.9985V20H26.3985ZM26.1985 12.04H28.1825V11.64H26.1985V12.04ZM27.9829 11.8525L28.0469 12.8765L28.4461 12.8515L28.3821 11.8275L27.9829 11.8525ZM28.2465 13.064H28.3585V12.664H28.2465V13.064ZM28.5344 12.9593C28.6611 12.7252 28.8203 12.5331 29.0114 12.3802L28.7616 12.0678C28.526 12.2563 28.3332 12.4908 28.1826 12.7687L28.5344 12.9593ZM29.0123 12.3794C29.2122 12.2177 29.4467 12.1021 29.719 12.034L29.622 11.646C29.297 11.7272 29.0088 11.8676 28.7607 12.0686L29.0123 12.3794ZM29.7237 12.0328C30.0127 11.9531 30.3411 11.912 30.7105 11.912V11.512C30.3119 11.512 29.947 11.5563 29.6173 11.6472L29.7237 12.0328ZM30.7105 11.912C31.3477 11.912 31.7964 12.0071 32.0821 12.173L32.2829 11.827C31.9073 11.6089 31.3747 11.512 30.7105 11.512V11.912ZM32.0887 12.1766C32.3818 12.3324 32.5903 12.5788 32.7138 12.9303L33.0912 12.7977C32.9374 12.3599 32.6658 12.0303 32.2763 11.8234L32.0887 12.1766ZM32.9025 13.064H33.0305V12.664H32.9025V13.064ZM33.2064 12.9593C33.332 12.7273 33.495 12.536 33.6957 12.3831L33.4533 12.0649C33.206 12.2533 33.0063 12.4887 32.8546 12.7687L33.2064 12.9593ZM33.6968 12.3823C33.9076 12.2194 34.1535 12.103 34.4374 12.0344L34.3436 11.6456C34.0089 11.7264 33.7108 11.8659 33.4522 12.0657L33.6968 12.3823ZM34.4437 12.0328C34.7323 11.9532 35.0659 11.912 35.4465 11.912V11.512C35.0378 11.512 34.6674 11.5561 34.3373 11.6472L34.4437 12.0328ZM35.4465 11.912C36.1227 11.912 36.5902 12.0328 36.8818 12.2424L37.1152 11.9176C36.7242 11.6365 36.157 11.512 35.4465 11.512V11.912ZM36.8852 12.2448C37.1785 12.4465 37.3842 12.7575 37.4922 13.1995L37.8808 13.1045C37.7542 12.5865 37.5012 12.1829 37.1118 11.9152L36.8852 12.2448ZM37.4925 13.2005C37.6045 13.6488 37.6625 14.2126 37.6625 14.896H38.0625C38.0625 14.1927 38.0031 13.5939 37.8805 13.1035L37.4925 13.2005ZM37.6625 14.896V20H38.0625V14.896H37.6625ZM37.8625 19.8H35.7505V20.2H37.8625V19.8ZM35.9505 20V15.68H35.5505V20H35.9505ZM35.9505 15.68C35.9505 15.1863 35.9345 14.7885 35.9013 14.4899L35.5037 14.5341C35.5345 14.8115 35.5505 15.1924 35.5505 15.68H35.9505ZM35.9013 14.4899C35.8682 14.192 35.8054 13.9435 35.6968 13.7672L35.3562 13.9768C35.4183 14.0778 35.4728 14.256 35.5037 14.5341L35.9013 14.4899ZM35.7026 13.7772C35.5961 13.5794 35.4185 13.4613 35.1954 13.4194L35.1216 13.8126C35.2398 13.8347 35.3076 13.8873 35.3504 13.9668L35.7026 13.7772ZM35.207 13.422C35.0137 13.3736 34.7659 13.352 34.4705 13.352V13.752C34.7511 13.752 34.962 13.773 35.11 13.81L35.207 13.422ZM34.4705 13.352C34.1453 13.352 33.864 13.3965 33.6373 13.4972L33.7997 13.8628C33.957 13.7929 34.1771 13.752 34.4705 13.752V13.352ZM33.6424 13.4951C33.4195 13.5868 33.2463 13.7401 33.1282 13.9499L33.4768 14.1461C33.5507 14.0146 33.6548 13.9225 33.7947 13.8649L33.6424 13.4951ZM33.1236 13.9586C33.0237 14.1583 32.9611 14.4134 32.9277 14.7139L33.3253 14.7581C33.3559 14.4826 33.4106 14.279 33.4814 14.1374L33.1236 13.9586ZM32.9271 14.7207C32.9052 15.0049 32.8945 15.3571 32.8945 15.776H33.2945C33.2945 15.3629 33.3051 15.0217 33.3259 14.7513L32.9271 14.7207ZM32.8945 15.776V20H33.2945V15.776H32.8945ZM33.0945 19.8H30.9665V20.2H33.0945V19.8ZM31.1665 20V15.68H30.7665V20H31.1665ZM31.1665 15.68C31.1665 15.1863 31.1505 14.7885 31.1173 14.4899L30.7197 14.5341C30.7505 14.8115 30.7665 15.1924 30.7665 15.68H31.1665ZM31.118 14.4972C31.0958 14.1984 31.0393 13.9467 30.9288 13.7672L30.5882 13.9768C30.6483 14.0746 30.6985 14.2496 30.719 14.5268L31.118 14.4972ZM30.9288 13.7672C30.8118 13.577 30.6333 13.461 30.4114 13.4194L30.3376 13.8126C30.457 13.835 30.5345 13.8897 30.5882 13.9768L30.9288 13.7672ZM30.423 13.422C30.2301 13.3737 29.988 13.352 29.7025 13.352V13.752C29.9717 13.752 30.1776 13.7729 30.326 13.81L30.423 13.422ZM29.7025 13.352C29.3773 13.352 29.096 13.3965 28.8693 13.4972L29.0317 13.8628C29.189 13.7929 29.4091 13.752 29.7025 13.752V13.352ZM28.8744 13.4951C28.6515 13.5868 28.4783 13.7401 28.3602 13.9499L28.7088 14.1461C28.7827 14.0146 28.8868 13.9225 29.0267 13.8649L28.8744 13.4951ZM28.3556 13.9586C28.2557 14.1583 28.1931 14.4134 28.1597 14.7139L28.5573 14.7581C28.5879 14.4826 28.6426 14.279 28.7134 14.1374L28.3556 13.9586ZM28.1597 14.7139C28.1267 15.0115 28.1105 15.366 28.1105 15.776H28.5105C28.5105 15.3754 28.5263 15.0365 28.5573 14.7581L28.1597 14.7139ZM28.1105 15.776V20H28.5105V15.776H28.1105ZM28.3105 19.8H26.1985V20.2H28.3105V19.8ZM40.1516 23.184H39.9516V23.384H40.1516V23.184ZM40.1516 11.84V11.64H39.9516V11.84H40.1516ZM42.1356 11.84L42.3352 11.8275L42.3235 11.64H42.1356V11.84ZM42.1996 12.864L42 12.8765L42.0117 13.064H42.1996V12.864ZM42.3116 12.864V13.064H42.4316L42.4881 12.9581L42.3116 12.864ZM42.9516 12.144L43.0577 12.3137L43.0626 12.3104L42.9516 12.144ZM43.7996 11.808L43.8336 12.0052L43.8401 12.0039L43.7996 11.808ZM46.0076 11.92L45.9343 12.1062L45.9411 12.1086L46.0076 11.92ZM46.8876 12.592L46.7238 12.7067L46.7256 12.7093L46.8876 12.592ZM47.3676 13.872L47.1706 13.9068L47.1714 13.9105L47.3676 13.872ZM47.3676 17.936L47.1713 17.8975L47.1707 17.9012L47.3676 17.936ZM46.9036 19.232L47.07 19.3429L47.07 19.3429L46.9036 19.232ZM46.0556 19.92L45.9823 19.7339L45.9804 19.7347L46.0556 19.92ZM43.7996 20.032L43.8402 19.8361L43.8348 19.8351L43.7996 20.032ZM42.9996 19.744L42.8922 19.9128L42.8979 19.9162L42.9996 19.744ZM42.3916 19.104L42.562 18.9992L42.5034 18.904H42.3916V19.104ZM42.2636 19.104V18.904H42.0636V19.104H42.2636ZM42.2636 23.184V23.384H42.4636V23.184H42.2636ZM44.6796 18.224L44.7189 18.4203L44.7281 18.418L44.6796 18.224ZM45.1436 17.92L44.9772 17.809L44.9754 17.8118L45.1436 17.92ZM45.3516 17.216L45.5506 17.2366L45.5506 17.2359L45.3516 17.216ZM45.3516 14.624L45.5506 14.6041L45.5506 14.6041L45.3516 14.624ZM45.1436 13.92L44.9721 14.0229L44.9762 14.0297L44.9809 14.0362L45.1436 13.92ZM44.6796 13.616L44.6311 13.8102L44.6404 13.8121L44.6796 13.616ZM42.9516 13.696L43.0373 13.8769L43.0448 13.873L42.9516 13.696ZM42.2956 14.896L42.0967 14.8747L42.0962 14.8812L42.2956 14.896ZM42.2956 16.96L42.096 16.9748L42.0969 16.9829L42.2956 16.96ZM42.4716 17.664L42.2888 17.7453L42.2911 17.75L42.4716 17.664ZM42.9516 18.144L42.8696 18.3264L42.9516 18.144ZM40.3516 23.184V11.84H39.9516V23.184H40.3516ZM40.1516 12.04H42.1356V11.64H40.1516V12.04ZM41.936 11.8525L42 12.8765L42.3992 12.8515L42.3352 11.8275L41.936 11.8525ZM42.1996 13.064H42.3116V12.664H42.1996V13.064ZM42.4881 12.9581C42.6456 12.6628 42.8368 12.4516 43.0576 12.3136L42.8456 11.9744C42.5545 12.1564 42.319 12.4252 42.1352 12.7699L42.4881 12.9581ZM43.0626 12.3104C43.2949 12.1555 43.5512 12.0538 43.8336 12.0051L43.7656 11.6109C43.4294 11.6689 43.1204 11.7911 42.8407 11.9776L43.0626 12.3104ZM43.8401 12.0039C44.1364 11.9426 44.4322 11.912 44.7276 11.912V11.512C44.4044 11.512 44.0815 11.5454 43.7591 11.6121L43.8401 12.0039ZM44.7276 11.912C45.2116 11.912 45.6119 11.9791 45.9343 12.1061L46.0809 11.7339C45.6994 11.5836 45.2463 11.512 44.7276 11.512V11.912ZM45.9411 12.1086C46.2637 12.2225 46.5233 12.4203 46.7238 12.7067L47.0515 12.4773C46.8039 12.1237 46.4769 11.8735 46.0742 11.7314L45.9411 12.1086ZM46.7256 12.7093C46.9258 12.9857 47.0778 13.3802 47.1707 13.9068L47.5646 13.8372C47.4655 13.2758 47.2975 12.817 47.0496 12.4747L46.7256 12.7093ZM47.1714 13.9105C47.2747 14.4375 47.3276 15.1009 47.3276 15.904H47.7276C47.7276 15.0858 47.6739 14.3945 47.5639 13.8335L47.1714 13.9105ZM47.3276 15.904C47.3276 16.7071 47.2747 17.3705 47.1714 17.8975L47.5639 17.9745C47.6739 17.4135 47.7276 16.7222 47.7276 15.904H47.3276ZM47.1707 17.9012C47.0775 18.429 46.93 18.8318 46.7372 19.1211L47.07 19.3429C47.3039 18.9922 47.4657 18.531 47.5646 17.9708L47.1707 17.9012ZM46.7372 19.1211C46.5461 19.4077 46.2957 19.6105 45.9823 19.7339L46.1289 20.1061C46.5196 19.9522 46.8345 19.6963 47.07 19.3429L46.7372 19.1211ZM45.9804 19.7347C45.6699 19.8608 45.2759 19.928 44.7916 19.928V20.328C45.31 20.328 45.7587 20.2565 46.1309 20.1053L45.9804 19.7347ZM44.7916 19.928C44.4517 19.928 44.1347 19.8971 43.8401 19.8361L43.7591 20.2279C44.0832 20.2949 44.4275 20.328 44.7916 20.328V19.928ZM43.8348 19.8351C43.557 19.7855 43.3133 19.697 43.1014 19.5718L42.8979 19.9162C43.1553 20.0683 43.445 20.1718 43.7645 20.2289L43.8348 19.8351ZM43.107 19.5753C42.9019 19.4448 42.7194 19.2551 42.562 18.9992L42.2213 19.2088C42.4051 19.5076 42.628 19.7446 42.8923 19.9127L43.107 19.5753ZM42.3916 18.904H42.2636V19.304H42.3916V18.904ZM42.0636 19.104V23.184H42.4636V19.104H42.0636ZM42.2636 22.984H40.1516V23.384H42.2636V22.984ZM43.8316 18.488C44.1898 18.488 44.4872 18.4664 44.7188 18.4201L44.6404 18.0279C44.4454 18.0669 44.1775 18.088 43.8316 18.088V18.488ZM44.7281 18.418C44.9785 18.3554 45.1821 18.2299 45.3119 18.0282L44.9754 17.8118C44.9131 17.9087 44.8074 17.9859 44.6311 18.03L44.7281 18.418ZM45.31 18.0309C45.4425 17.8322 45.5171 17.5604 45.5506 17.2366L45.1527 17.1954C45.1222 17.4902 45.058 17.6878 44.9772 17.8091L45.31 18.0309ZM45.5506 17.2359C45.5836 16.9063 45.5996 16.4668 45.5996 15.92H45.1996C45.1996 16.4612 45.1837 16.8857 45.1526 17.1961L45.5506 17.2359ZM45.5996 15.92C45.5996 15.3732 45.5836 14.9337 45.5506 14.6041L45.1526 14.6439C45.1837 14.9543 45.1996 15.3788 45.1996 15.92H45.5996ZM45.5506 14.6041C45.5174 14.272 45.4434 13.9956 45.3064 13.8038L44.9809 14.0362C45.0572 14.1431 45.1218 14.336 45.1526 14.6439L45.5506 14.6041ZM45.3151 13.8171C45.1852 13.6006 44.9774 13.4716 44.7188 13.4199L44.6404 13.8121C44.8085 13.8457 44.91 13.9194 44.9721 14.0229L45.3151 13.8171ZM44.7281 13.422C44.4924 13.363 44.1915 13.336 43.8316 13.336V13.736C44.1758 13.736 44.4402 13.7623 44.6311 13.81L44.7281 13.422ZM43.8316 13.336C43.4345 13.336 43.1031 13.3903 42.8585 13.519L43.0448 13.873C43.2055 13.7884 43.4608 13.736 43.8316 13.736V13.336ZM42.866 13.5153C42.6202 13.6317 42.434 13.8199 42.3087 14.0706L42.6665 14.2494C42.7545 14.0734 42.8777 13.9523 43.0372 13.8767L42.866 13.5153ZM42.3087 14.0706C42.1987 14.2906 42.1304 14.5611 42.0968 14.8747L42.4945 14.9173C42.5249 14.6336 42.5845 14.4134 42.6665 14.2494L42.3087 14.0706ZM42.0962 14.8812C42.0744 15.1755 42.0636 15.5221 42.0636 15.92H42.4636C42.4636 15.5286 42.4742 15.1925 42.4951 14.9108L42.0962 14.8812ZM42.0636 15.92C42.0636 16.3285 42.0744 16.6803 42.0962 16.9748L42.4951 16.9452C42.4742 16.6637 42.4636 16.3222 42.4636 15.92H42.0636ZM42.0969 16.9829C42.1306 17.2742 42.1931 17.5298 42.2889 17.7452L42.6544 17.5828C42.5795 17.4142 42.5247 17.2005 42.4943 16.9371L42.0969 16.9829ZM42.2911 17.75C42.4168 18.014 42.6102 18.2097 42.8696 18.3264L43.0337 17.9616C42.8663 17.8863 42.7398 17.762 42.6522 17.578L42.2911 17.75ZM42.8696 18.3264C43.1195 18.4389 43.445 18.488 43.8316 18.488V18.088C43.4716 18.088 43.2104 18.0411 43.0337 17.9616L42.8696 18.3264ZM49.511 20H49.311V20.2H49.511V20ZM49.511 8.112V7.912H49.311V8.112H49.511ZM51.639 8.112H51.839V7.912H51.639V8.112ZM51.639 20V20.2H51.839V20H51.639ZM49.711 20V8.112H49.311V20H49.711ZM49.511 8.312H51.639V7.912H49.511V8.312ZM51.439 8.112V20H51.839V8.112H51.439ZM51.639 19.8H49.511V20.2H51.639V19.8ZM54.5893 19.904L54.5085 20.087L54.5131 20.0889L54.5893 19.904ZM53.7573 19.136L53.5783 19.2255L53.5817 19.2318L53.7573 19.136ZM53.7093 16.224L53.8942 16.3002L53.8949 16.2983L53.7093 16.224ZM54.4933 15.424L54.5721 15.6079L54.5764 15.6059L54.4933 15.424ZM56.4933 15.184L56.4821 15.384H56.4933V15.184ZM57.1493 15.2L57.1406 15.4H57.1493V15.2ZM57.8853 15.216L57.8766 15.416H57.8853V15.216ZM58.5573 15.232L58.5467 15.4317L58.7573 15.4428V15.232H58.5573ZM58.4773 14.08L58.2838 14.1309L58.2838 14.1309L58.4773 14.08ZM58.1733 13.632L58.2814 13.4638L58.2814 13.4638L58.1733 13.632ZM57.5173 13.456L57.5025 13.6555L57.5025 13.6555L57.5173 13.456ZM55.5813 13.44L55.5744 13.2401L55.5744 13.2401L55.5813 13.44ZM54.6853 13.488L54.7 13.6875L54.7 13.6875L54.6853 13.488ZM53.9973 13.552H53.7973V13.7786L54.0221 13.7505L53.9973 13.552ZM53.9973 11.952L53.9651 11.7546L53.7973 11.7819V11.952H53.9973ZM55.4853 11.776L55.5012 11.9754L55.5012 11.9754L55.4853 11.776ZM58.7013 11.84L58.662 12.0362L58.6676 12.0371L58.7013 11.84ZM59.7413 12.208L59.6303 12.3744L59.6334 12.3765L59.7413 12.208ZM60.3333 12.864L60.1527 12.9506L60.1574 12.9593L60.3333 12.864ZM60.6053 13.792L60.4066 13.8154L60.4067 13.8161L60.6053 13.792ZM60.6693 20V20.2H60.8693V20H60.6693ZM58.7013 20L58.5017 20.0129L58.5137 20.2H58.7013V20ZM58.6373 19.008L58.8368 18.9951L58.8248 18.808H58.6373V19.008ZM58.5093 19.008V18.808H58.3908L58.3339 18.9118L58.5093 19.008ZM57.7893 19.744L57.6948 19.5677L57.6921 19.5692L57.7893 19.744ZM56.8613 20.048L56.8356 19.8495L56.8284 19.8507L56.8613 20.048ZM57.5333 18.448L57.4985 18.251L57.4964 18.2514L57.5333 18.448ZM57.9973 18.288L58.0981 18.4608L58.1021 18.4583L57.9973 18.288ZM58.3173 17.968L58.4901 18.0688L58.4933 18.0628L58.3173 17.968ZM58.4933 17.456L58.2975 17.4148L58.2975 17.4148L58.4933 17.456ZM58.5573 16.48H58.7573V16.28H58.5573V16.48ZM55.9333 16.544L55.9848 16.7372L55.9848 16.7372L55.9333 16.544ZM55.6133 16.832L55.4249 16.7647L55.4249 16.7647L55.6133 16.832ZM55.6293 18.144L55.4454 18.2228L55.4477 18.2278L55.6293 18.144ZM56.0293 18.432L55.9783 18.6257L55.988 18.6277L56.0293 18.432ZM55.9173 19.928C55.4125 19.928 54.9973 19.8557 54.6654 19.7191L54.5131 20.0889C54.9065 20.2509 55.3767 20.328 55.9173 20.328V19.928ZM54.67 19.721C54.3482 19.579 54.104 19.354 53.9328 19.0402L53.5817 19.2318C53.7945 19.622 54.105 19.909 54.5085 20.087L54.67 19.721ZM53.9361 19.0466C53.7735 18.7213 53.6853 18.2805 53.6853 17.712H53.2853C53.2853 18.3168 53.3783 18.8254 53.5784 19.2254L53.9361 19.0466ZM53.6853 17.712C53.6853 17.0949 53.759 16.6285 53.8942 16.3001L53.5243 16.1478C53.3608 16.5449 53.2853 17.0705 53.2853 17.712H53.6853ZM53.8949 16.2983C54.0244 15.9748 54.2469 15.7472 54.572 15.6078L54.4145 15.2402C53.9929 15.4208 53.6928 15.7266 53.5236 16.1497L53.8949 16.2983ZM54.5764 15.6059C54.9125 15.4523 55.3971 15.368 56.0453 15.368V14.968C55.3707 14.968 54.8207 15.0544 54.4101 15.2421L54.5764 15.6059ZM56.0453 15.368C56.1464 15.368 56.2914 15.3731 56.4822 15.3837L56.5043 14.9843C56.3111 14.9736 56.1574 14.968 56.0453 14.968V15.368ZM56.4933 15.384C56.6817 15.384 56.8974 15.3892 57.1406 15.3998L57.1579 15.0002C56.9105 14.9894 56.6888 14.984 56.4933 14.984V15.384ZM57.1493 15.4C57.3917 15.4 57.6341 15.4053 57.8766 15.4158L57.8939 15.0162C57.6457 15.0054 57.3975 15 57.1493 15V15.4ZM57.8853 15.416C58.1278 15.416 58.3482 15.4213 58.5467 15.4317L58.5678 15.0323C58.361 15.0214 58.1334 15.016 57.8853 15.016V15.416ZM58.7573 15.232V14.912H58.3573V15.232H58.7573ZM58.7573 14.912C58.7573 14.5528 58.7303 14.2558 58.6707 14.0291L58.2838 14.1309C58.3308 14.3095 58.3573 14.5672 58.3573 14.912H58.7573ZM58.6707 14.0291C58.607 13.7873 58.4803 13.5916 58.2814 13.4638L58.0651 13.8002C58.1649 13.8644 58.2408 13.9674 58.2838 14.1309L58.6707 14.0291ZM58.2814 13.4638C58.0917 13.3418 57.8347 13.279 57.532 13.2565L57.5025 13.6555C57.7758 13.6757 57.9561 13.7302 58.0651 13.8002L58.2814 13.4638ZM57.532 13.2565C57.2371 13.2347 56.8583 13.224 56.3973 13.224V13.624C56.8535 13.624 57.2214 13.6346 57.5025 13.6555L57.532 13.2565ZM56.3973 13.224C56.1597 13.224 55.8853 13.2294 55.5744 13.2401L55.5881 13.6399C55.8959 13.6293 56.1655 13.624 56.3973 13.624V13.224ZM55.5744 13.2401C55.2626 13.2509 54.9613 13.267 54.6705 13.2885L54.7 13.6875C54.9852 13.6663 55.2813 13.6505 55.5881 13.6399L55.5744 13.2401ZM54.6705 13.2885C54.381 13.31 54.1479 13.3316 53.9724 13.3535L54.0221 13.7505C54.1879 13.7297 54.4135 13.7087 54.7 13.6875L54.6705 13.2885ZM54.1973 13.552V11.952H53.7973V13.552H54.1973ZM54.0294 12.1494C54.482 12.0757 54.9725 12.0177 55.5012 11.9754L55.4693 11.5766C54.9313 11.6197 54.4299 11.6789 53.9651 11.7546L54.0294 12.1494ZM55.5012 11.9754C56.0291 11.9331 56.5625 11.912 57.1013 11.912V11.512C56.552 11.512 56.008 11.5335 55.4693 11.5766L55.5012 11.9754ZM57.1013 11.912C57.7336 11.912 58.2528 11.9543 58.662 12.0361L58.7405 11.6439C58.2964 11.5551 57.7489 11.512 57.1013 11.512V11.912ZM58.6676 12.0371C59.0886 12.109 59.4056 12.2246 59.6303 12.3744L59.8522 12.0416C59.5649 11.8501 59.1886 11.7203 58.7349 11.6429L58.6676 12.0371ZM59.6334 12.3765C59.8711 12.5286 60.0422 12.7198 60.1529 12.9505L60.5136 12.7775C60.3683 12.4749 60.1447 12.2288 59.8491 12.0395L59.6334 12.3765ZM60.1574 12.9593C60.2813 13.1881 60.3662 13.4717 60.4066 13.8154L60.8039 13.7686C60.759 13.3869 60.6625 13.0519 60.5091 12.7687L60.1574 12.9593ZM60.4067 13.8161C60.4482 14.1582 60.4693 14.5552 60.4693 15.008H60.8693C60.8693 14.5435 60.8477 14.1298 60.8038 13.7679L60.4067 13.8161ZM60.4693 15.008V20H60.8693V15.008H60.4693ZM60.6693 19.8H58.7013V20.2H60.6693V19.8ZM58.9008 19.9871L58.8368 18.9951L58.4377 19.0209L58.5017 20.0129L58.9008 19.9871ZM58.6373 18.808H58.5093V19.208H58.6373V18.808ZM58.3339 18.9118C58.169 19.2125 57.9555 19.428 57.6948 19.5677L57.8837 19.9203C58.2203 19.74 58.4868 19.4648 58.6846 19.1042L58.3339 18.9118ZM57.6921 19.5692C57.4265 19.7167 57.1415 19.8102 56.8357 19.8496L56.8868 20.2464C57.2423 20.2005 57.576 20.0913 57.8864 19.9188L57.6921 19.5692ZM56.8284 19.8507C56.5187 19.9023 56.215 19.928 55.9173 19.928V20.328C56.2381 20.328 56.5638 20.3003 56.8941 20.2453L56.8284 19.8507ZM56.9253 18.696C57.1683 18.696 57.3839 18.6795 57.5701 18.6446L57.4964 18.2514C57.3413 18.2805 57.1515 18.296 56.9253 18.296V18.696ZM57.568 18.645C57.7672 18.6098 57.9453 18.5498 58.098 18.4608L57.8965 18.1152C57.7932 18.1755 57.662 18.2222 57.4985 18.251L57.568 18.645ZM58.1021 18.4583C58.2659 18.3575 58.3972 18.2279 58.49 18.0688L58.1445 17.8672C58.088 17.9641 58.0059 18.0478 57.8924 18.1177L58.1021 18.4583ZM58.4933 18.0628C58.5794 17.903 58.6435 17.7131 58.689 17.4972L58.2975 17.4148C58.2577 17.6043 58.2044 17.7557 58.1412 17.8732L58.4933 18.0628ZM58.689 17.4972C58.7353 17.2769 58.7573 17.0169 58.7573 16.72H58.3573C58.3573 16.9991 58.3365 17.2298 58.2975 17.4148L58.689 17.4972ZM58.7573 16.72V16.48H58.3573V16.72H58.7573ZM58.5573 16.28H56.6213V16.68H58.5573V16.28ZM56.6213 16.28C56.3167 16.28 56.0669 16.3014 55.8817 16.3508L55.9848 16.7372C56.1196 16.7013 56.3284 16.68 56.6213 16.68V16.28ZM55.8817 16.3508C55.6615 16.4095 55.5015 16.5503 55.4249 16.7647L55.8016 16.8993C55.8317 16.8151 55.885 16.7639 55.9848 16.7372L55.8817 16.3508ZM55.4249 16.7647C55.3598 16.9471 55.3333 17.1989 55.3333 17.504H55.7333C55.7333 17.2117 55.7601 17.0156 55.8016 16.8993L55.4249 16.7647ZM55.3333 17.504C55.3333 17.7919 55.3658 18.0369 55.4454 18.2228L55.8131 18.0652C55.7647 17.9524 55.7333 17.7707 55.7333 17.504H55.3333ZM55.4477 18.2278C55.5451 18.4389 55.7406 18.5629 55.9784 18.6254L56.0801 18.2386C55.9125 18.1945 55.8414 18.1264 55.8108 18.0602L55.4477 18.2278ZM55.988 18.6277C56.2114 18.6747 56.5268 18.696 56.9253 18.696V18.296C56.5344 18.296 56.2524 18.2746 56.0705 18.2363L55.988 18.6277ZM62.9641 20H62.7641V20.2H62.9641V20ZM62.9641 11.84V11.64H62.7641V11.84H62.9641ZM64.9481 11.84L65.1477 11.8275L65.136 11.64H64.9481V11.84ZM65.0121 12.864L64.8125 12.8765L64.8242 13.064H65.0121V12.864ZM65.1401 12.864V13.064H65.2574L65.3146 12.9617L65.1401 12.864ZM65.6841 12.208L65.5629 12.0489L65.5592 12.0518L65.6841 12.208ZM66.5001 11.84L66.5456 12.0348L66.5501 12.0337L66.5001 11.84ZM68.9481 11.92L68.8708 12.1045L68.8729 12.1053L68.9481 11.92ZM69.7321 12.528L69.5667 12.6405L69.5667 12.6405L69.7321 12.528ZM70.0841 13.52L69.8859 13.5468L69.8867 13.552L70.0841 13.52ZM70.1801 20V20.2H70.3801V20H70.1801ZM68.0681 20H67.8681V20.2H68.0681V20ZM68.0201 14.512L68.2189 14.4899L68.2189 14.4899L68.0201 14.512ZM67.8281 13.872L67.9926 13.7582L67.9926 13.7582L67.8281 13.872ZM67.3961 13.616L67.3527 13.8115L67.3632 13.8133L67.3961 13.616ZM65.7961 13.68L65.8653 13.8677L65.8704 13.8657L65.7961 13.68ZM65.3321 14.064L65.1597 13.9626L65.1578 13.9659L65.3321 14.064ZM65.1241 14.752L64.9262 14.7227L64.9254 14.7291L65.1241 14.752ZM65.0761 20V20.2H65.2761V20H65.0761ZM63.1641 20V11.84H62.7641V20H63.1641ZM62.9641 12.04H64.9481V11.64H62.9641V12.04ZM64.7485 11.8525L64.8125 12.8765L65.2117 12.8515L65.1477 11.8275L64.7485 11.8525ZM65.0121 13.064H65.1401V12.664H65.0121V13.064ZM65.3146 12.9617C65.4529 12.7149 65.6181 12.5169 65.8091 12.3642L65.5592 12.0518C65.3235 12.2404 65.1261 12.4798 64.9656 12.7663L65.3146 12.9617ZM65.8053 12.3671C66.0034 12.2161 66.2485 12.1041 66.5456 12.0348L66.4547 11.6452C66.1117 11.7253 65.8128 11.8585 65.5629 12.0489L65.8053 12.3671ZM66.5501 12.0337C66.8614 11.9533 67.2175 11.912 67.6201 11.912V11.512C67.1908 11.512 66.8002 11.556 66.4502 11.6463L66.5501 12.0337ZM67.6201 11.912C68.1612 11.912 68.5743 11.9801 68.8708 12.1044L69.0255 11.7356C68.6606 11.5826 68.1884 11.512 67.6201 11.512V11.912ZM68.8729 12.1053C69.183 12.2313 69.4106 12.4109 69.5667 12.6405L69.8975 12.4155C69.6909 12.1118 69.3959 11.886 69.0234 11.7347L68.8729 12.1053ZM69.5667 12.6405C69.727 12.8762 69.8358 13.1758 69.8859 13.5468L70.2823 13.4932C70.2258 13.0749 70.0999 12.7132 69.8975 12.4155L69.5667 12.6405ZM69.8867 13.552C69.9486 13.9335 69.9801 14.381 69.9801 14.896H70.3801C70.3801 14.3657 70.3477 13.8959 70.2815 13.488L69.8867 13.552ZM69.9801 14.896V20H70.3801V14.896H69.9801ZM70.1801 19.8H68.0681V20.2H70.1801V19.8ZM68.2681 20V15.68H67.8681V20H68.2681ZM68.2681 15.68C68.2681 15.1863 68.2521 14.7885 68.2189 14.4899L67.8213 14.5341C67.8522 14.8115 67.8681 15.1924 67.8681 15.68H68.2681ZM68.2189 14.4899C68.1855 14.1896 68.1165 13.9372 67.9926 13.7582L67.6637 13.9858C67.7318 14.0842 67.7907 14.2584 67.8213 14.5341L68.2189 14.4899ZM67.9926 13.7582C67.861 13.5681 67.6654 13.4581 67.429 13.4187L67.3632 13.8133C67.5109 13.8379 67.6033 13.8986 67.6637 13.9858L67.9926 13.7582ZM67.4395 13.4208C67.2272 13.3736 66.9549 13.352 66.6281 13.352V13.752C66.9414 13.752 67.181 13.7731 67.3527 13.8112L67.4395 13.4208ZM66.6281 13.352C66.2726 13.352 65.9674 13.3961 65.7218 13.4943L65.8704 13.8657C66.0516 13.7932 66.301 13.752 66.6281 13.752V13.352ZM65.727 13.4923C65.4822 13.5825 65.2905 13.7403 65.1597 13.9626L65.5045 14.1654C65.5871 14.025 65.7047 13.9268 65.8653 13.8677L65.727 13.4923ZM65.1578 13.9659C65.0455 14.1656 64.971 14.4212 64.9263 14.7227L65.322 14.7813C65.3626 14.5068 65.4267 14.3037 65.5064 14.1621L65.1578 13.9659ZM64.9254 14.7291C64.8923 15.0166 64.8761 15.3661 64.8761 15.776H65.2761C65.2761 15.3752 65.292 15.0421 65.3228 14.7749L64.9254 14.7291ZM64.8761 15.776V20H65.2761V15.776H64.8761ZM65.0761 19.8H62.9641V20.2H65.0761V19.8ZM73.2165 20H73.0165V20.2H73.2165V20ZM73.2165 13.552H73.4165V13.352H73.2165V13.552ZM71.6485 13.552H71.4485V13.752H71.6485V13.552ZM71.6485 11.84V11.64H71.4485V11.84H71.6485ZM73.2165 11.84V12.04H73.4165V11.84H73.2165ZM73.2165 9.472V9.272H73.0165V9.472H73.2165ZM75.3445 9.472H75.5445V9.272H75.3445V9.472ZM75.3445 11.84H75.1445V12.04H75.3445V11.84ZM77.2005 11.84H77.4005V11.64H77.2005V11.84ZM77.2005 13.552V13.752H77.4005V13.552H77.2005ZM75.3445 13.552V13.352H75.1445V13.552H75.3445ZM75.3445 20V20.2H75.5445V20H75.3445ZM73.4165 20V13.552H73.0165V20H73.4165ZM73.2165 13.352H71.6485V13.752H73.2165V13.352ZM71.8485 13.552V11.84H71.4485V13.552H71.8485ZM71.6485 12.04H73.2165V11.64H71.6485V12.04ZM73.4165 11.84V9.472H73.0165V11.84H73.4165ZM73.2165 9.672H75.3445V9.272H73.2165V9.672ZM75.1445 9.472V11.84H75.5445V9.472H75.1445ZM75.3445 12.04H77.2005V11.64H75.3445V12.04ZM77.0005 11.84V13.552H77.4005V11.84H77.0005ZM77.2005 13.352H75.3445V13.752H77.2005V13.352ZM75.1445 13.552V20H75.5445V13.552H75.1445ZM75.3445 19.8H73.2165V20.2H75.3445V19.8ZM79.1986 19.904L79.1179 20.087L79.1225 20.0889L79.1986 19.904ZM78.3666 19.136L78.1876 19.2255L78.191 19.2318L78.3666 19.136ZM78.3186 16.224L78.5036 16.3002L78.5043 16.2983L78.3186 16.224ZM79.1026 15.424L79.1814 15.6079L79.1858 15.6059L79.1026 15.424ZM81.1026 15.184L81.0915 15.384H81.1026V15.184ZM81.7586 15.2L81.7499 15.4H81.7586V15.2ZM82.4946 15.216L82.4859 15.416H82.4946V15.216ZM83.1666 15.232L83.1561 15.4317L83.3666 15.4428V15.232H83.1666ZM83.0866 14.08L82.8932 14.1309L82.8932 14.1309L83.0866 14.08ZM82.7826 13.632L82.8908 13.4638L82.8908 13.4638L82.7826 13.632ZM82.1266 13.456L82.1119 13.6555L82.1119 13.6555L82.1266 13.456ZM80.1906 13.44L80.1837 13.2401L80.1837 13.2401L80.1906 13.44ZM79.2946 13.488L79.3094 13.6875L79.3094 13.6875L79.2946 13.488ZM78.6066 13.552H78.4066V13.7786L78.6314 13.7505L78.6066 13.552ZM78.6066 11.952L78.5745 11.7546L78.4066 11.7819V11.952H78.6066ZM80.0946 11.776L80.1106 11.9754L80.1106 11.9754L80.0946 11.776ZM83.3106 11.84L83.2714 12.0362L83.277 12.0371L83.3106 11.84ZM84.3506 12.208L84.2397 12.3744L84.2428 12.3765L84.3506 12.208ZM84.9426 12.864L84.7621 12.9506L84.7668 12.9593L84.9426 12.864ZM85.2146 13.792L85.016 13.8154L85.0161 13.8161L85.2146 13.792ZM85.2786 20V20.2H85.4786V20H85.2786ZM83.3106 20L83.111 20.0129L83.1231 20.2H83.3106V20ZM83.2466 19.008L83.4462 18.9951L83.4341 18.808H83.2466V19.008ZM83.1186 19.008V18.808H83.0002L82.9433 18.9118L83.1186 19.008ZM82.3986 19.744L82.3042 19.5677L82.3015 19.5692L82.3986 19.744ZM81.4706 20.048L81.445 19.8495L81.4377 19.8507L81.4706 20.048ZM82.1426 18.448L82.1079 18.251L82.1058 18.2514L82.1426 18.448ZM82.6066 18.288L82.7074 18.4608L82.7114 18.4583L82.6066 18.288ZM82.9266 17.968L83.0995 18.0688L83.1027 18.0628L82.9266 17.968ZM83.1026 17.456L82.9069 17.4148L82.9069 17.4148L83.1026 17.456ZM83.1666 16.48H83.3666V16.28H83.1666V16.48ZM80.5426 16.544L80.5942 16.7372L80.5942 16.7372L80.5426 16.544ZM80.2226 16.832L80.0343 16.7647L80.0343 16.7647L80.2226 16.832ZM80.2386 18.144L80.0547 18.2228L80.057 18.2278L80.2386 18.144ZM80.6386 18.432L80.5877 18.6257L80.5974 18.6277L80.6386 18.432ZM80.5266 19.928C80.0219 19.928 79.6067 19.8557 79.2748 19.7191L79.1225 20.0889C79.5159 20.2509 79.986 20.328 80.5266 20.328V19.928ZM79.2794 19.721C78.9576 19.579 78.7133 19.354 78.5422 19.0402L78.191 19.2318C78.4039 19.622 78.7144 19.909 79.1179 20.087L79.2794 19.721ZM78.5455 19.0466C78.3829 18.7213 78.2946 18.2805 78.2946 17.712H77.8946C77.8946 18.3168 77.9877 18.8254 78.1877 19.2254L78.5455 19.0466ZM78.2946 17.712C78.2946 17.0949 78.3684 16.6285 78.5036 16.3001L78.1337 16.1478C77.9702 16.5449 77.8946 17.0705 77.8946 17.712H78.2946ZM78.5043 16.2983C78.6337 15.9748 78.8563 15.7472 79.1814 15.6078L79.0238 15.2402C78.6023 15.4208 78.3022 15.7266 78.1329 16.1497L78.5043 16.2983ZM79.1858 15.6059C79.5219 15.4523 80.0065 15.368 80.6546 15.368V14.968C79.9801 14.968 79.4301 15.0544 79.0195 15.2421L79.1858 15.6059ZM80.6546 15.368C80.7558 15.368 80.9008 15.3731 81.0915 15.3837L81.1137 14.9843C80.9204 14.9736 80.7668 14.968 80.6546 14.968V15.368ZM81.1026 15.384C81.2911 15.384 81.5067 15.3892 81.7499 15.3998L81.7673 15.0002C81.5198 14.9894 81.2982 14.984 81.1026 14.984V15.384ZM81.7586 15.4C82.0011 15.4 82.2435 15.4053 82.4859 15.4158L82.5033 15.0162C82.2551 15.0054 82.0069 15 81.7586 15V15.4ZM82.4946 15.416C82.7371 15.416 82.9576 15.4213 83.1561 15.4317L83.1771 15.0323C82.9703 15.0214 82.7428 15.016 82.4946 15.016V15.416ZM83.3666 15.232V14.912H82.9666V15.232H83.3666ZM83.3666 14.912C83.3666 14.5528 83.3397 14.2558 83.28 14.0291L82.8932 14.1309C82.9402 14.3095 82.9666 14.5672 82.9666 14.912H83.3666ZM83.28 14.0291C83.2164 13.7873 83.0896 13.5916 82.8908 13.4638L82.6745 13.8002C82.7743 13.8644 82.8502 13.9674 82.8932 14.1309L83.28 14.0291ZM82.8908 13.4638C82.7011 13.3418 82.4441 13.279 82.1414 13.2565L82.1119 13.6555C82.3852 13.6757 82.5655 13.7302 82.6745 13.8002L82.8908 13.4638ZM82.1414 13.2565C81.8465 13.2347 81.4677 13.224 81.0066 13.224V13.624C81.4629 13.624 81.8308 13.6346 82.1119 13.6555L82.1414 13.2565ZM81.0066 13.224C80.7691 13.224 80.4947 13.2294 80.1837 13.2401L80.1975 13.6399C80.5052 13.6293 80.7748 13.624 81.0066 13.624V13.224ZM80.1837 13.2401C79.872 13.2509 79.5707 13.267 79.2799 13.2885L79.3094 13.6875C79.5946 13.6663 79.8906 13.6505 80.1975 13.6399L80.1837 13.2401ZM79.2799 13.2885C78.9904 13.31 78.7573 13.3316 78.5818 13.3535L78.6314 13.7505C78.7973 13.7297 79.0228 13.7087 79.3094 13.6875L79.2799 13.2885ZM78.8066 13.552V11.952H78.4066V13.552H78.8066ZM78.6388 12.1494C79.0913 12.0757 79.5819 12.0177 80.1106 11.9754L80.0787 11.5766C79.5407 11.6197 79.0393 11.6789 78.5745 11.7546L78.6388 12.1494ZM80.1106 11.9754C80.6385 11.9331 81.1719 11.912 81.7106 11.912V11.512C81.1614 11.512 80.6174 11.5335 80.0787 11.5766L80.1106 11.9754ZM81.7106 11.912C82.343 11.912 82.8621 11.9543 83.2714 12.0361L83.3498 11.6439C82.9058 11.5551 82.3583 11.512 81.7106 11.512V11.912ZM83.277 12.0371C83.6979 12.109 84.0149 12.2246 84.2397 12.3744L84.4616 12.0416C84.1743 11.8501 83.798 11.7203 83.3443 11.6429L83.277 12.0371ZM84.2428 12.3765C84.4805 12.5286 84.6515 12.7198 84.7623 12.9505L85.1229 12.7775C84.9777 12.4749 84.7541 12.2288 84.4584 12.0395L84.2428 12.3765ZM84.7668 12.9593C84.8907 13.1881 84.9756 13.4717 85.016 13.8154L85.4133 13.7686C85.3684 13.3869 85.2719 13.0519 85.1185 12.7687L84.7668 12.9593ZM85.0161 13.8161C85.0575 14.1582 85.0786 14.5552 85.0786 15.008H85.4786C85.4786 14.5435 85.457 14.1298 85.4132 13.7679L85.0161 13.8161ZM85.0786 15.008V20H85.4786V15.008H85.0786ZM85.2786 19.8H83.3106V20.2H85.2786V19.8ZM83.5102 19.9871L83.4462 18.9951L83.047 19.0209L83.111 20.0129L83.5102 19.9871ZM83.2466 18.808H83.1186V19.208H83.2466V18.808ZM82.9433 18.9118C82.7784 19.2125 82.5649 19.428 82.3042 19.5677L82.4931 19.9203C82.8297 19.74 83.0962 19.4648 83.294 19.1042L82.9433 18.9118ZM82.3015 19.5692C82.0359 19.7167 81.7509 19.8102 81.445 19.8496L81.4962 20.2464C81.8517 20.2005 82.1853 20.0913 82.4958 19.9188L82.3015 19.5692ZM81.4377 19.8507C81.1281 19.9023 80.8244 19.928 80.5266 19.928V20.328C80.8475 20.328 81.1732 20.3003 81.5035 20.2453L81.4377 19.8507ZM81.5346 18.696C81.7777 18.696 81.9933 18.6795 82.1795 18.6446L82.1058 18.2514C81.9506 18.2805 81.7609 18.296 81.5346 18.296V18.696ZM82.1774 18.645C82.3765 18.6098 82.5547 18.5498 82.7074 18.4608L82.5059 18.1152C82.4025 18.1755 82.2714 18.2222 82.1079 18.251L82.1774 18.645ZM82.7114 18.4583C82.8753 18.3575 83.0065 18.2279 83.0994 18.0688L82.7539 17.8672C82.6974 17.9641 82.6153 18.0478 82.5018 18.1177L82.7114 18.4583ZM83.1027 18.0628C83.1888 17.903 83.2529 17.7131 83.2983 17.4972L82.9069 17.4148C82.867 17.6043 82.8138 17.7557 82.7505 17.8732L83.1027 18.0628ZM83.2983 17.4972C83.3447 17.2769 83.3666 17.0169 83.3666 16.72H82.9666C82.9666 16.9991 82.9459 17.2298 82.9069 17.4148L83.2983 17.4972ZM83.3666 16.72V16.48H82.9666V16.72H83.3666ZM83.1666 16.28H81.2306V16.68H83.1666V16.28ZM81.2306 16.28C80.9261 16.28 80.6763 16.3014 80.4911 16.3508L80.5942 16.7372C80.729 16.7013 80.9378 16.68 81.2306 16.68V16.28ZM80.4911 16.3508C80.2709 16.4095 80.1109 16.5503 80.0343 16.7647L80.411 16.8993C80.441 16.8151 80.4944 16.7639 80.5942 16.7372L80.4911 16.3508ZM80.0343 16.7647C79.9691 16.9471 79.9426 17.1989 79.9426 17.504H80.3426C80.3426 17.2117 80.3694 17.0156 80.411 16.8993L80.0343 16.7647ZM79.9426 17.504C79.9426 17.7919 79.9751 18.0369 80.0548 18.2228L80.4225 18.0652C80.3741 17.9524 80.3426 17.7707 80.3426 17.504H79.9426ZM80.057 18.2278C80.1545 18.4389 80.35 18.5629 80.5877 18.6254L80.6895 18.2386C80.5219 18.1945 80.4508 18.1264 80.4202 18.0602L80.057 18.2278ZM80.5974 18.6277C80.8208 18.6747 81.1362 18.696 81.5346 18.696V18.296C81.1438 18.296 80.8618 18.2746 80.6798 18.2363L80.5974 18.6277ZM87.5735 20H87.3735V20.2H87.5735V20ZM87.5735 11.84V11.64H87.3735V11.84H87.5735ZM89.5575 11.84L89.7573 11.8309L89.7486 11.64H89.5575V11.84ZM89.6215 13.248L89.4217 13.2571L89.4304 13.448H89.6215V13.248ZM89.7495 13.248V13.448H89.8925L89.9387 13.3127L89.7495 13.248ZM90.3095 12.304L90.1746 12.1563L90.1714 12.1593L90.3095 12.304ZM91.1895 11.84L91.141 11.646L91.141 11.646L91.1895 11.84ZM92.3575 11.712H92.5575V11.512H92.3575V11.712ZM92.3575 13.728V13.928H92.5575V13.728H92.3575ZM90.7255 14.016L90.638 13.8361L90.6361 13.8371L90.7255 14.016ZM89.9095 14.96L89.7216 14.8913L89.7202 14.8954L89.9095 14.96ZM89.6855 20V20.2H89.8855V20H89.6855ZM87.7735 20V11.84H87.3735V20H87.7735ZM87.5735 12.04H89.5575V11.64H87.5735V12.04ZM89.3577 11.8491L89.4217 13.2571L89.8213 13.2389L89.7573 11.8309L89.3577 11.8491ZM89.6215 13.448H89.7495V13.048H89.6215V13.448ZM89.9387 13.3127C90.0702 12.9284 90.2424 12.6446 90.4476 12.4487L90.1714 12.1593C89.9073 12.4114 89.7061 12.7569 89.5603 13.1833L89.9387 13.3127ZM90.4444 12.4517C90.6637 12.2514 90.9269 12.1118 91.238 12.034L91.141 11.646C90.7694 11.7389 90.4459 11.9086 90.1746 12.1563L90.4444 12.4517ZM91.238 12.034C91.5602 11.9535 91.9327 11.912 92.3575 11.912V11.512C91.9076 11.512 91.5015 11.5558 91.141 11.646L91.238 12.034ZM92.1575 11.712V13.728H92.5575V11.712H92.1575ZM92.3575 13.528C91.6496 13.528 91.0712 13.6254 90.638 13.8362L90.813 14.1958C91.1691 14.0226 91.6787 13.928 92.3575 13.928V13.528ZM90.6361 13.8371C90.2023 14.054 89.8976 14.4105 89.7217 14.8913L90.0973 15.0287C90.2414 14.6349 90.4807 14.362 90.8149 14.1949L90.6361 13.8371ZM89.7202 14.8954C89.5608 15.3623 89.4855 15.9791 89.4855 16.736H89.8855C89.8855 15.9995 89.9596 15.4323 90.0988 15.0246L89.7202 14.8954ZM89.4855 16.736V20H89.8855V16.736H89.4855ZM89.6855 19.8H87.5735V20.2H89.6855V19.8Z" fill="black"/>
<defs>
<linearGradient id="paint0_linear_2_4" x1="0" y1="0" x2="16.5138" y2="55.0459" gradientUnits="userSpaceOnUse">
<stop stop-color="#FFFF80"/>
<stop offset="1" stop-color="#CCCC66"/>
</linearGradient>
</defs>
</svg>
